<?xml version="1.0" encoding="utf-8"?>
<!-- Generator: Adobe Illustrator 26.0.3, SVG Export Plug-In . SVG Version: 6.00 Build 0)  -->
<svg version="1.1" id="Layer_1" xmlns="http://www.w3.org/2000/svg" xmlns:xlink="http://www.w3.org/1999/xlink" x="0px" y="0px"
	 viewBox="0 0 511.5 60.3" style="enable-background:new 0 0 511.5 60.3;" xml:space="preserve">
<style type="text/css">
	.st0{display:none;}
	.st1{display:inline;fill:#02147A;}
	.st2{display:inline;fill:none;stroke:#02147A;stroke-width:4;}
	.st3{fill:#000F7F;}
</style>
<g id="Layer_1_00000158028077017224814490000004139117532858365357_" class="st0">
	<path class="st1" d="M303.8,52.3h-4l-7.3,13.9l-7.3-13.9h-4l8.1,15.4h6.4L303.8,52.3z M305.7,67.7h3.5v-5.3l2.1-0.2l12,5.5h7
		l-13.2-6l4.1-0.4c3.4-0.3,5.4-1.4,5.4-4.4c0-2.8-2.1-4.5-5.4-4.5h-15.5V67.7L305.7,67.7z M321.3,55.4c1.1,0,1.8,0.4,1.8,1.4
		s-0.7,1.4-1.8,1.5l-12.2,1.1v-4H321.3z M344.7,55.4h9.5v4.8c0,4.2-3.8,4.7-6.8,4.7c-2.7,0-5.9-0.3-6.7-3.3h-3.4
		c0.7,4.9,4.8,6.4,10.2,6.4c5.8,0,10.2-1.9,10.3-7.9v-7.8h-13L344.7,55.4L344.7,55.4z M360.8,67.7h17.3v-3.1h-13.8v-3.2h10.3v-3.1
		h-10.3v-2.9h13.8v-3.1h-17.4C360.8,52.3,360.8,67.7,360.8,67.7z M386.9,60.6l7.6,1.1c1.5,0.2,2.3,0.5,2.3,1.3v0.3
		c0,0.9-1.5,1.5-5.9,1.5c-3.8,0-6.7-0.8-7.2-3.3h-3.4c0.2,4.5,4.7,6.4,10.6,6.4c6,0,9.2-1.6,9.2-4.4v-0.9c0-2.2-1.7-3.4-4.8-3.9
		l-6.6-1c-2.9-0.4-4.5-1.1-4.5-2.3h11.2l-3.1-3.1h-6.7c-3,0-4.8,0.8-4.8,3.4v0.6C380.9,58.6,383.3,60,386.9,60.6z M405.7,60.2v-7.9
		h-3.4v7.8c0,6,4.5,7.9,10.3,7.9s10.3-1.9,10.3-7.9v-7.8h-3.6v7.9c0,4.2-3.8,4.8-6.8,4.8S405.7,64.4,405.7,60.2z M431.7,60.6
		l7.6,1.1c1.5,0.2,2.3,0.5,2.3,1.3v0.3c0,0.9-1.5,1.5-5.9,1.5c-3.8,0-6.7-0.8-7.2-3.3h-3.4c0.2,4.5,4.7,6.4,10.6,6.4
		c6,0,9.2-1.6,9.2-4.4v-0.9c0-2.2-1.7-3.4-4.8-3.9l-6.6-1c-2.9-0.4-4.5-1.1-4.5-2.3h11.3l-3.1-3.1h-6.7c-3,0-4.8,0.8-4.8,3.4v0.6
		C425.7,58.6,428.2,60,431.7,60.6z"/>
	<path class="st2" d="M454.2,85.2L454.2,85.2c4.8-1.8,9.3-4.2,13.5-7.2c7.2-5.2,13.1-11.8,16.9-19.3c-3.8-7.4-9.6-14.1-16.9-19.3
		 M454.2,85.2L454.2,85.2 M454.2,85.2L454.2,85.2 M454.2,85.2L454.2,85.2c-2.7,1-5.6,1.5-8.4,1.5l0,0 M445.7,86.7H289.5l0,0
		 M445.7,86.7H289.5 M289.5,86.7c-2.9,0-5.7-0.5-8.4-1.5l0,0l0,0 M281,85.2L281,85.2 M281,85.1c-4.8-1.8-9.3-4.2-13.5-7.2
		c-7.2-5.1-13-11.8-16.8-19.2c3.8-7.4,9.6-14.1,16.9-19.3c4.2-3,8.7-5.4,13.5-7.2c2.7-1,5.6-1.5,8.5-1.5l0,0 M289.5,30.7h156.2l0,0
		 M289.5,30.7h156.2 M445.7,30.7c2.9,0,5.8,0.5,8.5,1.5 M467.7,39.4l-13.5-7.2"/>
</g>
<g id="Layer_2_00000091729293162543203940000008534225732382499242_">
	<path class="st3" d="M42.7,0h426c26.3,2.6,40.1,28.2,40.7,29.3l0.5,0.9l-0.5,0.9c-0.6,1.1-14.4,26.7-40.6,29.2h-0.2H42.7h-0.1
		C16.4,57.8,2.6,32.2,2,31.1l-0.5-0.9L2,29.3C2.6,28.2,16.4,2.6,42.7,0L42.7,0z"/>
</g>
</svg>
