<?xml version="1.0" encoding="utf-8"?>
<!-- Generator: Adobe Illustrator 26.0.2, SVG Export Plug-In . SVG Version: 6.00 Build 0)  -->
<svg version="1.1" id="Layer_1" xmlns="http://www.w3.org/2000/svg" xmlns:xlink="http://www.w3.org/1999/xlink" x="0px" y="0px"
	 viewBox="0 0 60.3 288.4" style="enable-background:new 0 0 60.3 288.4;" xml:space="preserve">
<style type="text/css">
	.st0{display:none;}
	.st1{display:inline;fill:#02147A;}
	.st2{display:inline;fill:none;stroke:#02147A;stroke-width:4;}
	.st3{fill:#000F7F;}
</style>
<g id="Layer_1_00000158028077017224814490000004139117532858365357_" class="st0">
	<path class="st1" d="M-33.3,52.3h-4l-7.3,13.9l-7.3-13.9h-4l8.1,15.4h6.4L-33.3,52.3z M-31.4,67.7h3.5v-5.3l2.1-0.2l12,5.5h7
		l-13.2-6l4.1-0.4c3.4-0.3,5.4-1.4,5.4-4.4c0-2.8-2.1-4.5-5.4-4.5h-15.5V67.7z M-15.8,55.4c1.1,0,1.8,0.4,1.8,1.4s-0.7,1.4-1.8,1.5
		L-28,59.4v-4H-15.8z M7.6,55.4h9.5v4.8c0,4.2-3.8,4.7-6.8,4.7c-2.7,0-5.9-0.3-6.7-3.3H0.2C0.9,66.5,5,68,10.4,68
		c5.8,0,10.2-1.9,10.3-7.9v-7.8h-13L7.6,55.4L7.6,55.4z M23.7,67.7H41v-3.1H27.2v-3.2h10.3v-3.1H27.2v-2.9H41v-3.1H23.6
		C23.7,52.3,23.7,67.7,23.7,67.7z M49.8,60.6l7.6,1.1c1.5,0.2,2.3,0.5,2.3,1.3v0.3c0,0.9-1.5,1.5-5.9,1.5c-3.8,0-6.7-0.8-7.2-3.3
		h-3.4c0.2,4.5,4.7,6.4,10.6,6.4c6,0,9.2-1.6,9.2-4.4v-0.9c0-2.2-1.7-3.4-4.8-3.9l-6.6-1c-2.9-0.4-4.5-1.1-4.5-2.3h11.2l-3.1-3.1
		h-6.7c-3,0-4.8,0.8-4.8,3.4v0.6C43.8,58.6,46.2,60,49.8,60.6z M68.6,60.2v-7.9h-3.4v7.8c0,6,4.5,7.9,10.3,7.9s10.3-1.9,10.3-7.9
		v-7.8h-3.6v7.9c0,4.2-3.8,4.8-6.8,4.8S68.6,64.4,68.6,60.2z M94.6,60.6l7.6,1.1c1.5,0.2,2.3,0.5,2.3,1.3v0.3c0,0.9-1.5,1.5-5.9,1.5
		c-3.8,0-6.7-0.8-7.2-3.3H88c0.2,4.5,4.7,6.4,10.6,6.4c6,0,9.2-1.6,9.2-4.4v-0.9c0-2.2-1.7-3.4-4.8-3.9l-6.6-1
		c-2.9-0.4-4.5-1.1-4.5-2.3h11.3l-3.1-3.1h-6.7c-3,0-4.8,0.8-4.8,3.4v0.6C88.6,58.6,91.1,60,94.6,60.6z"/>
	<path class="st2" d="M117.1,85.2L117.1,85.2c4.8-1.8,9.3-4.2,13.5-7.2c7.2-5.2,13.1-11.8,16.9-19.3c-3.8-7.4-9.6-14.1-16.9-19.3
		 M117.1,85.2L117.1,85.2 M117.1,85.2L117.1,85.2 M117.1,85.2L117.1,85.2c-2.7,1-5.6,1.5-8.4,1.5l0,0 M108.6,86.7H-47.6l0,0
		 M108.6,86.7H-47.6 M-47.6,86.7c-2.9,0-5.7-0.5-8.4-1.5l0,0l0,0 M-56.1,85.2L-56.1,85.2 M-56.1,85.1c-4.8-1.8-9.3-4.2-13.5-7.2
		c-7.2-5.1-13-11.8-16.8-19.2c3.8-7.4,9.6-14.1,16.9-19.3c4.2-3,8.7-5.4,13.5-7.2c2.7-1,5.6-1.5,8.5-1.5l0,0 M-47.6,30.7h156.2l0,0
		 M-47.6,30.7h156.2 M108.6,30.7c2.9,0,5.8,0.5,8.5,1.5 M130.6,39.4l-13.5-7.2"/>
</g>
<g id="Layer_2_00000091729293162543203940000008534225732382499242_">
	<path class="st3" d="M60.3,41.2v206c-2.6,26.3-28.2,40.1-29.3,40.7l-0.9,0.5l-0.9-0.5c-1.1-0.6-26.7-14.4-29.2-40.6v-0.2V41.2v-0.1
		c2.5-26.2,28.1-40,29.2-40.6L30.1,0L31,0.5C32.1,1.1,57.7,14.9,60.3,41.2L60.3,41.2z M56.3,247V41.4C54.1,20.2,34.6,7.3,30.1,4.6
		c-4.5,2.7-24,15.6-26.2,36.8V247c2.2,21.3,21.7,34.1,26.2,36.8C34.6,281.1,54.1,268.3,56.3,247z"/>
</g>
</svg>
