<?xml version="1.0" encoding="utf-8"?>
<!-- Generator: Adobe Illustrator 26.0.2, SVG Export Plug-In . SVG Version: 6.00 Build 0)  -->
<svg version="1.1" id="Layer_1" xmlns="http://www.w3.org/2000/svg" xmlns:xlink="http://www.w3.org/1999/xlink" x="0px" y="0px"
	 viewBox="0 0 34 34" style="enable-background:new 0 0 34 34;" xml:space="preserve">
<style type="text/css">
	.st0{fill:none;stroke:#000F7F;stroke-width:4;}
</style>
<path class="st0" d="M29,15.6L27.6,17l1.4,1.4l0.8,0.8c2.9,2.9,2.9,7.7,0,10.6c-2.9,2.9-7.7,2.9-10.6,0l-1.4,1.4l1.4-1.4L18.4,29
	L17,27.6L15.6,29l-0.8,0.8c-2.9,2.9-7.7,2.9-10.6,0c-2.9-2.9-2.9-7.7,0-10.6L5,18.4L6.4,17L5,15.6l-0.8-0.8c-2.9-2.9-2.9-7.7,0-10.6
	c2.9-2.9,7.7-2.9,10.6,0L15.6,5L17,6.4L18.4,5l0.8-0.8c2.9-2.9,7.7-2.9,10.6,0c2.9,2.9,2.9,7.7,0,10.6L29,15.6z"/>
</svg>
