<?xml version="1.0" encoding="utf-8"?>
<!-- Generator: Adobe Illustrator 26.0.2, SVG Export Plug-In . SVG Version: 6.00 Build 0)  -->
<svg version="1.1" id="Layer_1" xmlns="http://www.w3.org/2000/svg" xmlns:xlink="http://www.w3.org/1999/xlink" x="0px" y="0px"
	 viewBox="0 0 2000 598.7" style="enable-background:new 0 0 2000 598.7;" xml:space="preserve">
<style type="text/css">
	.st0{fill:none;}
	.st1{fill:#C09CFF;}
</style>
<g>
	<path class="st0" d="M707.4,7.3C537.5,25.6,367.9,44.2,201.6,83.2c-70,16.7-130.6,33.9-167,102.1C1.8,247,2.5,308.9,0.4,379.5
		c0,43.8,0.9,91.9,15.3,132.9c32,96,109.5,88.1,190.7,84.2c115-5.5,524.4-28.9,596.7-82.1c104-76.6,109.9-93.1,197.1-97.3
		c87.2,4.3,93.1,20.7,197.1,97.3c72.3,53.3,481.7,76.6,596.7,82.1c81.3,3.9,158.8,11.7,190.7-84.2c14.4-41,15.3-89.2,15.3-132.9
		c-2-70.6-1.3-132.5-34.2-194.2c-36.4-68.2-97-85.4-167-102.1c-166.3-39-335.9-57.6-505.8-75.9c-97.1-10.5-195.6-6.3-292.9-7.5
		C903,1,804.5-3.2,707.4,7.3z"/>
	<path class="st1" d="M1293.1,7.3c169.8,18.3,339.5,36.9,505.8,75.9c70,16.7,130.6,33.9,167,102.1c32.8,61.7,32.2,123.6,34.2,194.2
		c0,43.8-0.9,91.9-15.3,132.9c-32,96-109.5,88.1-190.7,84.2c-115-5.5-524.4-28.9-596.7-82.1c-104-76.6-109.9-93.1-197.1-97.3
		c-87.2,4.3-93.1,20.7-197.1,97.3c-72.3,53.3-481.7,76.6-596.7,82.1c-81.3,3.9-158.8,11.7-190.7-84.2c-14.4-41-15.3-89.2-15.3-132.9
		c2-70.6,1.3-132.5,34.2-194.2c36.4-68.2,97-85.4,167-102.1c166.3-39,335.9-57.6,505.8-75.9C804.5-3.2,903,1,1000.2-0.2H0.4v598.9
		H2000V-0.2h-999.8C1097.4,1,1195.9-3.2,1293.1,7.3z"/>
</g>
</svg>
