<?xml version="1.0" encoding="utf-8"?>
<!-- Generator: Adobe Illustrator 26.0.2, SVG Export Plug-In . SVG Version: 6.00 Build 0)  -->
<svg version="1.1" id="Layer_1" xmlns="http://www.w3.org/2000/svg" xmlns:xlink="http://www.w3.org/1999/xlink" x="0px" y="0px"
	 viewBox="0 0 164 164" style="enable-background:new 0 0 164 164;" xml:space="preserve">
<style type="text/css">
	.st0{fill-rule:evenodd;clip-rule:evenodd;fill:#000F7F;}
	.st1{fill:none;stroke:#000F7F;stroke-width:4;stroke-linecap:round;stroke-linejoin:round;}
	.st2{fill:none;stroke:#000F7F;stroke-width:4;stroke-linejoin:round;}
	.st3{fill:none;}
	.st4{fill:#000F7F;}
</style>
<path class="st1" d="M2,2c2.3,2.3,3.5,5.3,3.5,8.5S4.2,16.7,2,19l0,0c2.3-2.3,5.3-3.5,8.5-3.5s6.2,1.3,8.5,3.5l0,0
	c-2.3-2.3-3.5-5.3-3.5-8.5S16.8,4.3,19,2l0,0c-2.3,2.3-5.3,3.5-8.5,3.5S4.3,4.3,2,2L2,2z"/>
<path class="st1" d="M2,145c2.3,2.3,3.5,5.3,3.5,8.5S4.3,159.7,2,162l0,0c2.3-2.3,5.3-3.5,8.5-3.5s6.2,1.3,8.5,3.5l0,0
	c-2.3-2.3-3.5-5.3-3.5-8.5s1.3-6.2,3.5-8.5l0,0c-2.3,2.3-5.3,3.5-8.5,3.5S4.3,147.3,2,145L2,145z"/>
<path class="st1" d="M145,2c2.3,2.3,3.5,5.3,3.5,8.5s-1.3,6.2-3.5,8.5l0,0c2.3-2.3,5.3-3.5,8.5-3.5s6.2,1.3,8.5,3.5l0,0
	c-2.3-2.3-3.5-5.3-3.5-8.5s1.3-6.2,3.5-8.5l0,0c-2.3,2.3-5.3,3.5-8.5,3.5S147.3,4.3,145,2L145,2z"/>
<path class="st1" d="M145,145c2.3,2.3,3.5,5.3,3.5,8.5s-1.3,6.2-3.5,8.5l0,0c2.3-2.3,5.3-3.5,8.5-3.5s6.2,1.3,8.5,3.5l0,0
	c-2.3-2.3-3.5-5.3-3.5-8.5s1.3-6.2,3.5-8.5l0,0c-2.3,2.3-5.3,3.5-8.5,3.5S147.3,147.3,145,145L145,145z"/>
<path class="st1" d="M153,40.2L123.8,11H40.2L11,40.2v83.7L40.2,153h83.7l29.2-29.2L153,40.2L153,40.2z"/>
<path class="st2" d="M153.2,111.5l8.8-8.8V61.3l-8.8-8.8 M111.5,10.8L102.7,2H61.3l-8.8,8.8 M10.8,52.5L2,61.3v41.3l8.8,8.8
	 M52.5,153.2l8.8,8.8h41.3l8.8-8.8"/>
<g>
	<path class="st4" d="M93.3,65.2h32.3V43H82l0,0H38.5v22.2h32.3V121H82l0,0h11.3 M89.3,117H82h-7.3V61.2H42.5V47c0,0,39.5,0,39.6,0
		h39.5v14.2H89.3"/>
</g>
</svg>
