<?xml version="1.0" encoding="utf-8"?>
<!-- Generator: Adobe Illustrator 26.0.2, SVG Export Plug-In . SVG Version: 6.00 Build 0)  -->
<svg version="1.1" id="Layer_1" xmlns="http://www.w3.org/2000/svg" xmlns:xlink="http://www.w3.org/1999/xlink" x="0px" y="0px"
	 viewBox="0 0 24 24" style="enable-background:new 0 0 24 24;" xml:space="preserve">
<style type="text/css">
.social_icon {fill: #000f7f;}
</style>
<path class="social_icon" d="M7.5,22.3c9.1,0,14-7.5,14-14c0-0.2,0-0.4,0-0.6c1-0.7,1.8-1.6,2.5-2.5c-0.9,0.4-1.9,0.7-2.8,0.8
  c1-0.6,1.8-1.6,2.2-2.7c-1,0.6-2,1-3.1,1.2c-0.7-0.8-1.7-1.3-2.8-1.5c-1.1-0.2-2.2,0-3.1,0.5c-1,0.5-1.7,1.3-2.2,2.3
  c-0.4,1-0.6,2.1-0.3,3.1c-2-0.1-3.9-0.6-5.6-1.5C4.4,6.5,2.9,5.2,1.7,3.7C1,4.8,0.8,6.1,1.1,7.3c0.3,1.2,1,2.3,2.1,3
  c-0.8,0-1.6-0.2-2.2-0.6v0.1c0,1.1,0.4,2.2,1.1,3.1c0.7,0.9,1.7,1.5,2.8,1.7c-0.7,0.2-1.5,0.2-2.2,0.1c0.3,1,0.9,1.8,1.8,2.4
  s1.8,1,2.8,1c-1,0.8-2.2,1.4-3.4,1.7c-1.3,0.4-2.6,0.5-3.8,0.3C2.3,21.6,4.9,22.3,7.5,22.3"/>
</svg>
