<?xml version="1.0" encoding="utf-8"?>
<!-- Generator: Adobe Illustrator 26.0.2, SVG Export Plug-In . SVG Version: 6.00 Build 0)  -->
<svg version="1.1" id="Layer_1" xmlns="http://www.w3.org/2000/svg" xmlns:xlink="http://www.w3.org/1999/xlink" x="0px" y="0px"
	 viewBox="0 0 24 24" style="enable-background:new 0 0 24 24;" xml:space="preserve">
<style type="text/css">
.social_icon {fill: #000f7f;}
</style>
<g>
	<path class="social_icon" d="M12.1,0c-6.6,0-12,5.4-12,12s5.4,12,12,12c6.6,0,12-5.4,12-12S18.8,0,12.1,0z M6.1,12.4L6.1,12.4l3.2-5
          c0-0.1,0.2-0.1,0.2,0c0.5,1.2,1,2.6,0.8,3.5c-0.1,0.4-0.3,0.9-0.6,1.3c0,0.1-0.1,0.1-0.1,0.2c0,0-0.1,0-0.1,0H6.1
          C6.1,12.6,6,12.5,6.1,12.4z M20,14.1c0,0,0,0.1-0.1,0.1c-0.2,0.1-1.1,0.5-1.4,1c-0.9,1.2-1.5,3-3,3H9.2c-2.2,0-4-1.8-4-4V14
          c0-0.1,0-0.1,0.1-0.1h3.5c0.1,0,0.1,0.1,0.1,0.1c0,0.2,0,0.5,0.1,0.7c0.2,0.4,0.6,0.7,1.1,0.7h1.7V14h-1.7C10,14,10,13.9,10,13.9
          c0,0,0-0.1,0.1-0.1c0.2-0.2,0.4-0.6,0.6-1c0.2-0.3,0.3-0.6,0.4-0.9c0-0.1,0-0.1,0.1-0.2c0-0.1,0.1-0.2,0.1-0.3c0-0.1,0-0.2,0.1-0.2
          c0.1-0.2,0.1-0.5,0.1-0.8c0-0.1,0-0.2,0-0.3c0-0.1,0-0.2,0-0.4c0-0.1,0-0.2,0-0.3c0-0.2-0.1-0.3-0.1-0.5l0-0.1
          c0-0.1-0.1-0.2-0.1-0.3c-0.1-0.3-0.2-0.7-0.3-1c0-0.1-0.1-0.2-0.1-0.4c-0.1-0.2-0.1-0.3-0.2-0.5c0-0.1-0.1-0.1-0.1-0.2
          c0-0.1-0.1-0.1-0.1-0.2c0-0.1-0.1-0.1-0.1-0.2L10,5.9c0-0.1,0-0.1,0.1-0.1l1.3,0.4h0c0,0,0,0,0,0l0.2,0l0.2,0.1l0.1,0V5.5
          c0-0.4,0.3-0.7,0.7-0.7c0.2,0,0.4,0.1,0.5,0.2c0.1,0.1,0.2,0.3,0.2,0.5v1.2l0.1,0c0,0,0,0,0,0c0,0,0.1,0.1,0.1,0.1
          c0,0,0.1,0.1,0.2,0.1c0.1,0.1,0.3,0.2,0.4,0.4c0,0,0.1,0.1,0.1,0.1c0.2,0.2,0.5,0.4,0.7,0.7c0.1,0.1,0.1,0.1,0.2,0.2
          c0.1,0.1,0.1,0.2,0.2,0.2c0.1,0.1,0.2,0.2,0.2,0.3c0,0.1,0.1,0.1,0.1,0.2c0.1,0.1,0.2,0.3,0.3,0.4c0,0.1,0.1,0.1,0.1,0.2
          c0.1,0.2,0.2,0.4,0.2,0.6c0,0,0,0.1,0,0.1v0c0,0.1,0,0.1,0,0.2c0,0.2,0,0.4,0,0.6c0,0.1,0,0.2-0.1,0.3c0,0.1-0.1,0.2-0.1,0.3
          c-0.1,0.2-0.2,0.3-0.3,0.5c0,0.1-0.1,0.1-0.1,0.2c0,0.1-0.1,0.1-0.1,0.2c-0.1,0.1-0.1,0.2-0.2,0.2c-0.1,0.1-0.1,0.1-0.2,0.2
          c-0.1,0.1-0.2,0.2-0.2,0.3c0,0.1-0.1,0.1-0.2,0.2c-0.1,0.1-0.1,0.1-0.2,0.2c-0.1,0.1-0.2,0.1-0.2,0.2L14.3,14c0,0,0,0-0.1,0h-1.1
          v1.3h1.3c0.3,0,0.6-0.1,0.8-0.3c0.1-0.1,0.4-0.4,0.8-0.8c0,0,0,0,0.1,0l3.7-1.1c0.1,0,0.1,0,0.1,0.1V14.1z"/>
</g>
</svg>
