<?xml version="1.0" encoding="utf-8"?>
<!-- Generator: Adobe Illustrator 26.0.2, SVG Export Plug-In . SVG Version: 6.00 Build 0)  -->
<svg version="1.1" id="Layer_1" xmlns="http://www.w3.org/2000/svg" xmlns:xlink="http://www.w3.org/1999/xlink" x="0px" y="0px"
	 viewBox="0 0 24 24" style="enable-background:new 0 0 24 24;" xml:space="preserve">
<style type="text/css">
	.st0{fill:none;stroke:#02147A;stroke-width:2.5;stroke-miterlimit:10;}
	.st1{fill:#02147A;}
</style>
<circle class="st0" cx="12" cy="12" r="3.9"/>
<circle class="st0" cx="17.7" cy="6.3" r="0.3"/>
<g>
	<path class="st1" d="M17,2.6c2.4,0,4.3,1.9,4.3,4.3V17c0,2.4-1.9,4.3-4.3,4.3H7c-2.4,0-4.3-1.9-4.3-4.3V7c0-2.4,1.9-4.3,4.3-4.3H17
		 M17,0.1H7C3.2,0.1,0.1,3.2,0.1,7V17c0,3.8,3.1,6.8,6.8,6.8H17c3.8,0,6.8-3.1,6.8-6.8V7C23.9,3.2,20.8,0.1,17,0.1L17,0.1z"/>
</g>
</svg>
