<?xml version="1.0" encoding="utf-8"?>

<svg version="1.1" id="Layer_1" xmlns="http://www.w3.org/2000/svg" xmlns:xlink="http://www.w3.org/1999/xlink" x="0px" y="0px"
	 viewBox="0 0 24 24" style="enable-background:new 0 0 24 24;}" xml:space="preserve">
<style type="text/css">
.social_icon {fill: #000f7f;}
</style>

<path class="social_icon" d="M20.3,5.1c-1.5-0.6-3.2-1.1-4.9-1.3c0,0-0.1,0-0.1,0c-0.2,0.3-0.4,0.8-0.6,1.1c-1.8-0.2-3.7-0.2-5.5,0
  C9.1,4.6,8.9,4.2,8.6,3.8c0,0,0,0-0.1,0C6.8,4.1,5.2,4.5,3.7,5.1c0,0,0,0,0,0c-3.1,4.1-4,8-3.5,12c0,0,0,0,0,0c2.1,1.3,4,2.1,6,2.7
  c0,0,0.1,0,0.1,0c0.5-0.6,0.9-1.1,1.2-1.7c0,0,0-0.1,0-0.1c-0.7-0.2-1.3-0.5-1.9-0.8c0,0-0.1-0.1,0-0.1c0.1-0.1,0.3-0.2,0.4-0.3
  c0,0,0.1,0,0.1,0c3.9,1.6,8.2,1.6,12.1,0c0,0,0.1,0,0.1,0c0.1,0.1,0.2,0.2,0.4,0.3c0,0,0,0.1,0,0.1c-0.6,0.3-1.2,0.6-1.9,0.8
  c0,0-0.1,0.1,0,0.1c0.4,0.6,0.8,1.2,1.2,1.7c0,0,0.1,0,0.1,0c2-0.5,3.9-1.3,6-2.7c0,0,0,0,0,0C24.4,12.6,23.1,8.6,20.3,5.1
  C20.3,5.1,20.3,5.1,20.3,5.1z M8,14.7c-1.2,0-2.2-0.9-2.2-2.1c0-1.2,1-2.1,2.2-2.1c1.2,0,2.2,1,2.2,2.1C10.2,13.8,9.2,14.7,8,14.7z
   M16,14.7c-1.2,0-2.2-0.9-2.2-2.1c0-1.2,1-2.1,2.2-2.1c1.2,0,2.2,1,2.2,2.1C18.2,13.8,17.2,14.7,16,14.7z"/>
</svg>
