<?xml version="1.0" encoding="utf-8"?>
<!-- Generator: Adobe Illustrator 26.0.2, SVG Export Plug-In . SVG Version: 6.00 Build 0)  -->
<svg version="1.1" id="Layer_1" xmlns="http://www.w3.org/2000/svg" xmlns:xlink="http://www.w3.org/1999/xlink" x="0px" y="0px"
	 viewBox="0 0 24 24" style="enable-background:new 0 0 24 24;" xml:space="preserve">
<style type="text/css">
.social_icon {fill: #000f7f;}
</style>
<g>
<circle class="social_icon" cx="12" cy="12" r="4"/>
    <path class="social_icon" d="M23.9,7.1c-0.1-1.3-0.3-2.2-0.6-2.9C23.1,3.4,22.7,2.7,22,2c-0.7-0.7-1.3-1.1-2.1-1.4
    c-0.8-0.3-1.6-0.5-2.9-0.6C15.7,0,15.3,0,12,0S8.3,0,7.1,0.1C5.8,0.1,4.9,0.3,4.1,0.6C3.4,0.9,2.7,1.3,2,2C1.3,2.7,0.9,3.4,0.6,4.1
    C0.3,4.9,0.1,5.8,0.1,7C0,8.3,0,8.7,0,12s0,3.7,0.1,4.9c0.1,1.3,0.3,2.2,0.6,2.9C0.9,20.6,1.3,21.3,2,22c0.7,0.7,1.3,1.1,2.1,1.4
    c0.8,0.3,1.6,0.5,2.9,0.6C8.3,24,8.7,24,12,24s3.7,0,4.9-0.1c1.3-0.1,2.2-0.3,2.9-0.6c0.8-0.3,1.5-0.7,2.1-1.4
    c0.7-0.7,1.1-1.3,1.4-2.1c0.3-0.8,0.5-1.6,0.6-2.9C24,15.7,24,15.3,24,12S24,8.3,23.9,7.1z M12,18.2c-3.4,0-6.2-2.8-6.2-6.2
    c0-3.4,2.8-6.2,6.2-6.2c3.4,0,6.2,2.8,6.2,6.2C18.2,15.4,15.4,18.2,12,18.2z M18.4,7C17.6,7,17,6.4,17,5.6c0-0.8,0.6-1.4,1.4-1.4
    c0.8,0,1.4,0.6,1.4,1.4C19.8,6.4,19.2,7,18.4,7z"/>
</g>
</svg>
