<?xml version="1.0" encoding="utf-8"?>
<!-- Generator: Adobe Illustrator 26.0.2, SVG Export Plug-In . SVG Version: 6.00 Build 0)  -->
<svg version="1.1" id="Layer_1" xmlns="http://www.w3.org/2000/svg" xmlns:xlink="http://www.w3.org/1999/xlink" x="0px" y="0px"
	 viewBox="0 0 24 24" style="enable-background:new 0 0 24 24;" xml:space="preserve">
<style type="text/css">
	.st0{fill:#02147A;}
	.st1{fill:none;stroke:#02147A;stroke-width:2.5;stroke-linecap:round;stroke-linejoin:round;stroke-miterlimit:10;}
</style>
<g>
	<path class="st0" d="M12,2.5c5.2,0,9.5,4.3,9.5,9.5s-4.3,9.5-9.5,9.5S2.5,17.2,2.5,12S6.8,2.5,12,2.5 M12,0C5.4,0,0,5.4,0,12
		s5.4,12,12,12s12-5.4,12-12S18.6,0,12,0L12,0z"/>
</g>
<path class="st1" d="M6,14.4c0,0-0.5,2.5,3.3,2.5s6.5,0,6.5,0s0.5-2.5,2.6-2.5"/>
<path class="st1" d="M8.5,7.5c0,0,0.7,2.3-1.6,3.9"/>
<line class="st1" x1="11.8" y1="5.1" x2="11.8" y2="16.9"/>
<path class="st1" d="M12,5.1c0,0,10.2,4.2,0,7.6"/>
</svg>
