<?xml version="1.0" encoding="utf-8"?>
<!-- Generator: Adobe Illustrator 26.0.2, SVG Export Plug-In . SVG Version: 6.00 Build 0)  -->
<svg version="1.1" id="Layer_1" xmlns="http://www.w3.org/2000/svg" xmlns:xlink="http://www.w3.org/1999/xlink" x="0px" y="0px"
	 viewBox="0 0 24 24" style="enable-background:new 0 0 24 24;" xml:space="preserve">
<style type="text/css">
	.st0{fill:#02147A;}
</style>
<g>
	<path class="st0" d="M15,4.1c0.2,0,0.4,0,0.6,0.1c1.4,0.3,2.3,1.2,2.3,1.2c0.3,0.2,0.6,0.7,1,0.7c0.1,0,0.2,0,0.4-0.1
		c0.5-0.3,1.3-0.3,1.7-0.5c0,0,0.1,0,0.1,0c0.3,0-1.1,1.7-1.9,2.1c0.8,0,1.7-0.3,2.3-0.6c0,0,0.1,0,0.1,0c0.3,0-2.2,1.8-2.1,2.4
		c0,5.1-3.8,11-10.9,11c-2.1,0-4.1-0.5-5.8-1.8C2.3,18,2.5,17.9,3,17.9c0.3,0,0.7,0,1.1,0.1c0.3,0,0.5,0,0.8,0
		c0.7,0,1.3-0.1,1.9-0.3c0.3-0.1,0.5-0.2,0.8-0.3c0.3-0.2,0.2-0.5-0.1-0.6C7,16.5,6.5,16.4,6.1,16c-0.7-0.5-2.1-1.8-1.5-1.9
		c0.9,0,1.5,0,1.8-0.1c-0.8-0.2-1.6-0.7-2.2-1.4c-0.6-0.7-0.8-1.4-0.8-1.8c0-0.2,0.2-0.4,0.4-0.4c0.1,0,0.1,0,0.2,0
		c0.4,0.2,0.8,0.2,1.2,0.2c-0.8-0.5-1.5-1.4-1.7-2.3C3.3,7.7,3.3,7,3.6,6.3C3.7,6.1,3.9,6,4.1,6c0.1,0,0.3,0.1,0.4,0.2
		c0.8,0.9,1.8,1.8,3.1,2.4c0.8,0.4,1.5,0.7,2.4,0.9c0.1,0,0.2,0,0.4,0c0.6,0,1.1-0.3,1.4-0.8c0.1-0.2,0.1-0.5,0-0.8
		c-0.2-0.5-0.4-1.5,0.8-2.8C13,4.5,14,4.1,15,4.1 M15,1.6C15,1.6,15,1.6,15,1.6c-1.7,0-3.3,0.7-4.4,1.9c-1,1.1-1.4,2.1-1.5,3
		C9,6.5,8.8,6.4,8.7,6.3c0,0,0,0-0.1,0C7.8,5.9,7,5.3,6.3,4.5c-0.6-0.6-1.4-1-2.2-1c-1.2,0-2.3,0.7-2.8,1.8C0.8,6.5,0.8,7.7,1,9
		c0,0.2,0.1,0.4,0.2,0.6c-0.3,0.5-0.4,1.1-0.3,1.7C1,12.2,1.4,13.1,2,13.9c-0.1,0.5,0,1,0.2,1.6c-1.2,0.2-1.7,1-1.9,1.5
		c-0.2,0.5-0.6,1.7,0.4,3c0.2,0.2,0.3,0.4,0.6,0.5c2.1,1.5,4.5,2.2,7.3,2.2c3.7,0,7-1.3,9.5-3.8c2.3-2.4,3.8-5.7,3.9-9
		c0.2-0.2,0.5-0.5,0.7-0.6c0.7-0.6,1.9-1.7,1.3-3.4c-0.1-0.2-0.2-0.4-0.3-0.6c0-0.2,0-0.3-0.1-0.5c-0.3-1.2-1.3-2-2.5-2
		c-0.3,0-0.7,0.1-1,0.2c-0.1,0-0.1,0-0.2,0.1c-0.1,0-0.1,0-0.2,0c-0.1,0-0.2,0-0.4,0.1C18.6,2.7,17.5,2,16,1.7
		C15.7,1.6,15.3,1.6,15,1.6L15,1.6z"/>
</g>
</svg>
