<?xml version="1.0" encoding="utf-8"?>
<!-- Generator: Adobe Illustrator 26.0.2, SVG Export Plug-In . SVG Version: 6.00 Build 0)  -->
<svg version="1.1" id="Layer_1" xmlns="http://www.w3.org/2000/svg" xmlns:xlink="http://www.w3.org/1999/xlink" x="0px" y="0px"
	 viewBox="0 0 24 24" style="enable-background:new 0 0 24 24;" xml:space="preserve">
<style type="text/css">
	.st0{fill:none;stroke:#02147A;stroke-width:2.5;stroke-linecap:round;stroke-linejoin:round;stroke-miterlimit:10;}
	.st1{fill:none;stroke:#02147A;stroke-width:2.5;stroke-miterlimit:10;}
</style>
<path class="st0" d="M12,15.9c1.9,0,3.7-0.4,5.4-1.1c-1.9,0.8-1.2,1.9-1.2,1.9c0.3,0.5,0.6,2.1,1.1,2.6h0.1c1.8-0.5,3.4-1.2,5.3-2.4
	c0.4-3.5-0.4-7.4-3.1-11c-1.3-0.5-2.7-0.9-4.2-1.1c-0.1,0-0.1,0-0.1,0c-0.3,0.4-0.4,0.7-0.4,1c-0.9-0.1-4.6-0.1-5.5,0
	c0-0.3-0.2-0.6-0.4-1c0,0,0,0-0.1,0C7.2,5,5.8,5.3,4.5,5.9c-2.7,3.6-3.5,7.5-3.1,11c1.9,1.1,3.5,1.9,5.3,2.4h0.1
	c0.4-0.5,0.8-2.1,1.1-2.6c0,0,0.7-1.1-1.2-1.9C8.3,15.5,10.1,15.9,12,15.9z"/>
<circle class="st1" cx="15.6" cy="11.1" r="0.3"/>
<circle class="st1" cx="8.4" cy="11.1" r="0.3"/>
</svg>
