<svg width="345" height="44" viewBox="0 0 345 44" fill="none" xmlns="http://www.w3.org/2000/svg">
<path d="M298.867 22C305.734 22.0003 320.866 32.0517 320.867 38C320.867 32.0517 336 22.0003 342.867 22C336 21.9997 320.867 11.9483 320.867 6C320.866 11.9483 305.734 21.9997 298.867 22Z" stroke="white" stroke-width="3" stroke-linecap="round" stroke-linejoin="round"/>
<path fill-rule="evenodd" clip-rule="evenodd" d="M93.2989 1.22537L93.2603 1.23934C89.0371 2.61536 85.038 4.44843 81.3607 6.69366C74.9017 10.6411 69.6928 15.7618 66.297 21.5002L66 22.0076L66.297 22.515C69.6898 28.2534 74.8987 33.3741 81.3593 37.3228C85.0416 39.5684 89.0457 41.4014 93.2737 42.7771C95.7874 43.592 98.4547 44.0065 101.143 43.9999H243.723C246.412 44.0065 249.079 43.592 251.593 42.7771C255.821 41.4014 259.825 39.5684 263.507 37.3228C269.968 33.3741 275.177 28.2534 278.57 22.515L278.867 22.0076L278.57 21.5002C275.174 15.7618 269.965 10.6411 263.506 6.69366C259.829 4.44843 255.83 2.61536 251.606 1.23934L251.568 1.22537C249.062 0.409338 246.402 -0.00599641 243.72 6.54075e-05H101.146C98.4647 -0.00599641 95.8046 0.409338 93.2989 1.22537ZM102.636 26.098C99.593 26.098 96.601 25.503 96.601 22.664V21.797C96.601 18.958 99.593 18.363 102.636 18.363C105.407 18.363 108.144 18.856 108.603 21.1H111.238C110.881 17.428 107.617 16 102.636 16C97.349 16 94 17.598 94 21.797V22.664C94 26.863 97.349 28.461 102.636 28.461C107.566 28.461 110.813 27.067 111.221 23.48H108.569C108.042 25.622 105.356 26.098 102.636 26.098ZM125.624 25.826H116.053V16.34H113.367V28.24H125.624V25.826ZM132.03 18.754H127.406V16.34H139.34V18.754H134.716V25.826H139.34V28.24H127.406V25.826H132.03V18.754ZM149.602 26.098C146.559 26.098 143.567 25.503 143.567 22.664V21.797C143.567 18.958 146.559 18.363 149.602 18.363C152.373 18.363 155.11 18.856 155.569 21.1H158.204C157.847 17.428 154.583 16 149.602 16C144.315 16 140.966 17.598 140.966 21.797V22.664C140.966 26.863 144.315 28.461 149.602 28.461C154.532 28.461 157.779 27.067 158.187 23.48H155.535C155.008 25.622 152.322 26.098 149.602 26.098ZM174.052 28.24H170.924L166.759 22.001L163.019 24.092V28.24H160.333V16.34H163.019V21.389L172.029 16.34H176.857L169.037 20.726L174.052 28.24ZM197.108 28.24H199.794V16.34H197.108V20.964H186.245V16.34H183.559V28.24H186.245V23.429H197.108V28.24ZM215.799 28.24H202.352V16.34H215.799V18.754H205.038V21.015H213.011V23.378H205.038V25.826H215.799V28.24ZM218.007 28.24H220.693V24.109L222.325 23.956L231.607 28.24H236.979L226.813 23.565L229.958 23.276C232.559 23.055 234.157 22.205 234.157 19.842C234.157 17.649 232.559 16.34 229.958 16.34H218.007V28.24ZM230.128 18.754C230.944 18.754 231.505 19.06 231.505 19.842C231.505 20.607 230.944 20.93 230.128 20.998L220.693 21.848V18.754H230.128ZM251.027 28.24H237.58V16.34H251.027V18.754H240.266V21.015H248.239V23.378H240.266V25.826H251.027V28.24Z" fill="white"/>
<path d="M1.99998 22C8.86701 22.0003 23.9998 32.0517 24 38C24.0002 32.0517 39.133 22.0003 46 22C39.133 21.9997 24.0002 11.9483 24 6C23.9998 11.9483 8.86701 21.9997 1.99998 22Z" stroke="white" stroke-width="3" stroke-linecap="round" stroke-linejoin="round"/>
</svg>
