<?xml version="1.0" standalone="no"?>
<!DOCTYPE svg PUBLIC "-//W3C//DTD SVG 1.1//EN" "http://www.w3.org/Graphics/SVG/1.1/DTD/svg11.dtd" >
<svg xmlns="http://www.w3.org/2000/svg" xmlns:xlink="http://www.w3.org/1999/xlink" version="1.1">
<metadata>
Created by FontForge 20170731 at Sun Jan 16 18:39:38 2022
 By Aleksey,,,
Copyright (c) 2017 Swiss Typefaces Sarl. All rights reserved.
</metadata>
<defs>
<font id="BRRR-Medium" horiz-adv-x="2029" >
  <font-face 
    font-family="BRRR Medium"
    font-weight="500"
    font-stretch="normal"
    units-per-em="2048"
    panose-1="2 0 6 4 0 0 0 0 0 0"
    ascent="1626"
    descent="-422"
    x-height="1126"
    cap-height="1434"
    bbox="-1133 -465 3934 2736"
    underline-thickness="92"
    underline-position="-303"
    unicode-range="U+0020-FEFF"
  />
<missing-glyph horiz-adv-x="1243" 
d="M1018 0h-793v1434h793v-1434zM621 836l217 487h-435zM905 197v1038l-231 -518zM338 201l229 516l-229 514v-1030zM403 111h435l-217 485z" />
    <glyph glyph-name="f_a" unicode="fa" horiz-adv-x="2660" 
d="M61 860v266h224q0 197 139.5 316t388.5 119h344l399 -326l-645 72q-321 0 -321 -181h702l-258 -266h-444v-860h-305v860h-224zM2232 0v219q-85 -112 -231 -179t-330 -67q-237 0 -368.5 89t-131.5 266v51q0 91 37 155t106 99.5t153.5 51t193.5 15.5h551q-19 52 -55 85
t-94 49t-117.5 21t-149.5 5h-506l258 266h310q129 0 225.5 -13.5t174 -45t129 -80.5t86 -123.5t49.5 -171t15 -225.5v-467h-305zM1743 242q127 0 267.5 33.5t221.5 84.5v107h-561q-110 0 -159.5 -19t-49.5 -75v-21q0 -63 71.5 -86.5t209.5 -23.5z" />
    <glyph glyph-name="f_f_a" unicode="ffa" horiz-adv-x="3663" 
d="M1096 860v266h192q0 67 19 129l-396 52q-321 0 -321 -181h373v-266h-373v-860h-305v860h-224v266h224q0 197 139.5 316t388.5 119h344l197 -201q63 95 181.5 148t281.5 53h344l399 -326l-645 72q-322 0 -322 -181h703l-258 -266h-445v-860h-305v860h-192zM3236 0v219
q-85 -112 -231 -179t-330 -67q-237 0 -368.5 89t-131.5 266v51q0 91 37 155t106 99.5t153 51t193 15.5h551q-19 52 -55 85t-93.5 49t-117 21t-149.5 5h-506l258 266h309q129 0 225.5 -13.5t174.5 -45t129.5 -80.5t86 -123.5t49.5 -171t15 -225.5v-467h-305zM2746 242
q127 0 268 33.5t222 84.5v107h-561q-110 0 -159.5 -19t-49.5 -75v-21q0 -63 71 -86.5t209 -23.5z" />
    <glyph glyph-name="f_b" unicode="fb" horiz-adv-x="2865" 
d="M61 860v266h224q0 197 139.5 316t388.5 119h344l436 -449v-223q95 115 250 191.5t346 76.5q259 0 421.5 -153t162.5 -406v-66q0 -253 -162.5 -406t-421.5 -153q-191 0 -345.5 77t-250.5 192v-242h-305v1260l-377 47q-321 0 -321 -181h493v-266h-493v-860h-305v860h-224z
M2068 874q-122 0 -253.5 -38t-221.5 -91v-360q90 -53 221.5 -91t253.5 -38q188 0 302 69t114 207v66q0 138 -114 207t-302 69z" />
    <glyph glyph-name="f_f_b" unicode="ffb" horiz-adv-x="3868" 
d="M61 860v266h224q0 197 139.5 316t388.5 119h344l197 -201q63 95 181.5 148t281.5 53h344l436 -449v-223q95 115 250 191.5t346 76.5q259 0 421.5 -153t162.5 -406v-66q0 -253 -162.5 -406t-421.5 -153q-191 0 -345.5 77t-250.5 192v-242h-305v1260l-377 47
q-322 0 -322 -181h494v-266h-494v-860h-305v860h-192v266h192q0 67 19 129l-396 52q-321 0 -321 -181h373v-266h-373v-860h-305v860h-224zM3072 874q-122 0 -253.5 -38t-221.5 -91v-360q90 -53 221.5 -91t253.5 -38q188 0 302 69t114 207v66q0 138 -114 207t-302 69z" />
    <glyph glyph-name="f_f" unicode="ff" horiz-adv-x="2293" 
d="M1096 860v266h192q0 67 19 129l-396 52q-321 0 -321 -181h373v-266h-373v-860h-305v860h-224v266h224q0 197 139.5 316t388.5 119h344l197 -201q63 95 181.5 148t281.5 53h344l317 -326l-563 72q-322 0 -322 -181h582v-266h-582v-860h-305v860h-192z" />
    <glyph glyph-name="f_h" unicode="fh" horiz-adv-x="2811" 
d="M61 860v266h224q0 197 139.5 316t388.5 119h344l436 -449v-229q85 121 234 197.5t323 76.5q250 0 389.5 -146t139.5 -397v-614h-305v553q0 183 -68.5 252t-243.5 69q-117 0 -255 -39t-214 -98v-737h-305v1260l-377 47q-321 0 -321 -181h493v-266h-493v-860h-305v860h-224
z" />
    <glyph glyph-name="f_f_h" unicode="ffh" horiz-adv-x="3815" 
d="M1096 860v266h192q0 67 19 129l-396 52q-321 0 -321 -181h373v-266h-373v-860h-305v860h-224v266h224q0 197 139.5 316t388.5 119h344l197 -201q63 95 181.5 148t281.5 53h344l436 -449v-229q85 121 234 197.5t323 76.5q250 0 389 -146t139 -397v-614h-305v553
q0 183 -68 252t-243 69q-117 0 -255 -39t-214 -98v-737h-305v1260l-377 47q-322 0 -322 -181h494v-266h-494v-860h-305v860h-192z" />
    <glyph glyph-name="f_i" unicode="fi" horiz-adv-x="1757" 
d="M61 860v266h224q0 197 139.5 316t388.5 119h344l318 -326l-564 72q-321 0 -321 -181h493v-266h-493v-860h-305v860h-224zM1464 1561h566v-252h-566v252zM1288 1126h305v-1126h-305v1126z" />
    <glyph glyph-name="f_j" unicode="fj" horiz-adv-x="1808" 
d="M2081 1561v-252h-617v252h617zM911 1307q-321 0 -321 -181h1055v-989q0 -151 -47 -259t-140 -173.5t-223 -96t-305 -30.5v272q193 0 301 77t108 210v723h-749v-860h-305v860h-224v266h224q0 197 139.5 316t388.5 119h344l318 -326z" />
    <glyph glyph-name="f_f_j" unicode="ffj" horiz-adv-x="2811" 
d="M1915 1307q-322 0 -322 -181h1055v-989q0 -151 -47 -259t-140 -173.5t-223 -96t-305 -30.5v272q193 0 301.5 77t108.5 210v723h-750v-860h-305v860h-192v266h192q0 67 19 129l-396 52q-321 0 -321 -181h373v-266h-373v-860h-305v860h-224v266h224q0 197 139.5 316
t388.5 119h344l197 -201q63 95 181.5 148t281.5 53h344l317 -326zM3084 1561v-252h-616v252h616z" />
    <glyph glyph-name="f_k" unicode="fk" horiz-adv-x="2770" 
d="M61 860v266h224q0 197 139.5 316t388.5 119h344l436 -449v-360l748 374h590l-799 -401l442 -725h-344l-360 594l-277 -139v-455h-305v1260l-377 47q-321 0 -321 -181h493v-266h-493v-860h-305v860h-224z" />
    <glyph glyph-name="f_f_k" unicode="ffk" horiz-adv-x="3774" 
d="M1096 860v266h192q0 67 19 129l-396 52q-321 0 -321 -181h373v-266h-373v-860h-305v860h-224v266h224q0 197 139.5 316t388.5 119h344l197 -201q63 95 181.5 148t281.5 53h344l436 -449v-360l747 374h590l-799 -401l443 -725h-344l-361 594l-276 -139v-455h-305v1260
l-377 47q-322 0 -322 -181h494v-266h-494v-860h-305v860h-192z" />
    <glyph glyph-name="f_f_i" unicode="ffi" horiz-adv-x="2760" 
d="M1096 860v266h192q0 67 19 129l-396 52q-321 0 -321 -181h373v-266h-373v-860h-305v860h-224v266h224q0 197 139.5 316t388.5 119h344l197 -201q63 95 181.5 148t281.5 53h344l317 -326l-563 72q-322 0 -322 -181h494v-266h-494v-860h-305v860h-192zM2468 1561h565v-252
h-565v252zM2292 1126h305v-1126h-305v1126z" />
    <glyph glyph-name="f_l" unicode="fl" horiz-adv-x="1757" 
d="M61 860v266h224q0 197 139.5 316t388.5 119h344l436 -449v-1112h-305v1260l-377 47q-321 0 -321 -181h493v-266h-493v-860h-305v860h-224z" />
    <glyph glyph-name="f_f_l" unicode="ffl" horiz-adv-x="2760" 
d="M1096 860v266h192q0 67 19 129l-396 52q-321 0 -321 -181h373v-266h-373v-860h-305v860h-224v266h224q0 197 139.5 316t388.5 119h344l197 -201q63 95 181.5 148t281.5 53h344l436 -449v-1112h-305v1260l-377 47q-322 0 -322 -181h494v-266h-494v-860h-305v860h-192z" />
    <glyph glyph-name="f_t" unicode="ft" horiz-adv-x="2254" 
d="M61 860v266h224q0 197 139.5 316t388.5 119h344l424 -435h389l258 -266h-647v-450l621 -410h-521l-405 268v592h-193v266h193v134l-365 47q-321 0 -321 -181h360v-266h-360v-860h-305v860h-224z" />
    <glyph glyph-name="f_f_t" unicode="fft" horiz-adv-x="3258" 
d="M1096 860v266h192q0 67 19 129l-396 52q-321 0 -321 -181h373v-266h-373v-860h-305v860h-224v266h224q0 197 139.5 316t388.5 119h344l197 -201q63 95 181.5 148t281.5 53h344l424 -435h389l258 -266h-647v-450l620 -410h-520l-406 268v592h-192v266h192v134l-364 47
q-322 0 -322 -181h361v-266h-361v-860h-305v860h-192z" />
    <glyph glyph-name="k_a" unicode="ka" horiz-adv-x="3131" 
d="M1106 0l-361 594l-276 -139v-455h-305v1561h305v-809l748 374h589l-798 -401l442 -725h-344zM2703 0v219q-85 -112 -231 -179t-330 -67q-237 0 -368.5 89t-131.5 266v51q0 91 37 155t106 99.5t153.5 51t193.5 15.5h551q-19 52 -55 85t-94 49t-117.5 21t-149.5 5h-674
l531 266h205q129 0 225.5 -13.5t174.5 -45t129.5 -80.5t86 -123.5t49.5 -171t15 -225.5v-467h-306zM2214 242q127 0 267.5 33.5t221.5 84.5v107h-561q-110 0 -159.5 -19t-49.5 -75v-21q0 -63 71.5 -86.5t209.5 -23.5z" />
    <glyph glyph-name="k_f" unicode="kf" horiz-adv-x="2854" 
d="M469 1561v-809l748 374h632q0 197 140 316t389 119h344l317 -326l-563 72q-322 0 -322 -181h582v-266h-582v-860h-305v860h-573l-268 -135l442 -725h-344l-361 594l-276 -139v-455h-305v1561h305z" />
    <glyph glyph-name="k_j" unicode="kj" horiz-adv-x="2373" 
d="M1905 1561h741v-252h-741v252zM469 1561v-809l748 374h993v-989q0 -151 -47 -259t-140 -173.5t-223 -96t-305 -30.5v272q193 0 301.5 77t108.5 210v723h-629l-268 -135l442 -725h-344l-361 594l-276 -139v-455h-305v1561h305z" />
    <glyph glyph-name="k_t" unicode="kt" horiz-adv-x="2715" 
d="M469 1561v-809l748 374h520v308h305v-308h389l258 -266h-647v-450l620 -410h-520l-405 268v592h-461l-268 -135l442 -725h-344l-361 594l-276 -139v-455h-305v1561h305z" />
    <glyph glyph-name="k_z" unicode="kz" horiz-adv-x="2912" 
d="M2865 0h-1210v266l706 594h-1085l-268 -135l442 -725h-344l-361 594l-276 -139v-455h-305v1561h305v-809l748 374h1513v-266l-707 -594h842v-266z" />
    <glyph glyph-name="r_j" unicode="rj" horiz-adv-x="1892" 
d="M1423 1561h742v-252h-742v252zM844 807q-263 0 -375 -115v-692h-305v1126h305v-266q46 97 135.5 178.5t208.5 104.5l326 -336h-295zM1169 860v266h560v-989q0 -151 -47 -259t-140 -173.5t-223 -96t-305 -30.5v272q193 0 301 77t108 210v723h-254z" />
    <glyph glyph-name="t_t" unicode="tt" horiz-adv-x="2285" 
d="M2259 860h-647v-450l620 -410h-520l-405 268v592l-258 266h258v308h305v-308h389zM1153 860h-545v-450l621 -410h-520l-406 268v592h-256v266h256v308h305v-308h287z" />
    <glyph glyph-name=".notdef" horiz-adv-x="1243" 
d="M1018 0h-793v1434h793v-1434zM621 836l217 487h-435zM905 197v1038l-231 -518zM338 201l229 516l-229 514v-1030zM403 111h435l-217 485z" />
    <glyph glyph-name=".null" horiz-adv-x="0" 
 />
    <glyph glyph-name="nonmarkingreturn" horiz-adv-x="682" 
 />
    <glyph glyph-name="space" unicode=" " horiz-adv-x="716" 
 />
    <glyph glyph-name="exclam" unicode="!" horiz-adv-x="1185" 
d="M748 1434v-1018h-310v1018h310zM143 0v295h899v-295h-899z" />
    <glyph glyph-name="quotedbl" unicode="&#x22;" horiz-adv-x="1126" 
d="M963 750h-320v684h320v-684zM483 750h-319v684h319v-684z" />
    <glyph glyph-name="numbersign" unicode="#" horiz-adv-x="1257" 
d="M1063 442h-191l-108 -442h-96l108 442h-432l-108 -442h-97l109 442h-146v93h168l90 364h-165v92h188l111 443h96l-111 -443h432l111 443h96l-110 -443h147v-92h-170l-90 -364h168v-93zM457 899l-90 -364h432l90 364h-432z" />
    <glyph glyph-name="dollar" unicode="$" horiz-adv-x="1998" 
d="M1923 385q0 -194 -208 -300t-605 -112v-100h-92v100q-202 4 -368 41.5t-293.5 109t-200.5 186t-78 263.5h315q54 -299 625 -309v350l-328 50q-259 38 -408 140t-149 261v55q0 171 110 242.5t332 71.5h443v127h92v-127h86l289 -291h-375v-252l367 -55q446 -67 446 -363
v-88zM858 930l160 -25v238h-580q0 -83 103.5 -132t316.5 -81zM1395 557l-285 43v-336q268 4 383 40.5t115 103.5v28q0 53 -48.5 77.5t-164.5 43.5z" />
    <glyph glyph-name="percent" unicode="%" horiz-adv-x="2230" 
d="M365 39l1433 1436l66 -66l-1434 -1436zM584 1475q92 0 168.5 -11.5t141.5 -37.5t109.5 -66t69.5 -99.5t25 -134.5v-53q0 -94 -37.5 -162t-108 -108t-161.5 -59t-207 -19q-512 0 -512 348v53q0 94 37.5 162.5t107 108.5t160.5 59t207 19zM313 1079q0 -39 16 -67.5
t40 -44.5t61.5 -25.5t72.5 -12.5t81 -3q60 0 116 6l-229 289h178l182 -228q27 34 27 86v41q0 48 -22 80.5t-64 47.5t-85.5 20.5t-102.5 5.5q-45 0 -80.5 -3t-73 -12.5t-61.5 -26t-40 -45t-16 -67.5v-41zM1645 723q116 0 207 -19t161.5 -59t108 -108t37.5 -162v-53
q0 -75 -25 -134.5t-69.5 -99.5t-109.5 -66t-141.5 -37.5t-168.5 -11.5q-116 0 -207 19t-160.5 59t-107 108.5t-37.5 162.5v53q0 348 512 348zM1374 328q0 -39 16 -67.5t40 -45t61.5 -26t73 -12.5t80.5 -3q61 0 116 6l-229 289h178l182 -227q27 34 27 86v41q0 39 -15.5 67.5
t-40 44.5t-62.5 25.5t-73.5 12.5t-82.5 3q-46 0 -81 -3t-72.5 -12.5t-61.5 -25.5t-40 -44.5t-16 -67.5v-41z" />
    <glyph glyph-name="ampersand" unicode="&#x26;" horiz-adv-x="1714" 
d="M74 0l594 705l-617 729h1612l-616 -729l837 -992h-379l-647 766l-180 -213h266l225 -266h-1095zM655 1167l203 -239l201 239h-404z" />
    <glyph glyph-name="quotesingle" unicode="'" horiz-adv-x="647" 
d="M483 750h-319v684h319v-684z" />
    <glyph glyph-name="parenleft" unicode="(" horiz-adv-x="729" 
d="M709 1280q-129 -79 -218.5 -248.5t-89.5 -359.5t89.5 -360t218.5 -249v-276q-180 75 -307.5 215t-187.5 310.5t-60 359.5t60 359t187.5 310t307.5 215v-276z" />
    <glyph glyph-name="parenright" unicode=")" horiz-adv-x="729" 
d="M328 672q0 190 -89.5 359.5t-218.5 248.5v276q180 -75 307.5 -215t187.5 -310t60 -359t-60 -359.5t-187.5 -310.5t-307.5 -215v276q129 79 218.5 249t89.5 360z" />
    <glyph glyph-name="asterisk" unicode="*" horiz-adv-x="919" 
d="M461 963l-195 -269l-76 51l197 269l-315 102l26 88l316 -102v332h92v-332l315 102l27 -88l-316 -102l197 -269l-76 -51z" />
    <glyph glyph-name="plus" unicode="+" horiz-adv-x="1218" 
d="M563 209v358h-358v92h358v359h92v-359h359v-92h-359v-358h-92z" />
    <glyph glyph-name="comma" unicode="," horiz-adv-x="1142" 
d="M-301 -287l903 561h469l-903 -561h-469z" />
    <glyph glyph-name="hyphen" unicode="-" horiz-adv-x="1163" 
d="M1020 467h-877v293h877v-293z" />
    <glyph glyph-name="period" unicode="." horiz-adv-x="876" 
d="M143 0v295h590v-295h-590z" />
    <glyph glyph-name="slash" unicode="/" horiz-adv-x="1294" 
d="M989 1434h305l-989 -1434h-305z" />
    <glyph glyph-name="zero" unicode="0" horiz-adv-x="2277" 
d="M1139 1475q184 0 337 -23t282.5 -75.5t218.5 -133t138.5 -198.5t49.5 -269v-104q0 -151 -49.5 -269t-138.5 -198.5t-218.5 -133t-282.5 -75.5t-337 -23t-337 23t-282.5 75.5t-218.5 133t-138.5 198.5t-49.5 269v104q0 151 49.5 269t138.5 198.5t218.5 133t282.5 75.5
t337 23zM412 672q0 -76 21.5 -137t58 -103.5t92 -73.5t115 -49.5t136.5 -30t147.5 -15t156.5 -3.5q300 0 460 55l-634 795h358l500 -627q43 81 43 189v104q0 76 -21.5 137t-58 103.5t-92 73.5t-115 49.5t-136.5 30t-147.5 15t-156.5 3.5t-156.5 -3.5t-147.5 -15t-136.5 -30
t-115 -49.5t-92 -73.5t-58 -103.5t-21.5 -137v-104z" />
    <glyph glyph-name="one" unicode="1" horiz-adv-x="1323" 
d="M1200 291v-291h-1098v291h400l139 852h-274v291h630l-186 -1143h389z" />
    <glyph glyph-name="two" unicode="2" horiz-adv-x="1925" 
d="M791 1143l47 291h1026q0 -88 -23 -168.5t-58.5 -143t-91.5 -120.5t-109.5 -99.5t-126 -83.5t-127.5 -68t-126 -57q-439 -188 -509 -222q-179 -84 -216 -140q-14 -20 -14 -41h1235v-291h-1575v236q0 162 88 264q78 91 279 192q81 41 403 187q36 16 119.5 50t138.5 58.5
t128 67t126 88.5h-614zM459 1434h307l-78 -492h-309z" />
    <glyph glyph-name="three" unicode="3" horiz-adv-x="1939" 
d="M698 1143l47 291h965v-269q-92 -167 -348 -311q254 -25 364.5 -108.5t110.5 -256.5v-83q0 -229 -212 -331t-671 -102t-670.5 102t-211.5 331v112h299v-51q0 -106 135 -156.5t448 -50.5q315 0 449.5 45t134.5 144v12q0 90 -109 109.5t-436 19.5h-67h-144v278
q24 11 92.5 40.5t108.5 48.5t98 49t107 64.5t90 72.5h-580zM367 1434h307l-78 -492h-309z" />
    <glyph glyph-name="four" unicode="4" horiz-adv-x="1908" 
d="M1294 0l62 385h-1284v291l1157 758h506l-1160 -758h826l82 510l346 227l-227 -1413h-308z" />
    <glyph glyph-name="five" unicode="5" horiz-adv-x="1957" 
d="M381 590l-135 844h934l47 -291h-627l43 -262h375q188 0 320.5 -11.5t233 -38t159.5 -72t87.5 -111.5t28.5 -159v-83q0 -229 -211.5 -331t-670.5 -102t-671 102t-212 331v112h299v-51q0 -106 135.5 -156.5t448.5 -50.5q314 0 448.5 45.5t134.5 143.5t-101 119.5t-450 21.5
h-616zM1559 1434l73 -447h-309l-72 447h308z" />
    <glyph glyph-name="six" unicode="6" horiz-adv-x="1966" 
d="M1853 406q0 -229 -211.5 -331t-670.5 -102t-671 103t-212 330v43q0 105 44 179.5t140 137.5l1020 668h514l-845 -553h10q460 0 671 -102t211 -330v-43zM1554 436q0 84 -140.5 121t-442.5 37t-443 -37t-141 -121v-18q0 -84 141 -121t443 -37t442.5 37t140.5 121v18z" />
    <glyph glyph-name="seven" unicode="7" horiz-adv-x="1886" 
d="M190 1434h308l-92 -574h-310zM1774 1147l-893 -1147h-381l889 1143h-867l47 291h1205v-287z" />
    <glyph glyph-name="eight" unicode="8" horiz-adv-x="1959" 
d="M92 449q0 236 236 339l104 646h1319l-106 -654q213 -103 213 -331v-41q0 -229 -212 -331t-671 -102t-671 103t-212 330v41zM975 881q214 0 373 -21l45 277h-701l-43 -273q136 17 326 17zM975 594q-302 0 -443 -37t-141 -121v-16q0 -84 141 -121t443 -37t443 37t141 121
v16q0 84 -141 121t-443 37z" />
    <glyph glyph-name="nine" unicode="9" horiz-adv-x="1966" 
d="M1694 682l-1041 -682h-514l869 567h-13q-460 0 -671 102t-211 330v43q0 229 211.5 331t670.5 102t671 -103t212 -330v-43q0 -105 -44 -179.5t-140 -137.5zM412 1012q0 -84 140.5 -121t442.5 -37t443 37t141 121v18q0 84 -141 121t-443 37t-442.5 -37t-140.5 -121v-18z
" />
    <glyph glyph-name="colon" unicode=":" horiz-adv-x="876" 
d="M143 770v295h590v-295h-590zM143 0v295h590v-295h-590z" />
    <glyph glyph-name="semicolon" unicode=";" horiz-adv-x="1163" 
d="M143 770v295h877v-295h-877zM-301 -287l903 561h469l-903 -561h-469z" />
    <glyph glyph-name="less" unicode="&#x3c;" horiz-adv-x="1218" 
d="M868 1104l-489 -490l489 -489l-65 -64l-553 553l553 553z" />
    <glyph glyph-name="equal" unicode="=" horiz-adv-x="1218" 
d="M1014 768h-809v92h809v-92zM1014 369h-809v92h809v-92z" />
    <glyph glyph-name="greater" unicode="&#x3e;" horiz-adv-x="1218" 
d="M840 614l-490 490l66 63l553 -553l-553 -553l-66 64z" />
    <glyph glyph-name="question" unicode="?" horiz-adv-x="1630" 
d="M111 942l79 492h1405q0 -87 -24.5 -167t-63 -142.5t-96 -121.5t-113 -101t-126.5 -83.5t-123 -66.5t-115 -52q-103 -44 -138.5 -90.5t-35.5 -146.5v-68h-311v150q0 131 98 232.5t254 170.5q230 100 336 195h-684l-33 -201h-309zM154 0v295h899v-295h-899z" />
    <glyph glyph-name="at" unicode="@" horiz-adv-x="2310" 
d="M1575 -373q-204 -90 -420 -90q-167 0 -324.5 52.5t-284.5 148t-222.5 222.5t-148 284.5t-52.5 324.5q0 209 82 400t220.5 329.5t329.5 221t400 82.5t400 -82.5t329.5 -221t220.5 -329.5t82 -400q0 -213 -82.5 -404t-230.5 -335v637q0 129 -15 225.5t-49.5 171t-86 123.5
t-129.5 80.5t-174.5 45t-225.5 13.5h-535l-264 -272h738q70 0 116 -2t100.5 -11t90 -25t66.5 -45t48 -71h-557q-109 0 -193 -15.5t-153 -51t-106 -99.5t-37 -155v-51q0 -177 131.5 -266t368.5 -89q188 0 335 68.5t232 185.5v-600zM1575 365q-77 -52 -221.5 -87.5
t-274.5 -35.5q-138 0 -209 23.5t-71 86.5v21q0 56 49.5 75t159.5 19h567v-102z" />
    <glyph glyph-name="A" unicode="A" horiz-adv-x="2234" 
d="M1864 0l-207 360h-1079l-207 -360h-351l824 1434h547l823 -1434h-350zM739 643h756l-377 657z" />
    <glyph glyph-name="B" unicode="B" horiz-adv-x="1923" 
d="M154 0v1434h1048q207 0 340 -112.5t131 -277.5q0 -81 -37 -156.5t-92 -111.5q145 -27 229.5 -117t84.5 -237q0 -87 -28 -162t-83 -134t-145 -92.5t-205 -33.5h-1243zM1217 1143h-740v-279h740q74 0 115.5 40.5t41.5 101.5q0 62 -41 99.5t-116 37.5zM1389 592h-912v-301
h912q71 0 118 41t47 110q0 70 -46.5 110t-118.5 40z" />
    <glyph glyph-name="C" unicode="C" horiz-adv-x="2281" 
d="M1143 258q134 0 243 13.5t211.5 46.5t170 97.5t90.5 157.5h319q-68 -600 -1034 -600q-1041 0 -1041 699v104q0 699 1041 699q976 0 1036 -615h-317q-16 78 -64.5 137.5t-115.5 95.5t-158.5 58.5t-182 30.5t-198.5 8q-119 0 -217.5 -10t-196 -37.5t-164 -72.5t-108 -120
t-41.5 -174v-104q0 -99 41.5 -174t108 -120t164 -72.5t196 -37.5t217.5 -10z" />
    <glyph glyph-name="D" unicode="D" horiz-adv-x="2115" 
d="M154 0v1434h866q245 0 425 -36.5t309.5 -116.5t194 -213t64.5 -320v-62q0 -187 -64.5 -320t-194 -213t-309.5 -116.5t-425 -36.5h-866zM1020 1143h-543v-852h543q85 0 153.5 4t141 14.5t127.5 29t105.5 48.5t82.5 71t51 98.5t19 129.5v62q0 72 -19 129.5t-51 98.5
t-82.5 71t-105.5 48.5t-127.5 29t-141 14.5t-153.5 4z" />
    <glyph glyph-name="E" unicode="E" horiz-adv-x="1886" 
d="M154 0v1434h1620v-291h-1297v-273h961v-284h-961v-295h1297v-291h-1620z" />
    <glyph glyph-name="F" unicode="F" horiz-adv-x="1830" 
d="M154 0v1434h1620v-291h-1297v-273h961v-284h-961v-586h-323z" />
    <glyph glyph-name="G" unicode="G" horiz-adv-x="2285" 
d="M1143 258q108 0 198.5 8t182 30.5t158 58t115 94.5t65.5 137h-1088v284h1409v-198q0 -150 -47.5 -267t-135 -198t-217 -133.5t-287.5 -76.5t-353 -24q-1041 0 -1041 699v104q0 699 1041 699q845 0 1003 -459h-364q-161 174 -639 174q-119 0 -217.5 -10t-196 -37.5
t-164 -72.5t-108 -120t-41.5 -174v-104q0 -99 41.5 -174t108 -120t164 -72.5t196 -37.5t217.5 -10z" />
    <glyph glyph-name="H" unicode="H" horiz-adv-x="2263" 
d="M1786 0v580h-1309v-580h-323v1434h323v-557h1309v557h323v-1434h-323z" />
    <glyph glyph-name="I" unicode="I" horiz-adv-x="1683" 
d="M123 1143v291h1438v-291h-557v-852h557v-291h-1438v291h557v852h-557z" />
    <glyph glyph-name="J" unicode="J" horiz-adv-x="2062" 
d="M711 1143v291h1212v-729q-5 -732 -956 -732q-154 0 -283 18.5t-244 62.5t-199.5 112t-142 171t-78.5 236h326q21 -81 70.5 -140t108 -90.5t141 -50t149.5 -23.5t154 -5q68 0 124 3.5t123.5 14.5t119.5 29.5t103 51.5t84.5 77.5t54.5 111t21 148.5v443h-888z" />
    <glyph glyph-name="K" unicode="K" horiz-adv-x="2082" 
d="M1430 0l-502 752l-451 -252v-500h-323v1434h323v-609l1086 609h581l-942 -529l604 -905h-376z" />
    <glyph glyph-name="L" unicode="L" horiz-adv-x="1722" 
d="M1630 291v-291h-1476v1434h323v-1143h1153z" />
    <glyph glyph-name="M" unicode="M" horiz-adv-x="2523" 
d="M590 1434l672 -1055l671 1055h437v-1434h-324v1036l-498 -782h-573l-498 782v-1036h-323v1434h436z" />
    <glyph glyph-name="N" unicode="N" horiz-adv-x="2181" 
d="M2028 1434v-1434h-332l-1219 1047v-1047h-323v1434h331l1219 -1049v1049h324z" />
    <glyph glyph-name="O" unicode="O" horiz-adv-x="2285" 
d="M102 776q0 699 1041 699q195 0 353 -24t287.5 -76.5t217 -133.5t135 -198t47.5 -267v-104q0 -150 -47.5 -267t-135 -198t-217 -133.5t-287.5 -76.5t-353 -24q-1041 0 -1041 699v104zM1870 776q0 99 -41.5 174t-108 120t-164 72.5t-196 37.5t-217.5 10t-217.5 -10
t-196 -37.5t-164 -72.5t-108 -120t-41.5 -174v-104q0 -99 41.5 -174t108 -120t164 -72.5t196 -37.5t217.5 -10t217.5 10t196 37.5t164 72.5t108 120t41.5 174v104z" />
    <glyph glyph-name="P" unicode="P" horiz-adv-x="1953" 
d="M154 0v1434h1159q262 0 415.5 -141t153.5 -371t-153.5 -371t-415.5 -141h-836v-410h-323zM1290 1143h-813v-443h813q131 0 202 59.5t71 162.5t-71 162t-202 59z" />
    <glyph glyph-name="Q" unicode="Q" horiz-adv-x="2285" 
d="M1823 0l-54 68q-242 -95 -626 -95q-1041 0 -1041 699v104q0 699 1041 699q195 0 353 -24t287.5 -76.5t217 -133.5t135 -198t47.5 -267v-104q0 -286 -174 -457l172 -215h-358zM1870 776q0 91 -35 161.5t-92.5 115.5t-141.5 75t-172.5 43t-195.5 17l577 -723q60 89 60 207
v104zM416 672q0 -99 41.5 -174t108 -120t164 -72.5t196 -37.5t217.5 -10q270 0 432 53l-690 865q-469 -63 -469 -400v-104z" />
    <glyph glyph-name="R" unicode="R" horiz-adv-x="2357" 
d="M154 0v1434h1439q235 0 370.5 -112.5t135.5 -309.5q0 -84 -23 -149.5t-64.5 -111.5t-105.5 -77.5t-140 -49.5t-173 -26l-379 -35l1225 -563h-647l-1118 516l-197 -18v-498h-323zM1614 1143h-1137v-373l1137 102q166 14 166 140q0 131 -166 131z" />
    <glyph glyph-name="S" unicode="S" horiz-adv-x="1984" 
d="M690 664q-259 38 -408 140t-149 261v55q0 171 110 242.5t332 71.5h621l289 -291h-1047q0 -83 103.5 -132t316.5 -81l619 -94q446 -67 446 -363v-88q0 -200 -220 -306t-638 -106q-210 0 -384.5 35.5t-309 106.5t-211.5 188t-82 270h315q56 -309 670 -309q295 1 420 37.5
t125 106.5v28q0 53 -48.5 77.5t-164.5 43.5z" />
    <glyph glyph-name="T" unicode="T" horiz-adv-x="2031" 
d="M72 1143v291h1888v-291h-782v-1143h-324v1143h-782z" />
    <glyph glyph-name="U" unicode="U" horiz-adv-x="2191" 
d="M463 700q0 -82 21 -148.5t55 -112t86 -79t105 -53t120 -31t124 -15t124 -3.5t124 3.5t123.5 15t119 31t104 53t85 79t54.5 112t21 148.5v734h323v-729q0 -732 -956 -732q-168 0 -307 22.5t-262 76t-207 136t-132.5 208.5t-48.5 289v729h324v-734z" />
    <glyph glyph-name="V" unicode="V" horiz-adv-x="2144" 
d="M2124 1434l-752 -1434h-600l-752 1434h371l682 -1299l680 1299h371z" />
    <glyph glyph-name="W" unicode="W" horiz-adv-x="2527" 
d="M1583 0l-319 809l-320 -809h-571l-287 1434h336l260 -1303l399 995h365l399 -995l260 1303h336l-287 -1434h-571z" />
    <glyph glyph-name="X" unicode="X" horiz-adv-x="2271" 
d="M1624 0l-487 551l-490 -551h-409l559 631l-807 803h442l705 -701l702 701h442l-806 -803l559 -631h-410z" />
    <glyph glyph-name="Y" unicode="Y" horiz-adv-x="2105" 
d="M1217 604v-604h-324v604l-903 830h456l609 -566l606 566h455z" />
    <glyph glyph-name="Z" unicode="Z" 
d="M1968 291v-291h-1732v291l1116 852h-1301v291h1761v-291l-1116 -852h1272z" />
    <glyph glyph-name="bracketleft" unicode="[" horiz-adv-x="780" 
d="M174 -213v1774h555v-236h-307v-1302h307v-236h-555z" />
    <glyph glyph-name="backslash" unicode="\" horiz-adv-x="1294" 
d="M0 1434h305l989 -1434h-305z" />
    <glyph glyph-name="bracketright" unicode="]" horiz-adv-x="780" 
d="M606 1561v-1774h-555v236h307v1302h-307v236h555z" />
    <glyph glyph-name="underscore" unicode="_" horiz-adv-x="954" 
d="M954 -233h-954v92h954v-92z" />
    <glyph glyph-name="grave" unicode="`" horiz-adv-x="2172" 
d="M2148 1092l-2148 587l25 93l2148 -588z" />
    <glyph glyph-name="a" unicode="a" horiz-adv-x="1636" 
d="M1208 0v219q-85 -112 -231 -179t-330 -67q-237 0 -368.5 89t-131.5 266v51q0 91 37 155t106 99.5t153.5 51t193.5 15.5h551q-19 52 -55 85t-94 49t-117.5 21t-149.5 5h-731l258 266h535q129 0 225.5 -13.5t174 -45t129 -80.5t86 -123.5t49.5 -171t15 -225.5v-467h-305z
M719 242q127 0 267.5 33.5t221.5 84.5v107h-561q-110 0 -159.5 -19t-49.5 -75v-21q0 -63 71.5 -86.5t209.5 -23.5z" />
    <glyph glyph-name="b" unicode="b" horiz-adv-x="1740" 
d="M1649 532q0 -253 -162.5 -406t-421.5 -153q-191 0 -345.5 77t-250.5 192v-242h-305v1561h305v-672q95 115 250 191.5t346 76.5q259 0 421.5 -153t162.5 -406v-66zM944 874q-122 0 -253.5 -38t-221.5 -91v-360q90 -53 221.5 -91t253.5 -38q188 0 302 69t114 207v66
q0 138 -114 207t-302 69z" />
    <glyph glyph-name="c" unicode="c" horiz-adv-x="1720" 
d="M862 246q186 0 308.5 51.5t158.5 151.5h297q-30 -234 -230 -355t-534 -121q-240 0 -411 61.5t-265 187.5t-94 310v66q0 184 94 310t265 187.5t411 61.5q335 0 535.5 -121.5t230.5 -357.5h-297q-35 101 -157.5 154t-311.5 53q-224 0 -352.5 -73t-128.5 -214v-66
q0 -141 128 -213.5t353 -72.5z" />
    <glyph glyph-name="d" unicode="d" horiz-adv-x="1740" 
d="M1272 0v242q-96 -115 -250.5 -192t-345.5 -77q-259 0 -421.5 153t-162.5 406v66q0 253 162.5 406t421.5 153q191 0 346 -76.5t250 -191.5v672h305v-1561h-305zM381 532q0 -138 114 -207t302 -69q122 0 253.5 38t221.5 91v360q-90 53 -221.5 91t-253.5 38q-188 0 -302 -69
t-114 -207v-66z" />
    <glyph glyph-name="e" unicode="e" horiz-adv-x="1560" 
d="M817 1157q321 0 501.5 -145.5t180.5 -423.5v-101h-1114q17 -117 126.5 -169t309.5 -52h477l-262 -266h-205q-372 0 -555.5 127t-183.5 405v46q0 185 91 316.5t253 197t381 65.5zM811 899q-163 0 -266 -52t-142 -147h760q-46 199 -352 199z" />
    <glyph glyph-name="f" unicode="f" horiz-adv-x="1290" 
d="M61 860v266h224q0 197 139.5 316t388.5 119h344l318 -326l-564 72q-321 0 -321 -181h581v-266h-581v-860h-305v860h-224z" />
    <glyph glyph-name="g" unicode="g" horiz-adv-x="1699" 
d="M1536 141q0 -151 -53.5 -260t-158.5 -175t-251 -97t-342 -31h-452l-254 262h714q227 0 359.5 75.5t132.5 225.5v99q-94 -115 -241 -191t-335 -76q-158 0 -286.5 70t-202.5 198.5t-74 290.5v66q0 246 160.5 402.5t402.5 156.5q188 0 335.5 -75.5t240.5 -190.5v235h305
v-985zM381 532q0 -88 55 -151.5t143 -94t197 -30.5q121 0 245.5 37.5t209.5 91.5v360q-85 54 -209.5 91.5t-245.5 37.5q-109 0 -197 -30.5t-143 -94t-55 -151.5v-66z" />
    <glyph glyph-name="h" unicode="h" horiz-adv-x="1687" 
d="M938 874q-117 0 -255 -39t-214 -98v-737h-305v1561h305v-678q85 121 234 197.5t323 76.5q250 0 389 -146t139 -397v-614h-305v553q0 183 -68 252t-243 69z" />
    <glyph glyph-name="i" unicode="i" horiz-adv-x="632" 
d="M164 1561h741v-252h-741v252zM164 1126h305v-1126h-305v1126z" />
    <glyph glyph-name="j" unicode="j" horiz-adv-x="1114" 
d="M645 1561h741v-252h-741v252zM31 860v266h919v-989q0 -297 -179.5 -428t-534.5 -131v272q193 0 301 77t108 210v723h-614z" />
    <glyph glyph-name="k" unicode="k" horiz-adv-x="1646" 
d="M1106 0l-361 594l-276 -139v-455h-305v1561h305v-809l748 374h589l-798 -401l442 -725h-344z" />
    <glyph glyph-name="l" unicode="l" horiz-adv-x="632" 
d="M164 1561h305v-1561h-305v1561z" />
    <glyph glyph-name="m" unicode="m" horiz-adv-x="2650" 
d="M881 874q-96 0 -219.5 -41.5t-192.5 -95.5v-737h-305v1126h305v-241q81 114 224.5 193t303.5 79q173 0 295.5 -84t169.5 -235q69 128 225 223.5t334 95.5q227 0 361.5 -140t134.5 -382v-635h-305v553q0 170 -69.5 245.5t-237.5 75.5q-99 0 -224.5 -43.5t-193.5 -97.5
q6 -47 6 -98v-635h-305v553q0 170 -69.5 245.5t-237.5 75.5z" />
    <glyph glyph-name="n" unicode="n" horiz-adv-x="1687" 
d="M938 874q-117 0 -255 -39t-214 -98v-737h-305v1126h305v-243q85 121 234 197.5t323 76.5q250 0 389 -146t139 -397v-614h-305v553q0 183 -68 252t-243 69z" />
    <glyph glyph-name="o" unicode="o" horiz-adv-x="1724" 
d="M1632 532q0 -184 -94 -310t-265 -187.5t-411 -61.5t-411 61.5t-265 187.5t-94 310v66q0 184 94 310t265 187.5t411 61.5t411 -61.5t265 -187.5t94 -310v-66zM1343 532v66q0 141 -128.5 214t-352.5 73t-352.5 -73t-128.5 -214v-66q0 -141 128 -213.5t353 -72.5t353 72.5
t128 213.5z" />
    <glyph glyph-name="p" unicode="p" horiz-adv-x="1740" 
d="M1065 -27q-191 0 -345.5 77t-250.5 192v-664h-305v1548h305v-237q95 115 250 191.5t346 76.5q259 0 421.5 -153t162.5 -406v-66q0 -253 -162.5 -406t-421.5 -153zM944 874q-122 0 -253.5 -38t-221.5 -91v-360q90 -53 221.5 -91t253.5 -38q188 0 302 69t114 207v66
q0 138 -114 207t-302 69z" />
    <glyph glyph-name="q" unicode="q" horiz-adv-x="1740" 
d="M1577 1126v-1548h-305v664q-96 -115 -250.5 -192t-345.5 -77q-259 0 -421.5 153t-162.5 406v66q0 253 162.5 406t421.5 153q191 0 346 -76.5t250 -191.5v237h305zM381 532q0 -138 114 -207t302 -69q122 0 253.5 38t221.5 91v360q-90 53 -221.5 91t-253.5 38
q-188 0 -302 -69t-114 -207v-66z" />
    <glyph glyph-name="r" unicode="r" horiz-adv-x="1118" 
d="M844 807q-263 0 -375 -115v-692h-305v1126h305v-266q46 97 135.5 178.5t208.5 104.5l326 -336h-295z" />
    <glyph glyph-name="s" unicode="s" horiz-adv-x="1472" 
d="M795 -27q-152 0 -278 25t-226 77.5t-157 141t-58 207.5h297q14 -96 131.5 -147.5t290.5 -51.5q150 0 228.5 33t78.5 76v12q0 35 -55 51q-32 10 -138 25l-383 59q-102 16 -173 38.5t-124 59.5t-78.5 91t-25.5 129v18q0 170 146 255t423 85q278 0 446.5 -98.5t190.5 -280.5
h-299q-28 65 -127 97t-231 32q-260 0 -260 -80v-12q0 -33 50 -50t148 -32l432 -67q170 -27 257.5 -96.5t87.5 -196.5v-31q0 -369 -594 -369z" />
    <glyph glyph-name="t" unicode="t" horiz-adv-x="1282" 
d="M1255 860h-647v-450l621 -410h-520l-406 268v592h-256v266h256v308h305v-308h389z" />
    <glyph glyph-name="u" unicode="u" horiz-adv-x="1646" 
d="M1178 0v248q-87 -115 -228.5 -195t-296.5 -80q-244 0 -382 146t-138 397v610h305v-548q0 -183 68.5 -252.5t243.5 -69.5q108 0 223 38t205 95v737h305v-1126h-305z" />
    <glyph glyph-name="v" unicode="v" horiz-adv-x="1585" 
d="M1565 1126l-523 -1126h-499l-523 1126h353l420 -954l419 954h353z" />
    <glyph glyph-name="w" unicode="w" horiz-adv-x="2023" 
d="M1239 0l-227 600l-228 -600h-520l-219 1126h324l178 -952l465 1106l465 -1106l178 952h323l-219 -1126h-520z" />
    <glyph glyph-name="x" unicode="x" horiz-adv-x="1605" 
d="M1118 0l-315 455l-316 -455h-364l377 537l-500 589h379l424 -503l424 503h379l-500 -589l377 -537h-365z" />
    <glyph glyph-name="y" unicode="y" horiz-adv-x="1509" 
d="M1159 1126h350l-815 -1548h-350l221 422h-213l-317 1126h325l279 -989z" />
    <glyph glyph-name="z" unicode="z" horiz-adv-x="1490" 
d="M1444 0h-1211v266l707 594h-862v266h1231v-266l-707 -594h842v-266z" />
    <glyph glyph-name="bar" unicode="|" horiz-adv-x="600" 
d="M346 -127h-92v1688h92v-1688z" />
    <glyph glyph-name="uni00A0" unicode="&#xa0;" horiz-adv-x="716" 
 />
    <glyph glyph-name="exclamdown" unicode="&#xa1;" horiz-adv-x="1185" 
d="M143 831v295h899v-295h-899zM438 -422v1133h310v-1133h-310z" />
    <glyph glyph-name="cent" unicode="&#xa2;" horiz-adv-x="1710" 
d="M1626 449q-29 -227 -216 -347.5t-503 -128.5v-131h-92v131q-341 9 -532 151.5t-191 407.5v66q0 265 191 407.5t532 151.5v373h92v-373q316 -8 504 -129.5t217 -349.5h-297q-33 95 -143.5 148t-280.5 59v-639q168 6 278.5 57.5t143.5 145.5h297zM381 532
q0 -133 115.5 -205.5t318.5 -80.5v639q-203 -8 -318.5 -81t-115.5 -206v-66z" />
    <glyph glyph-name="sterling" unicode="&#xa3;" horiz-adv-x="2572" 
d="M2419 291v-291h-2296v291h297v379h-297v92h297v14q0 179 69 313.5t200 218.5t313.5 125.5t416.5 41.5q295 0 507 -64t340 -203t149 -348h-318q-16 74 -62 131.5t-110 94.5t-148.5 61t-172 33.5t-185.5 9.5q-109 0 -204.5 -12t-186 -41.5t-154.5 -75.5t-102.5 -119
t-38.5 -166v-14h1364v-92h-1364v-379h1686z" />
    <glyph glyph-name="dieresis" unicode="&#xa8;" horiz-adv-x="856" 
d="M0 1227v422h106v-422h-106zM434 1434h422v-103h-422v103z" />
    <glyph glyph-name="copyright" unicode="&#xa9;" horiz-adv-x="1388" 
d="M1235 944v-440q0 -242 -143.5 -386.5t-397.5 -144.5t-397 144.5t-143 386.5v440q0 242 143 386.5t397 144.5t397.5 -144.5t143.5 -386.5zM1147 504v440q0 202 -120 323.5t-333 121.5t-332.5 -121.5t-119.5 -323.5v-440q0 -202 119.5 -323.5t332.5 -121.5t333 121.5
t120 323.5zM694 322q-148 0 -227.5 82t-79.5 219v204q0 136 79.5 218.5t227.5 82.5q147 0 227 -78.5t83 -209.5h-177q-5 52 -39.5 83t-93.5 31q-62 0 -97.5 -34.5t-35.5 -92.5v-204q0 -58 35.5 -93.5t97.5 -35.5q59 0 93.5 30.5t39.5 83.5h177q-3 -131 -83 -208.5
t-227 -77.5z" />
    <glyph glyph-name="guillemotleft" unicode="&#xab;" horiz-adv-x="1191" 
d="M600 311v-342l-457 342v500l457 342v-342l-334 -250zM1059 311v-342l-457 342v500l457 342v-342l-334 -250z" />
    <glyph glyph-name="uni00AD" unicode="&#xad;" horiz-adv-x="1163" 
d="M1020 467h-877v293h877v-293z" />
    <glyph glyph-name="macron" unicode="&#xaf;" horiz-adv-x="1568" 
d="M0 1434h1569v-103h-1569v103z" />
    <glyph glyph-name="degree" unicode="&#xb0;" horiz-adv-x="1169" 
d="M584 1475q92 0 168.5 -11.5t141.5 -37.5t109.5 -66t69.5 -99.5t25 -134.5v-53q0 -94 -37.5 -162t-108 -108t-161.5 -59t-207 -19q-512 0 -512 348v53q0 94 37.5 162.5t107 108.5t160.5 59t207 19zM584 926q47 0 82.5 3t73.5 12.5t62.5 25.5t40 44.5t15.5 67.5v41
q0 48 -22 80.5t-64 47.5t-85.5 20.5t-102.5 5.5q-45 0 -80.5 -3t-73 -12.5t-61.5 -26t-40 -45t-16 -67.5v-41q0 -39 16 -67.5t40 -44.5t61.5 -25.5t72.5 -12.5t81 -3z" />
    <glyph glyph-name="acute" unicode="&#xb4;" horiz-adv-x="2172" 
d="M2148 1772l25 -93l-2148 -587l-25 92z" />
    <glyph glyph-name="periodcentered" unicode="&#xb7;" horiz-adv-x="1116" 
d="M328 614q0 97 67 164.5t164 67.5q95 0 162 -67.5t67 -164.5q0 -95 -67 -162t-162 -67q-97 0 -164 67t-67 162z" />
    <glyph glyph-name="cedilla" unicode="&#xb8;" horiz-adv-x="368" 
d="M0 -397l299 299l70 -70l-299 -297z" />
    <glyph glyph-name="guillemotright" unicode="&#xbb;" horiz-adv-x="1191" 
d="M590 311l-457 -342v342l334 250l-334 250v342l457 -342v-500zM1049 311l-457 -342v342l334 250l-334 250v342l457 -342v-500z" />
    <glyph glyph-name="questiondown" unicode="&#xbf;" horiz-adv-x="1630" 
d="M578 831v295h899v-295h-899zM1520 70l-80 -492h-1405q0 87 24.5 167t63 142.5t96 121.5t113 100.5t126.5 83t123 66.5t115 52q103 44 138.5 91t35.5 147v182h312v-264q0 -131 -98.5 -233t-254.5 -171q-110 -48 -190 -92t-145 -102h684l32 201h310z" />
    <glyph glyph-name="Agrave" unicode="&#xc0;" horiz-adv-x="2234" 
d="M1864 0l-207 360h-1079l-207 -360h-351l824 1434h473l-1647 450l25 92l2148 -587l-24 -93l-414 113l809 -1409h-350zM739 643h756l-377 657z" />
    <glyph glyph-name="Aacute" unicode="&#xc1;" horiz-adv-x="2234" 
d="M1864 0l-207 360h-1079l-207 -360h-351l809 1409l-411 -113l-25 93l2149 587l24 -92l-1646 -450h471l823 -1434h-350zM739 643h756l-377 657z" />
    <glyph glyph-name="Acircumflex" unicode="&#xc2;" horiz-adv-x="2234" 
d="M1559 1597l-443 273l-938 -578l-49 84l989 602l490 -295zM1864 0l-207 360h-1079l-207 -360h-351l824 1434h547l823 -1434h-350zM739 643h756l-377 657z" />
    <glyph glyph-name="Atilde" unicode="&#xc3;" horiz-adv-x="2234" 
d="M1839 1976l47 -88l-768 -411l-162 116l-557 -295l-47 88l611 324l161 -117zM1864 0l-207 360h-1079l-207 -360h-351l824 1434h547l823 -1434h-350zM739 643h756l-377 657z" />
    <glyph glyph-name="Adieresis" unicode="&#xc4;" horiz-adv-x="2234" 
d="M856 1534v422h107v-422h-107zM1290 1741h422v-103h-422v103zM1864 0l-207 360h-1079l-207 -360h-351l824 1434h547l823 -1434h-350zM739 643h756l-377 657z" />
    <glyph glyph-name="Aring" unicode="&#xc5;" horiz-adv-x="2234" 
d="M1866 0l-207 360h-1084l-206 -360h-349l656 1139q-58 110 -58 231q0 136 67.5 251.5t182.5 183t250 67.5q136 0 251.5 -67.5t183 -183t67.5 -251.5q0 -125 -57 -233l651 -1137h-348zM1118 963q170 0 290 119t120 288q0 170 -120 290t-290 120q-169 0 -288 -120t-119 -290
q0 -169 119 -288t288 -119zM1118 870q-115 0 -219 52l-162 -279h760l-160 279q-104 -52 -219 -52z" />
    <glyph glyph-name="AE" unicode="&#xc6;" horiz-adv-x="3211" 
d="M3099 291v-291h-1235l-207 360h-1079l-207 -360h-351l824 1434h2255v-291h-1540l155 -273h1049v-284h-885l168 -295h1053zM739 643h756l-377 657z" />
    <glyph glyph-name="Ccedilla" unicode="&#xc7;" horiz-adv-x="2281" 
d="M1143 258q134 0 243 13.5t211.5 46.5t170 97.5t90.5 157.5h319q-68 -600 -1034 -600q-1041 0 -1041 699v104q0 699 1041 699q976 0 1036 -615h-317q-16 78 -64.5 137.5t-115.5 95.5t-158.5 58.5t-182 30.5t-198.5 8q-119 0 -217.5 -10t-196 -37.5t-164 -72.5t-108 -120
t-41.5 -174v-104q0 -99 41.5 -174t108 -120t164 -72.5t196 -37.5t217.5 -10zM958 -397l299 299l70 -70l-299 -297z" />
    <glyph glyph-name="Egrave" unicode="&#xc8;" horiz-adv-x="1886" 
d="M154 0v1434h1267l-1646 450l24 92l2149 -587l-25 -93l-149 41v-194h-1297v-273h961v-284h-961v-295h1297v-291h-1620z" />
    <glyph glyph-name="Eacute" unicode="&#xc9;" horiz-adv-x="1886" 
d="M2111 1884l-1646 -450h1309v-291h-1297v-273h961v-284h-961v-295h1297v-291h-1620v1348l-191 -52l-24 93l2148 587z" />
    <glyph glyph-name="Ecircumflex" unicode="&#xca;" horiz-adv-x="1886" 
d="M1403 1597l-442 273l-709 -436h1522v-291h-1297v-273h961v-284h-961v-295h1297v-291h-1620v1372l-131 -80l-50 84l990 602l489 -295z" />
    <glyph glyph-name="Edieresis" unicode="&#xcb;" horiz-adv-x="1886" 
d="M700 1534v422h107v-422h-107zM1135 1741h421v-103h-421v103zM154 0v1434h1620v-291h-1297v-273h961v-284h-961v-295h1297v-291h-1620z" />
    <glyph glyph-name="Igrave" unicode="&#xcc;" horiz-adv-x="1683" 
d="M123 1143v291h1096l-1647 450l25 92l2148 -587l-25 -93l-159 43v-196h-557v-852h557v-291h-1438v291h557v852h-557z" />
    <glyph glyph-name="Iacute" unicode="&#xcd;" horiz-adv-x="1683" 
d="M2111 1884l-1646 -450h1096v-291h-557v-852h557v-291h-1438v291h557v852h-557v196l-160 -43l-24 93l2148 587z" />
    <glyph glyph-name="Icircumflex" unicode="&#xce;" horiz-adv-x="1683" 
d="M1282 1597l-442 273l-709 -436h1430v-291h-557v-852h557v-291h-1438v291h557v852h-557v284l-221 -135l-49 84l989 602l489 -295z" />
    <glyph glyph-name="Idieresis" unicode="&#xcf;" horiz-adv-x="1683" 
d="M580 1534v422h106v-422h-106zM1014 1741h422v-103h-422v103zM123 1143v291h1438v-291h-557v-852h557v-291h-1438v291h557v852h-557z" />
    <glyph glyph-name="Eth" unicode="&#xd0;" horiz-adv-x="2177" 
d="M-10 764h225v670h866q245 0 425 -36.5t310 -116.5t194.5 -213t64.5 -320v-62q0 -187 -64.5 -320t-194.5 -213t-310 -116.5t-425 -36.5h-866v672h-225v92zM1376 672h-837v-381h542q85 0 153.5 4t141 14.5t127.5 29t105.5 48.5t82.5 71t51 98.5t19 129.5v62q0 72 -19 129.5
t-51 98.5t-82.5 71t-105.5 48.5t-127.5 29t-141 14.5t-153.5 4h-542v-379h837v-92z" />
    <glyph glyph-name="Ntilde" unicode="&#xd1;" horiz-adv-x="2181" 
d="M2028 1434v-1434h-332l-1219 1047v-1047h-323v1434h278l522 276l162 -117l715 383l47 -88l-768 -411l-162 116l-401 -213l1157 -995v1049h324z" />
    <glyph glyph-name="Ograve" unicode="&#xd2;" horiz-adv-x="2285" 
d="M2322 1296l-2148 588l25 92l2148 -587zM102 776q0 699 1041 699q195 0 353 -24t287.5 -76.5t217 -133.5t135 -198t47.5 -267v-104q0 -150 -47.5 -267t-135 -198t-217 -133.5t-287.5 -76.5t-353 -24q-1041 0 -1041 699v104zM1870 776q0 99 -41.5 174t-108 120t-164 72.5
t-196 37.5t-217.5 10t-217.5 -10t-196 -37.5t-164 -72.5t-108 -120t-41.5 -174v-104q0 -99 41.5 -174t108 -120t164 -72.5t196 -37.5t217.5 -10t217.5 10t196 37.5t164 72.5t108 120t41.5 174v104z" />
    <glyph glyph-name="Oacute" unicode="&#xd3;" horiz-adv-x="2285" 
d="M2087 1976l24 -92l-2148 -588l-24 93zM102 776q0 699 1041 699q195 0 353 -24t287.5 -76.5t217 -133.5t135 -198t47.5 -267v-104q0 -150 -47.5 -267t-135 -198t-217 -133.5t-287.5 -76.5t-353 -24q-1041 0 -1041 699v104zM1870 776q0 99 -41.5 174t-108 120t-164 72.5
t-196 37.5t-217.5 10t-217.5 -10t-196 -37.5t-164 -72.5t-108 -120t-41.5 -174v-104q0 -99 41.5 -174t108 -120t164 -72.5t196 -37.5t217.5 -10t217.5 10t196 37.5t164 72.5t108 120t41.5 174v104z" />
    <glyph glyph-name="Ocircumflex" unicode="&#xd4;" horiz-adv-x="2285" 
d="M1583 1597l-442 273l-938 -578l-49 84l989 602l489 -295zM102 776q0 699 1041 699q195 0 353 -24t287.5 -76.5t217 -133.5t135 -198t47.5 -267v-104q0 -150 -47.5 -267t-135 -198t-217 -133.5t-287.5 -76.5t-353 -24q-1041 0 -1041 699v104zM1870 776q0 99 -41.5 174
t-108 120t-164 72.5t-196 37.5t-217.5 10t-217.5 -10t-196 -37.5t-164 -72.5t-108 -120t-41.5 -174v-104q0 -99 41.5 -174t108 -120t164 -72.5t196 -37.5t217.5 -10t217.5 10t196 37.5t164 72.5t108 120t41.5 174v104z" />
    <glyph glyph-name="Otilde" unicode="&#xd5;" horiz-adv-x="2285" 
d="M1487 1976l47 -88l-768 -411l-162 116l-557 -295l-47 88l610 324l162 -117zM102 776q0 699 1041 699q195 0 353 -24t287.5 -76.5t217 -133.5t135 -198t47.5 -267v-104q0 -150 -47.5 -267t-135 -198t-217 -133.5t-287.5 -76.5t-353 -24q-1041 0 -1041 699v104zM1870 776
q0 99 -41.5 174t-108 120t-164 72.5t-196 37.5t-217.5 10t-217.5 -10t-196 -37.5t-164 -72.5t-108 -120t-41.5 -174v-104q0 -99 41.5 -174t108 -120t164 -72.5t196 -37.5t217.5 -10t217.5 10t196 37.5t164 72.5t108 120t41.5 174v104z" />
    <glyph glyph-name="Odieresis" unicode="&#xd6;" horiz-adv-x="2285" 
d="M881 1534v422h106v-422h-106zM1315 1741h422v-103h-422v103zM102 776q0 699 1041 699q195 0 353 -24t287.5 -76.5t217 -133.5t135 -198t47.5 -267v-104q0 -150 -47.5 -267t-135 -198t-217 -133.5t-287.5 -76.5t-353 -24q-1041 0 -1041 699v104zM1870 776q0 99 -41.5 174
t-108 120t-164 72.5t-196 37.5t-217.5 10t-217.5 -10t-196 -37.5t-164 -72.5t-108 -120t-41.5 -174v-104q0 -99 41.5 -174t108 -120t164 -72.5t196 -37.5t217.5 -10t217.5 10t196 37.5t164 72.5t108 120t41.5 174v104z" />
    <glyph glyph-name="multiply" unicode="&#xd7;" horiz-adv-x="1218" 
d="M547 614l-279 279l66 63l276 -276l277 276l65 -63l-278 -279l278 -278l-65 -64l-277 277l-276 -277l-66 64z" />
    <glyph glyph-name="Oslash" unicode="&#xd8;" horiz-adv-x="2285" 
d="M1143 -27q-305 0 -525 60l-313 -455h-119l336 488q-420 161 -420 606v104q0 699 1041 699q195 0 353 -24t287.5 -76.5t217 -133.5t135 -198t47.5 -267v-104q0 -150 -47.5 -267t-135 -198t-217 -133.5t-287.5 -76.5t-353 -24zM416 672q0 -260 278 -357l598 871
q-98 4 -149 4q-119 0 -217.5 -10t-196 -37.5t-164 -72.5t-108 -120t-41.5 -174v-104zM1870 776q0 335 -465 398l-610 -885q143 -31 348 -31q119 0 217.5 10t196 37.5t164 72.5t108 120t41.5 174v104z" />
    <glyph glyph-name="Ugrave" unicode="&#xd9;" horiz-adv-x="2191" 
d="M2052 705q0 -732 -956 -732q-168 0 -307 22.5t-262 76t-207 136t-132.5 208.5t-48.5 289v729h324v-734q0 -82 21 -148.5t55 -112t86 -79t105 -53t120 -31t124 -15t124 -3.5t124 3.5t123.5 15t119 31t104 53t85 79t54.5 112t21 148.5v734l-1649 450l24 92l2149 -587
l-25 -93l-176 50v-641z" />
    <glyph glyph-name="Uacute" unicode="&#xda;" horiz-adv-x="2191" 
d="M2052 705q0 -732 -956 -732q-168 0 -307 22.5t-262 76t-207 136t-132.5 208.5t-48.5 289v641l-176 -50l-24 93l2148 587l24 -92l-1648 -450v-734q0 -82 21 -148.5t55 -112t86 -79t105 -53t120 -31t124 -15t124 -3.5t124 3.5t123.5 15t119 31t104 53t85 79t54.5 112
t21 148.5v734h323v-729z" />
    <glyph glyph-name="Ucircumflex" unicode="&#xdb;" horiz-adv-x="2191" 
d="M2052 705q0 -732 -956 -732q-168 0 -307 22.5t-262 76t-207 136t-132.5 208.5t-48.5 289v679l-151 -92l-49 84l989 602l489 -295l-49 -86l-442 273l-709 -436h246v-734q0 -82 21 -148.5t55 -112t86 -79t105 -53t120 -31t124 -15t124 -3.5t124 3.5t123.5 15t119 31t104 53
t85 79t54.5 112t21 148.5v734h323v-729z" />
    <glyph glyph-name="Udieresis" unicode="&#xdc;" horiz-adv-x="2191" 
d="M834 1534v422h106v-422h-106zM1268 1741h422v-103h-422v103zM463 700q0 -82 21 -148.5t55 -112t86 -79t105 -53t120 -31t124 -15t124 -3.5t124 3.5t123.5 15t119 31t104 53t85 79t54.5 112t21 148.5v734h323v-729q0 -732 -956 -732q-168 0 -307 22.5t-262 76t-207 136
t-132.5 208.5t-48.5 289v729h324v-734z" />
    <glyph glyph-name="Yacute" unicode="&#xdd;" horiz-adv-x="2105" 
d="M1217 604v-604h-324v604l-903 830h362l1985 542l24 -92l-1853 -508l547 -508l606 566h455z" />
    <glyph glyph-name="Thorn" unicode="&#xde;" horiz-adv-x="1953" 
d="M1313 205h-840v-205h-319v1434h319v-205h840q262 0 415.5 -141t153.5 -371t-153.5 -371t-415.5 -141zM1290 938h-817v-442h817q131 0 202 59t71 162t-71 162t-202 59z" />
    <glyph glyph-name="germandbls" unicode="&#xdf;" horiz-adv-x="1826" 
d="M1210 -27q-108 -1 -202.5 14.5t-178.5 50t-144 86t-95.5 128.5t-36.5 172h297q10 -64 62 -110.5t129 -68t169 -20.5q120 1 183 32t63 67v12q0 29 -31.5 43t-116.5 33q-28 6 -44 10l-260 59q-86 20 -142.5 36.5t-110.5 42t-83.5 57t-47.5 77t-18 105.5v18q0 170 131 255
t377 85h59l-378 150q-322 0 -322 -181v-1126h-305v1126q0 197 139.5 316t388.5 119h344l555 -570q80 -83 95 -213h-300q-27 64 -111 96.5t-185 32.5q-95 0 -147 -20.5t-52 -55.5v-12q0 -8 3 -15t10.5 -13t14.5 -11t21 -9.5t24 -8t28.5 -8t30 -7t33.5 -7t34 -7.5l309 -67
q175 -38 259.5 -103t84.5 -190v-31q0 -366 -533 -369z" />
    <glyph glyph-name="agrave" unicode="&#xe0;" horiz-adv-x="1636" 
d="M1520 1092l-2149 587l25 93l2148 -588zM1208 0v219q-85 -112 -231 -179t-330 -67q-237 0 -368.5 89t-131.5 266v51q0 91 37 155t106 99.5t153.5 51t193.5 15.5h551q-19 52 -55 85t-94 49t-117.5 21t-149.5 5h-731l258 266h535q129 0 225.5 -13.5t174 -45t129 -80.5
t86 -123.5t49.5 -171t15 -225.5v-467h-305zM719 242q127 0 267.5 33.5t221.5 84.5v107h-561q-110 0 -159.5 -19t-49.5 -75v-21q0 -63 71.5 -86.5t209.5 -23.5z" />
    <glyph glyph-name="aacute" unicode="&#xe1;" horiz-adv-x="1636" 
d="M2243 1772l24 -93l-2148 -587l-25 92zM1208 0v219q-85 -112 -231 -179t-330 -67q-237 0 -368.5 89t-131.5 266v51q0 91 37 155t106 99.5t153.5 51t193.5 15.5h551q-19 52 -55 85t-94 49t-117.5 21t-149.5 5h-731l258 266h535q129 0 225.5 -13.5t174 -45t129 -80.5
t86 -123.5t49.5 -171t15 -225.5v-467h-305zM719 242q127 0 267.5 33.5t221.5 84.5v107h-561q-110 0 -159.5 -19t-49.5 -75v-21q0 -63 71.5 -86.5t209.5 -23.5z" />
    <glyph glyph-name="acircumflex" unicode="&#xe2;" horiz-adv-x="1636" 
d="M1260 1393l-443 272l-938 -578l-49 84l989 603l490 -295zM1208 0v219q-85 -112 -231 -179t-330 -67q-237 0 -368.5 89t-131.5 266v51q0 91 37 155t106 99.5t153.5 51t193.5 15.5h551q-19 52 -55 85t-94 49t-117.5 21t-149.5 5h-731l258 266h535q129 0 225.5 -13.5
t174 -45t129 -80.5t86 -123.5t49.5 -171t15 -225.5v-467h-305zM719 242q127 0 267.5 33.5t221.5 84.5v107h-561q-110 0 -159.5 -19t-49.5 -75v-21q0 -63 71.5 -86.5t209.5 -23.5z" />
    <glyph glyph-name="atilde" unicode="&#xe3;" horiz-adv-x="1636" 
d="M1540 1772l47 -89l-768 -411l-162 117l-557 -295l-47 88l611 323l161 -116zM1208 0v219q-85 -112 -231 -179t-330 -67q-237 0 -368.5 89t-131.5 266v51q0 91 37 155t106 99.5t153.5 51t193.5 15.5h551q-19 52 -55 85t-94 49t-117.5 21t-149.5 5h-731l258 266h535
q129 0 225.5 -13.5t174 -45t129 -80.5t86 -123.5t49.5 -171t15 -225.5v-467h-305zM719 242q127 0 267.5 33.5t221.5 84.5v107h-561q-110 0 -159.5 -19t-49.5 -75v-21q0 -63 71.5 -86.5t209.5 -23.5z" />
    <glyph glyph-name="adieresis" unicode="&#xe4;" horiz-adv-x="1636" 
d="M557 1227v422h107v-422h-107zM991 1434h422v-103h-422v103zM1208 0v219q-85 -112 -231 -179t-330 -67q-237 0 -368.5 89t-131.5 266v51q0 91 37 155t106 99.5t153.5 51t193.5 15.5h551q-19 52 -55 85t-94 49t-117.5 21t-149.5 5h-731l258 266h535q129 0 225.5 -13.5
t174 -45t129 -80.5t86 -123.5t49.5 -171t15 -225.5v-467h-305zM719 242q127 0 267.5 33.5t221.5 84.5v107h-561q-110 0 -159.5 -19t-49.5 -75v-21q0 -63 71.5 -86.5t209.5 -23.5z" />
    <glyph glyph-name="aring" unicode="&#xe5;" horiz-adv-x="1636" 
d="M1208 0v219q-85 -112 -231 -179t-330 -67q-237 0 -368.5 89t-131.5 266v51q0 91 37 155t106 99.5t153.5 51t193.5 15.5h551q-19 52 -55 85t-94 49t-117.5 21t-149.5 5h-731l258 266h231q-97 69 -154 176.5t-57 231.5q0 136 67.5 251.5t182.5 183t250 67.5
q136 0 251.5 -67.5t183 -183t67.5 -251.5q0 -131 -65 -244t-173 -180q235 -40 332.5 -186t97.5 -457v-467h-305zM412 1534q0 -169 119 -288.5t288 -119.5q170 0 290 119.5t120 288.5q0 170 -120 290t-290 120q-169 0 -288 -120t-119 -290zM719 242q127 0 267.5 33.5
t221.5 84.5v107h-561q-110 0 -159.5 -19t-49.5 -75v-21q0 -63 71.5 -86.5t209.5 -23.5z" />
    <glyph glyph-name="ae" unicode="&#xe6;" horiz-adv-x="2693" 
d="M1950 1157q321 0 501.5 -145.5t180.5 -423.5v-101h-1114q17 -117 126.5 -169t309.5 -52h477l-262 -266h-205q-277 0 -451 70v-70h-305v219q-85 -112 -231 -179t-330 -67q-237 0 -368.5 89t-131.5 266v51q0 91 37 155t106 99.5t153.5 51t193.5 15.5h551q-19 52 -55 85
t-94 49t-117.5 21t-149.5 5h-731l258 266h535q205 0 336.5 -36t207.5 -119q192 186 572 186zM1944 899q-163 0 -266 -52t-142 -147h760q-46 199 -352 199zM719 242q127 0 267.5 33.5t221.5 84.5v107h-561q-110 0 -159.5 -19t-49.5 -75v-21q0 -63 71.5 -86.5t209.5 -23.5z
" />
    <glyph glyph-name="ccedilla" unicode="&#xe7;" horiz-adv-x="1720" 
d="M862 246q186 0 308.5 51.5t158.5 151.5h297q-30 -234 -230 -355t-534 -121q-240 0 -411 61.5t-265 187.5t-94 310v66q0 184 94 310t265 187.5t411 61.5q335 0 535.5 -121.5t230.5 -357.5h-297q-35 101 -157.5 154t-311.5 53q-224 0 -352.5 -73t-128.5 -214v-66
q0 -141 128 -213.5t353 -72.5zM678 -397l299 299l70 -70l-299 -297z" />
    <glyph glyph-name="egrave" unicode="&#xe8;" horiz-adv-x="1560" 
d="M1518 1092l-2149 587l25 93l2148 -588zM817 1157q321 0 501.5 -145.5t180.5 -423.5v-101h-1114q17 -117 126.5 -169t309.5 -52h477l-262 -266h-205q-372 0 -555.5 127t-183.5 405v46q0 185 91 316.5t253 197t381 65.5zM811 899q-163 0 -266 -52t-142 -147h760
q-46 199 -352 199z" />
    <glyph glyph-name="eacute" unicode="&#xe9;" horiz-adv-x="1560" 
d="M2241 1772l24 -93l-2148 -587l-25 92zM817 1157q321 0 501.5 -145.5t180.5 -423.5v-101h-1114q17 -117 126.5 -169t309.5 -52h477l-262 -266h-205q-372 0 -555.5 127t-183.5 405v46q0 185 91 316.5t253 197t381 65.5zM811 899q-163 0 -266 -52t-142 -147h760
q-46 199 -352 199z" />
    <glyph glyph-name="ecircumflex" unicode="&#xea;" horiz-adv-x="1560" 
d="M1257 1393l-442 272l-938 -578l-49 84l989 603l490 -295zM817 1157q321 0 501.5 -145.5t180.5 -423.5v-101h-1114q17 -117 126.5 -169t309.5 -52h477l-262 -266h-205q-372 0 -555.5 127t-183.5 405v46q0 185 91 316.5t253 197t381 65.5zM811 899q-163 0 -266 -52
t-142 -147h760q-46 199 -352 199z" />
    <glyph glyph-name="edieresis" unicode="&#xeb;" horiz-adv-x="1560" 
d="M555 1227v422h107v-422h-107zM989 1434h422v-103h-422v103zM817 1157q321 0 501.5 -145.5t180.5 -423.5v-101h-1114q17 -117 126.5 -169t309.5 -52h477l-262 -266h-205q-372 0 -555.5 127t-183.5 405v46q0 185 91 316.5t253 197t381 65.5zM811 899q-163 0 -266 -52
t-142 -147h760q-46 199 -352 199z" />
    <glyph glyph-name="igrave" unicode="&#xec;" horiz-adv-x="632" 
d="M1016 1092l-2149 587l25 93l2148 -588zM164 1126h305v-1126h-305v1126z" />
    <glyph glyph-name="iacute" unicode="&#xed;" horiz-adv-x="632" 
d="M1739 1772l24 -93l-2148 -587l-25 92zM164 1126h305v-1126h-305v1126z" />
    <glyph glyph-name="icircumflex" unicode="&#xee;" horiz-adv-x="632" 
d="M756 1393l-443 272l-938 -578l-49 84l989 603l490 -295zM164 1126h305v-1126h-305v1126z" />
    <glyph glyph-name="idieresis" unicode="&#xef;" horiz-adv-x="632" 
d="M53 1227v422h107v-422h-107zM487 1434h422v-103h-422v103zM164 1126h305v-1126h-305v1126z" />
    <glyph glyph-name="eth" unicode="&#xf0;" horiz-adv-x="1724" 
d="M92 1331v103h1958v-103h-1106l449 -293q239 -156 239 -440v-66q0 -184 -94 -310t-265 -187.5t-411 -61.5t-411 61.5t-265 187.5t-94 310v66q0 252 171 392.5t482 162.5l-272 178h-381zM1343 532v66q0 141 -128.5 214t-352.5 73t-352.5 -73t-128.5 -214v-66
q0 -141 128 -213.5t353 -72.5t353 72.5t128 213.5z" />
    <glyph glyph-name="ntilde" unicode="&#xf1;" horiz-adv-x="1687" 
d="M938 874q-117 0 -255 -39t-214 -98v-737h-305v1106l-25 -12l-47 88l610 323l162 -116l715 383l47 -89l-768 -411l-162 117l-495 -263h268v-243q85 121 234 197.5t323 76.5q250 0 389 -146t139 -397v-614h-305v553q0 183 -68 252t-243 69z" />
    <glyph glyph-name="ograve" unicode="&#xf2;" horiz-adv-x="1724" 
d="M1563 1092l-2149 587l25 93l2148 -588zM1632 532q0 -184 -94 -310t-265 -187.5t-411 -61.5t-411 61.5t-265 187.5t-94 310v66q0 184 94 310t265 187.5t411 61.5t411 -61.5t265 -187.5t94 -310v-66zM1343 532v66q0 141 -128.5 214t-352.5 73t-352.5 -73t-128.5 -214v-66
q0 -141 128 -213.5t353 -72.5t353 72.5t128 213.5z" />
    <glyph glyph-name="oacute" unicode="&#xf3;" horiz-adv-x="1724" 
d="M2286 1772l24 -93l-2148 -587l-25 92zM1632 532q0 -184 -94 -310t-265 -187.5t-411 -61.5t-411 61.5t-265 187.5t-94 310v66q0 184 94 310t265 187.5t411 61.5t411 -61.5t265 -187.5t94 -310v-66zM1343 532v66q0 141 -128.5 214t-352.5 73t-352.5 -73t-128.5 -214v-66
q0 -141 128 -213.5t353 -72.5t353 72.5t128 213.5z" />
    <glyph glyph-name="ocircumflex" unicode="&#xf4;" horiz-adv-x="1724" 
d="M1303 1393l-443 272l-938 -578l-49 84l989 603l490 -295zM1632 532q0 -184 -94 -310t-265 -187.5t-411 -61.5t-411 61.5t-265 187.5t-94 310v66q0 184 94 310t265 187.5t411 61.5t411 -61.5t265 -187.5t94 -310v-66zM1343 532v66q0 141 -128.5 214t-352.5 73t-352.5 -73
t-128.5 -214v-66q0 -141 128 -213.5t353 -72.5t353 72.5t128 213.5z" />
    <glyph glyph-name="otilde" unicode="&#xf5;" horiz-adv-x="1724" 
d="M1583 1772l47 -89l-768 -411l-162 117l-557 -295l-47 88l611 323l161 -116zM1632 532q0 -184 -94 -310t-265 -187.5t-411 -61.5t-411 61.5t-265 187.5t-94 310v66q0 184 94 310t265 187.5t411 61.5t411 -61.5t265 -187.5t94 -310v-66zM1343 532v66q0 141 -128.5 214
t-352.5 73t-352.5 -73t-128.5 -214v-66q0 -141 128 -213.5t353 -72.5t353 72.5t128 213.5z" />
    <glyph glyph-name="odieresis" unicode="&#xf6;" horiz-adv-x="1724" 
d="M600 1227v422h107v-422h-107zM1034 1434h422v-103h-422v103zM1632 532q0 -184 -94 -310t-265 -187.5t-411 -61.5t-411 61.5t-265 187.5t-94 310v66q0 184 94 310t265 187.5t411 61.5t411 -61.5t265 -187.5t94 -310v-66zM1343 532v66q0 141 -128.5 214t-352.5 73
t-352.5 -73t-128.5 -214v-66q0 -141 128 -213.5t353 -72.5t353 72.5t128 213.5z" />
    <glyph glyph-name="oslash" unicode="&#xf8;" horiz-adv-x="1724" 
d="M862 -27q-180 0 -323 35l-297 -430h-119l317 461q-168 64 -258 188.5t-90 304.5v66q0 184 94 310t265 187.5t411 61.5q181 0 324 -35l215 312h119l-236 -342q168 -64 258 -189t90 -305v-66q0 -184 -94 -310t-265 -187.5t-411 -61.5zM381 532q0 -184 223 -253l412 595
q-86 11 -154 11q-224 0 -352.5 -73t-128.5 -214v-66zM1343 598q0 185 -225 254l-409 -596q78 -10 153 -10q225 0 353 72.5t128 213.5v66z" />
    <glyph glyph-name="ugrave" unicode="&#xf9;" horiz-adv-x="1646" 
d="M1683 1092l-2148 587l25 93l2148 -588zM1178 0v248q-87 -115 -228.5 -195t-296.5 -80q-244 0 -382 146t-138 397v610h305v-548q0 -183 68.5 -252.5t243.5 -69.5q108 0 223 38t205 95v737h305v-1126h-305z" />
    <glyph glyph-name="uacute" unicode="&#xfa;" horiz-adv-x="1646" 
d="M2054 1772l25 -93l-2149 -587l-24 92zM1178 0v248q-87 -115 -228.5 -195t-296.5 -80q-244 0 -382 146t-138 397v610h305v-548q0 -183 68.5 -252.5t243.5 -69.5q108 0 223 38t205 95v737h305v-1126h-305z" />
    <glyph glyph-name="ucircumflex" unicode="&#xfb;" horiz-adv-x="1646" 
d="M1247 1393l-442 272l-938 -578l-49 84l989 603l489 -295zM1178 0v248q-87 -115 -228.5 -195t-296.5 -80q-244 0 -382 146t-138 397v610h305v-548q0 -183 68.5 -252.5t243.5 -69.5q108 0 223 38t205 95v737h305v-1126h-305z" />
    <glyph glyph-name="udieresis" unicode="&#xfc;" horiz-adv-x="1646" 
d="M545 1227v422h106v-422h-106zM979 1434h422v-103h-422v103zM1178 0v248q-87 -115 -228.5 -195t-296.5 -80q-244 0 -382 146t-138 397v610h305v-548q0 -183 68.5 -252.5t243.5 -69.5q108 0 223 38t205 95v737h305v-1126h-305z" />
    <glyph glyph-name="yacute" unicode="&#xfd;" horiz-adv-x="1509" 
d="M1509 1126l-815 -1548h-350l221 422h-213l-313 1112l-76 -20l-24 92l2148 588l24 -93l-2021 -553h270l279 -989l520 989h350z" />
    <glyph glyph-name="thorn" unicode="&#xfe;" horiz-adv-x="1740" 
d="M1065 -27q-191 0 -345.5 77t-250.5 192v-664h-305v1983h305v-672q95 115 250 191.5t346 76.5q259 0 421.5 -153t162.5 -406v-66q0 -253 -162.5 -406t-421.5 -153zM944 874q-122 0 -253.5 -38t-221.5 -91v-360q90 -53 221.5 -91t253.5 -38q188 0 302 69t114 207v66
q0 138 -114 207t-302 69z" />
    <glyph glyph-name="ydieresis" unicode="&#xff;" horiz-adv-x="1509" 
d="M498 1227v422h106v-422h-106zM932 1434h422v-103h-422v103zM1159 1126h350l-815 -1548h-350l221 422h-213l-317 1126h325l279 -989z" />
    <glyph glyph-name="Amacron" unicode="&#x100;" horiz-adv-x="2234" 
d="M666 1638h1568v-102h-1568v102zM1864 0l-207 360h-1079l-207 -360h-351l824 1434h547l823 -1434h-350zM739 643h756l-377 657z" />
    <glyph glyph-name="amacron" unicode="&#x101;" horiz-adv-x="1636" 
d="M367 1434h1568v-103h-1568v103zM1208 0v219q-85 -112 -231 -179t-330 -67q-237 0 -368.5 89t-131.5 266v51q0 91 37 155t106 99.5t153.5 51t193.5 15.5h551q-19 52 -55 85t-94 49t-117.5 21t-149.5 5h-731l258 266h535q129 0 225.5 -13.5t174 -45t129 -80.5t86 -123.5
t49.5 -171t15 -225.5v-467h-305zM719 242q127 0 267.5 33.5t221.5 84.5v107h-561q-110 0 -159.5 -19t-49.5 -75v-21q0 -63 71.5 -86.5t209.5 -23.5z" />
    <glyph glyph-name="Abreve" unicode="&#x102;" horiz-adv-x="2234" 
d="M1343 1536h-450q-133 0 -190.5 61.5t-57.5 176.5h107q0 -26 2 -42.5t9.5 -36t22 -31t41.5 -19t66 -7.5h450q48 0 78 10t43 31.5t17 42t4 52.5v292h106v-292q0 -115 -57.5 -176.5t-190.5 -61.5zM1864 0l-207 360h-1079l-207 -360h-351l824 1434h547l823 -1434h-350z
M739 643h756l-377 657z" />
    <glyph glyph-name="abreve" unicode="&#x103;" horiz-adv-x="1636" 
d="M1044 1331h-450q-133 0 -190.5 61.5t-57.5 176.5h107q0 -33 3.5 -52.5t16.5 -41t43 -31.5t78 -10h450q48 0 78 10t43 31.5t17 41.5t4 52v293h106v-293q0 -115 -57.5 -176.5t-190.5 -61.5zM1208 0v219q-85 -112 -231 -179t-330 -67q-237 0 -368.5 89t-131.5 266v51
q0 91 37 155t106 99.5t153.5 51t193.5 15.5h551q-19 52 -55 85t-94 49t-117.5 21t-149.5 5h-731l258 266h535q129 0 225.5 -13.5t174 -45t129 -80.5t86 -123.5t49.5 -171t15 -225.5v-467h-305zM719 242q127 0 267.5 33.5t221.5 84.5v107h-561q-110 0 -159.5 -19t-49.5 -75
v-21q0 -63 71.5 -86.5t209.5 -23.5z" />
    <glyph glyph-name="Aogonek" unicode="&#x104;" horiz-adv-x="2234" 
d="M2111 -422v422h-247l-207 360h-1079l-207 -360h-351l824 1434h547l823 -1434v-422h-103zM739 643h756l-377 657z" />
    <glyph glyph-name="aogonek" unicode="&#x105;" horiz-adv-x="1636" 
d="M1411 -422v422h-203v219q-85 -112 -231 -179t-330 -67q-237 0 -368.5 89t-131.5 266v51q0 91 37 155t106 99.5t153.5 51t193.5 15.5h551q-19 52 -55 85t-94 49t-117.5 21t-149.5 5h-731l258 266h535q129 0 225.5 -13.5t174 -45t129 -80.5t86 -123.5t49.5 -171t15 -225.5
v-889h-102zM719 242q127 0 267.5 33.5t221.5 84.5v107h-561q-110 0 -159.5 -19t-49.5 -75v-21q0 -63 71.5 -86.5t209.5 -23.5z" />
    <glyph glyph-name="Cacute" unicode="&#x106;" horiz-adv-x="2281" 
d="M2087 1976l24 -92l-2148 -588l-24 93zM1143 258q134 0 243 13.5t211.5 46.5t170 97.5t90.5 157.5h319q-68 -600 -1034 -600q-1041 0 -1041 699v104q0 699 1041 699q976 0 1036 -615h-317q-16 78 -64.5 137.5t-115.5 95.5t-158.5 58.5t-182 30.5t-198.5 8
q-119 0 -217.5 -10t-196 -37.5t-164 -72.5t-108 -120t-41.5 -174v-104q0 -99 41.5 -174t108 -120t164 -72.5t196 -37.5t217.5 -10z" />
    <glyph glyph-name="cacute" unicode="&#x107;" horiz-adv-x="1720" 
d="M2286 1772l24 -93l-2148 -587l-25 92zM862 246q186 0 308.5 51.5t158.5 151.5h297q-30 -234 -230 -355t-534 -121q-240 0 -411 61.5t-265 187.5t-94 310v66q0 184 94 310t265 187.5t411 61.5q335 0 535.5 -121.5t230.5 -357.5h-297q-35 101 -157.5 154t-311.5 53
q-224 0 -352.5 -73t-128.5 -214v-66q0 -141 128 -213.5t353 -72.5z" />
    <glyph glyph-name="Ccircumflex" unicode="&#x108;" horiz-adv-x="2281" 
d="M1583 1597l-442 273l-938 -578l-49 84l989 602l489 -295zM1143 258q134 0 243 13.5t211.5 46.5t170 97.5t90.5 157.5h319q-68 -600 -1034 -600q-1041 0 -1041 699v104q0 699 1041 699q976 0 1036 -615h-317q-16 78 -64.5 137.5t-115.5 95.5t-158.5 58.5t-182 30.5
t-198.5 8q-119 0 -217.5 -10t-196 -37.5t-164 -72.5t-108 -120t-41.5 -174v-104q0 -99 41.5 -174t108 -120t164 -72.5t196 -37.5t217.5 -10z" />
    <glyph glyph-name="ccircumflex" unicode="&#x109;" horiz-adv-x="1720" 
d="M1303 1393l-443 272l-938 -578l-49 84l989 603l490 -295zM862 246q186 0 308.5 51.5t158.5 151.5h297q-30 -234 -230 -355t-534 -121q-240 0 -411 61.5t-265 187.5t-94 310v66q0 184 94 310t265 187.5t411 61.5q335 0 535.5 -121.5t230.5 -357.5h-297q-35 101 -157.5 154
t-311.5 53q-224 0 -352.5 -73t-128.5 -214v-66q0 -141 128 -213.5t353 -72.5z" />
    <glyph glyph-name="Cdotaccent" unicode="&#x10a;" horiz-adv-x="2281" 
d="M1092 1534v422h102v-422h-102zM1143 258q134 0 243 13.5t211.5 46.5t170 97.5t90.5 157.5h319q-68 -600 -1034 -600q-1041 0 -1041 699v104q0 699 1041 699q976 0 1036 -615h-317q-16 78 -64.5 137.5t-115.5 95.5t-158.5 58.5t-182 30.5t-198.5 8q-119 0 -217.5 -10
t-196 -37.5t-164 -72.5t-108 -120t-41.5 -174v-104q0 -99 41.5 -174t108 -120t164 -72.5t196 -37.5t217.5 -10z" />
    <glyph glyph-name="cdotaccent" unicode="&#x10b;" horiz-adv-x="1720" 
d="M811 1227v422h102v-422h-102zM862 246q186 0 308.5 51.5t158.5 151.5h297q-30 -234 -230 -355t-534 -121q-240 0 -411 61.5t-265 187.5t-94 310v66q0 184 94 310t265 187.5t411 61.5q335 0 535.5 -121.5t230.5 -357.5h-297q-35 101 -157.5 154t-311.5 53
q-224 0 -352.5 -73t-128.5 -214v-66q0 -141 128 -213.5t353 -72.5z" />
    <glyph glyph-name="Ccaron" unicode="&#x10c;" horiz-adv-x="2281" 
d="M2177 573q-68 -600 -1034 -600q-1041 0 -1041 699v104q0 174 63 303.5t184 212t286 127t381 54.5l-862 524l49 84l938 -578l442 273l49 -86l-362 -217q855 -40 909 -613h-317q-16 78 -64.5 137.5t-115.5 95.5t-158.5 58.5t-182 30.5t-198.5 8q-119 0 -217.5 -10
t-196 -37.5t-164 -72.5t-108 -120t-41.5 -174v-104q0 -99 41.5 -174t108 -120t164 -72.5t196 -37.5t217.5 -10q134 0 243 13.5t211.5 46.5t170 97.5t90.5 157.5h319z" />
    <glyph glyph-name="ccaron" unicode="&#x10d;" horiz-adv-x="1720" 
d="M1626 449q-30 -234 -230 -355t-534 -121q-240 0 -411 61.5t-265 187.5t-94 310v66q0 253 173.5 393.5t488.5 161.5l-881 537l49 84l938 -578l443 272l49 -86l-379 -229q288 -19 458 -139t197 -336h-297q-35 101 -157.5 154t-311.5 53q-224 0 -352.5 -73t-128.5 -214v-66
q0 -141 128 -213.5t353 -72.5q186 0 308.5 51.5t158.5 151.5h297z" />
    <glyph glyph-name="Dcaron" unicode="&#x10e;" horiz-adv-x="2115" 
d="M154 0v1434h839l-925 563l49 84l938 -578l442 273l49 -86l-428 -258q176 -6 314.5 -32t248.5 -78.5t182.5 -131t111 -189.5t38.5 -253v-62q0 -187 -64.5 -320t-194 -213t-309.5 -116.5t-425 -36.5h-866zM1020 1143h-543v-852h543q85 0 153.5 4t141 14.5t127.5 29
t105.5 48.5t82.5 71t51 98.5t19 129.5v62q0 72 -19 129.5t-51 98.5t-82.5 71t-105.5 48.5t-127.5 29t-141 14.5t-153.5 4z" />
    <glyph glyph-name="dcaron" unicode="&#x10f;" horiz-adv-x="1740" 
d="M1272 0v242q-96 -115 -250.5 -192t-345.5 -77q-259 0 -421.5 153t-162.5 406v66q0 253 162.5 406t421.5 153q191 0 346 -76.5t250 -191.5v672h305v-1561h-305zM1679 1139v422h103v-422h-103zM381 532q0 -138 114 -207t302 -69q122 0 253.5 38t221.5 91v360
q-90 53 -221.5 91t-253.5 38q-188 0 -302 -69t-114 -207v-66z" />
    <glyph glyph-name="Dcroat" unicode="&#x110;" horiz-adv-x="2115" 
d="M-72 764h226v670h866q245 0 425 -36.5t309.5 -116.5t194 -213t64.5 -320v-62q0 -187 -64.5 -320t-194 -213t-309.5 -116.5t-425 -36.5h-866v672h-226v92zM1315 672h-838v-381h543q85 0 153.5 4t141 14.5t127.5 29t105.5 48.5t82.5 71t51 98.5t19 129.5v62q0 72 -19 129.5
t-51 98.5t-82.5 71t-105.5 48.5t-127.5 29t-141 14.5t-153.5 4h-543v-379h838v-92z" />
    <glyph glyph-name="dcroat" unicode="&#x111;" horiz-adv-x="1740" 
d="M1272 0v242q-96 -115 -250.5 -192t-345.5 -77q-259 0 -421.5 153t-162.5 406v66q0 253 162.5 406t421.5 153q191 0 346 -76.5t250 -191.5v442h-1489v103h1489v127h305v-127h164v-103h-164v-1331h-305zM381 532q0 -138 114 -207t302 -69q122 0 253.5 38t221.5 91v360
q-90 53 -221.5 91t-253.5 38q-188 0 -302 -69t-114 -207v-66z" />
    <glyph glyph-name="Emacron" unicode="&#x112;" horiz-adv-x="1886" 
d="M510 1638h1569v-102h-1569v102zM154 0v1434h1620v-291h-1297v-273h961v-284h-961v-295h1297v-291h-1620z" />
    <glyph glyph-name="emacron" unicode="&#x113;" horiz-adv-x="1560" 
d="M365 1434h1568v-103h-1568v103zM817 1157q321 0 501.5 -145.5t180.5 -423.5v-101h-1114q17 -117 126.5 -169t309.5 -52h477l-262 -266h-205q-372 0 -555.5 127t-183.5 405v46q0 185 91 316.5t253 197t381 65.5zM811 899q-163 0 -266 -52t-142 -147h760q-46 199 -352 199z
" />
    <glyph glyph-name="Ebreve" unicode="&#x114;" horiz-adv-x="1886" 
d="M1188 1536h-451q-133 0 -190.5 61.5t-57.5 176.5h107q0 -26 2 -42.5t9.5 -36t22 -31t41.5 -19t66 -7.5h451q39 0 66 7.5t41.5 19t22 31t9.5 36t2 42.5v292h107v-292q0 -115 -57.5 -176.5t-190.5 -61.5zM154 0v1434h1620v-291h-1297v-273h961v-284h-961v-295h1297v-291
h-1620z" />
    <glyph glyph-name="ebreve" unicode="&#x115;" horiz-adv-x="1560" 
d="M1042 1331h-450q-133 0 -190.5 61.5t-57.5 176.5h107q0 -33 3.5 -52.5t16.5 -41t43 -31.5t78 -10h450q48 0 78 10t43 31.5t17 41.5t4 52v293h106v-293q0 -115 -57.5 -176.5t-190.5 -61.5zM817 1157q321 0 501.5 -145.5t180.5 -423.5v-101h-1114q17 -117 126.5 -169
t309.5 -52h477l-262 -266h-205q-372 0 -555.5 127t-183.5 405v46q0 185 91 316.5t253 197t381 65.5zM811 899q-163 0 -266 -52t-142 -147h760q-46 199 -352 199z" />
    <glyph glyph-name="Edotaccent" unicode="&#x116;" horiz-adv-x="1886" 
d="M911 1534v422h103v-422h-103zM154 0v1434h1620v-291h-1297v-273h961v-284h-961v-295h1297v-291h-1620z" />
    <glyph glyph-name="edotaccent" unicode="&#x117;" horiz-adv-x="1560" 
d="M766 1227v422h102v-422h-102zM817 1157q321 0 501.5 -145.5t180.5 -423.5v-101h-1114q17 -117 126.5 -169t309.5 -52h477l-262 -266h-205q-372 0 -555.5 127t-183.5 405v46q0 185 91 316.5t253 197t381 65.5zM811 899q-163 0 -266 -52t-142 -147h760q-46 199 -352 199z
" />
    <glyph glyph-name="Eogonek" unicode="&#x118;" horiz-adv-x="1886" 
d="M1438 586h-961v-295h1297v-713h-103v422h-1517v1434h1620v-291h-1297v-273h961v-284z" />
    <glyph glyph-name="eogonek" unicode="&#x119;" horiz-adv-x="1560" 
d="M817 1157q321 0 501.5 -145.5t180.5 -423.5v-101h-1114q17 -117 126.5 -169t309.5 -52h477l-718 -729l-66 66l393 397h-76q-372 0 -555.5 127t-183.5 405v46q0 185 91 316.5t253 197t381 65.5zM811 899q-163 0 -266 -52t-142 -147h760q-46 199 -352 199z" />
    <glyph glyph-name="Ecaron" unicode="&#x11a;" horiz-adv-x="1886" 
d="M154 0v1434h745l-926 563l50 84l938 -578l442 273l49 -86l-424 -256h746v-291h-1297v-273h961v-284h-961v-295h1297v-291h-1620z" />
    <glyph glyph-name="ecaron" unicode="&#x11b;" horiz-adv-x="1560" 
d="M1307 1382l-381 -229q272 -24 422.5 -167.5t150.5 -397.5v-101h-1114q17 -117 126.5 -169t309.5 -52h477l-262 -266h-205q-372 0 -555.5 127t-183.5 405v46q0 254 165.5 402.5t453.5 172.5l-883 537l49 84l938 -578l442 272zM811 899q-163 0 -266 -52t-142 -147h760
q-46 199 -352 199z" />
    <glyph glyph-name="Gcircumflex" unicode="&#x11c;" horiz-adv-x="2285" 
d="M1583 1597l-442 273l-938 -578l-49 84l989 602l489 -295zM1143 258q108 0 198.5 8t182 30.5t158 58t115 94.5t65.5 137h-1088v284h1409v-198q0 -150 -47.5 -267t-135 -198t-217 -133.5t-287.5 -76.5t-353 -24q-1041 0 -1041 699v104q0 699 1041 699q845 0 1003 -459h-364
q-161 174 -639 174q-119 0 -217.5 -10t-196 -37.5t-164 -72.5t-108 -120t-41.5 -174v-104q0 -99 41.5 -174t108 -120t164 -72.5t196 -37.5t217.5 -10z" />
    <glyph glyph-name="gcircumflex" unicode="&#x11d;" horiz-adv-x="1699" 
d="M1290 1393l-442 272l-938 -578l-49 84l989 603l489 -295zM1536 141q0 -151 -53.5 -260t-158.5 -175t-251 -97t-342 -31h-452l-254 262h714q227 0 359.5 75.5t132.5 225.5v99q-94 -115 -241 -191t-335 -76q-158 0 -286.5 70t-202.5 198.5t-74 290.5v66q0 246 160.5 402.5
t402.5 156.5q188 0 335.5 -75.5t240.5 -190.5v235h305v-985zM381 532q0 -88 55 -151.5t143 -94t197 -30.5q121 0 245.5 37.5t209.5 91.5v360q-85 54 -209.5 91.5t-245.5 37.5q-109 0 -197 -30.5t-143 -94t-55 -151.5v-66z" />
    <glyph glyph-name="Gbreve" unicode="&#x11e;" horiz-adv-x="2285" 
d="M1368 1536h-450q-133 0 -190.5 61.5t-57.5 176.5h106q0 -32 4 -52.5t17 -42t43 -31.5t78 -10h450q39 0 66 7.5t41.5 19t22 31t9.5 36t2 42.5v292h107v-292q0 -115 -57.5 -176.5t-190.5 -61.5zM1143 258q108 0 198.5 8t182 30.5t158 58t115 94.5t65.5 137h-1088v284h1409
v-198q0 -150 -47.5 -267t-135 -198t-217 -133.5t-287.5 -76.5t-353 -24q-1041 0 -1041 699v104q0 699 1041 699q845 0 1003 -459h-364q-161 174 -639 174q-119 0 -217.5 -10t-196 -37.5t-164 -72.5t-108 -120t-41.5 -174v-104q0 -99 41.5 -174t108 -120t164 -72.5t196 -37.5
t217.5 -10z" />
    <glyph glyph-name="gbreve" unicode="&#x11f;" horiz-adv-x="1699" 
d="M1075 1331h-450q-133 0 -190.5 61.5t-57.5 176.5h106q0 -32 4 -52t17 -41.5t43 -31.5t78 -10h450q48 0 78 10t43 31.5t17 41.5t4 52v293h106v-293q0 -115 -57.5 -176.5t-190.5 -61.5zM1536 141q0 -151 -53.5 -260t-158.5 -175t-251 -97t-342 -31h-452l-254 262h714
q227 0 359.5 75.5t132.5 225.5v99q-94 -115 -241 -191t-335 -76q-158 0 -286.5 70t-202.5 198.5t-74 290.5v66q0 246 160.5 402.5t402.5 156.5q188 0 335.5 -75.5t240.5 -190.5v235h305v-985zM381 532q0 -88 55 -151.5t143 -94t197 -30.5q121 0 245.5 37.5t209.5 91.5v360
q-85 54 -209.5 91.5t-245.5 37.5q-109 0 -197 -30.5t-143 -94t-55 -151.5v-66z" />
    <glyph glyph-name="Gdotaccent" unicode="&#x120;" horiz-adv-x="2285" 
d="M1092 1534v422h102v-422h-102zM1143 258q108 0 198.5 8t182 30.5t158 58t115 94.5t65.5 137h-1088v284h1409v-198q0 -150 -47.5 -267t-135 -198t-217 -133.5t-287.5 -76.5t-353 -24q-1041 0 -1041 699v104q0 699 1041 699q845 0 1003 -459h-364q-161 174 -639 174
q-119 0 -217.5 -10t-196 -37.5t-164 -72.5t-108 -120t-41.5 -174v-104q0 -99 41.5 -174t108 -120t164 -72.5t196 -37.5t217.5 -10z" />
    <glyph glyph-name="gdotaccent" unicode="&#x121;" horiz-adv-x="1699" 
d="M799 1227v422h102v-422h-102zM1536 141q0 -151 -53.5 -260t-158.5 -175t-251 -97t-342 -31h-452l-254 262h714q227 0 359.5 75.5t132.5 225.5v99q-94 -115 -241 -191t-335 -76q-158 0 -286.5 70t-202.5 198.5t-74 290.5v66q0 246 160.5 402.5t402.5 156.5
q188 0 335.5 -75.5t240.5 -190.5v235h305v-985zM381 532q0 -88 55 -151.5t143 -94t197 -30.5q121 0 245.5 37.5t209.5 91.5v360q-85 54 -209.5 91.5t-245.5 37.5q-109 0 -197 -30.5t-143 -94t-55 -151.5v-66z" />
    <glyph glyph-name="Gcommaaccent" unicode="&#x122;" horiz-adv-x="2285" 
d="M1143 258q108 0 198.5 8t182 30.5t158 58t115 94.5t65.5 137h-1088v284h1409v-198q0 -150 -47.5 -267t-135 -198t-217 -133.5t-287.5 -76.5t-353 -24q-1041 0 -1041 699v104q0 699 1041 699q845 0 1003 -459h-364q-161 174 -639 174q-119 0 -217.5 -10t-196 -37.5
t-164 -72.5t-108 -120t-41.5 -174v-104q0 -99 41.5 -174t108 -120t164 -72.5t196 -37.5t217.5 -10zM913 -422l510 318h179l-510 -318h-179z" />
    <glyph glyph-name="gcommaaccent" unicode="&#x123;" horiz-adv-x="1699" 
d="M489 1231l904 561h178l-903 -561h-179zM1536 141q0 -151 -53.5 -260t-158.5 -175t-251 -97t-342 -31h-452l-254 262h714q227 0 359.5 75.5t132.5 225.5v99q-94 -115 -241 -191t-335 -76q-158 0 -286.5 70t-202.5 198.5t-74 290.5v66q0 246 160.5 402.5t402.5 156.5
q188 0 335.5 -75.5t240.5 -190.5v235h305v-985zM381 532q0 -88 55 -151.5t143 -94t197 -30.5q121 0 245.5 37.5t209.5 91.5v360q-85 54 -209.5 91.5t-245.5 37.5q-109 0 -197 -30.5t-143 -94t-55 -151.5v-66z" />
    <glyph glyph-name="Hcircumflex" unicode="&#x124;" horiz-adv-x="2263" 
d="M1786 0v580h-1309v-580h-323v1370l-127 -78l-50 84l990 602l489 -295l-49 -86l-442 273l-709 -436h221v-557h1309v557h323v-1434h-323z" />
    <glyph glyph-name="hcircumflex" unicode="&#x125;" horiz-adv-x="1687" 
d="M938 874q-117 0 -255 -39t-214 -98v-737h-305v1554l-260 -159l-49 84l989 602l489 -295l-49 -86l-442 272l-668 -411h295v-678q85 121 234 197.5t323 76.5q250 0 389 -146t139 -397v-614h-305v553q0 183 -68 252t-243 69z" />
    <glyph glyph-name="Hbar" unicode="&#x126;" horiz-adv-x="2344" 
d="M1827 0v580h-1309v-580h-323v1108h-226v92h226v234h323v-234h1309v234h323v-234h226v-92h-226v-1108h-323zM518 877h1309v231h-1309v-231z" />
    <glyph glyph-name="hbar" unicode="&#x127;" horiz-adv-x="1687" 
d="M938 874q-117 0 -255 -39t-214 -98v-737h-305v1331h-164v103h164v127h305v-127h1489v-103h-1489v-448q85 121 234 197.5t323 76.5q250 0 389 -146t139 -397v-614h-305v553q0 183 -68 252t-243 69z" />
    <glyph glyph-name="Itilde" unicode="&#x128;" horiz-adv-x="1683" 
d="M582 1593l-301 -159h1280v-291h-557v-852h557v-291h-1438v291h557v852h-557v207l-98 -52l-48 88l611 324l162 -117l714 383l47 -88l-768 -411z" />
    <glyph glyph-name="itilde" unicode="&#x129;" horiz-adv-x="632" 
d="M1036 1772l47 -89l-768 -411l-161 117l-557 -295l-48 88l611 323l162 -116zM164 1126h305v-1126h-305v1126z" />
    <glyph glyph-name="Imacron" unicode="&#x12a;" horiz-adv-x="1683" 
d="M389 1638h1569v-102h-1569v102zM123 1143v291h1438v-291h-557v-852h557v-291h-1438v291h557v852h-557z" />
    <glyph glyph-name="imacron" unicode="&#x12b;" horiz-adv-x="632" 
d="M-137 1434h1569v-103h-1569v103zM164 1126h305v-1126h-305v1126z" />
    <glyph glyph-name="Ibreve" unicode="&#x12c;" horiz-adv-x="1683" 
d="M1067 1536h-451q-133 0 -190 61t-57 177h106q0 -26 2 -42.5t9.5 -36t22 -31t41.5 -19t66 -7.5h451q39 0 66 7.5t41.5 19t22 31t9.5 36t2 42.5v292h107v-292q0 -115 -57.5 -176.5t-190.5 -61.5zM123 1143v291h1438v-291h-557v-852h557v-291h-1438v291h557v852h-557z" />
    <glyph glyph-name="ibreve" unicode="&#x12d;" horiz-adv-x="632" 
d="M541 1331h-451q-133 0 -190.5 61.5t-57.5 176.5h107q0 -33 3.5 -52.5t16.5 -41t43 -31.5t78 -10h451q48 0 78 10t43 31.5t16.5 41t3.5 52.5v293h106v-293q0 -116 -57 -177t-190 -61zM164 1126h305v-1126h-305v1126z" />
    <glyph glyph-name="Iogonek" unicode="&#x12e;" horiz-adv-x="1683" 
d="M123 1143v291h1438v-291h-557v-852h557v-713h-103v422h-1335v291h557v852h-557z" />
    <glyph glyph-name="iogonek" unicode="&#x12f;" horiz-adv-x="632" 
d="M164 1561h741v-252h-741v252zM367 -422v422h-203v1126h305v-1548h-102z" />
    <glyph glyph-name="Idotaccent" unicode="&#x130;" horiz-adv-x="1683" 
d="M791 1534v422h102v-422h-102zM123 1143v291h1438v-291h-557v-852h557v-291h-1438v291h557v852h-557z" />
    <glyph glyph-name="dotlessi" unicode="&#x131;" horiz-adv-x="632" 
d="M164 1126h305v-1126h-305v1126z" />
    <glyph glyph-name="Jcircumflex" unicode="&#x134;" horiz-adv-x="2062" 
d="M1757 1597l-442 273l-938 -578l-49 84l989 602l489 -295zM711 1143v291h1212v-729q-5 -732 -956 -732q-154 0 -283 18.5t-244 62.5t-199.5 112t-142 171t-78.5 236h326q21 -81 70.5 -140t108 -90.5t141 -50t149.5 -23.5t154 -5q68 0 124 3.5t123.5 14.5t119.5 29.5
t103 51.5t84.5 77.5t54.5 111t21 148.5v443h-888z" />
    <glyph glyph-name="jcircumflex" unicode="&#x135;" horiz-adv-x="1114" 
d="M1237 1393l-442 272l-938 -578l-50 84l990 603l489 -295zM31 860v266h919v-989q0 -297 -179.5 -428t-534.5 -131v272q193 0 301 77t108 210v723h-614z" />
    <glyph glyph-name="Kcommaaccent" unicode="&#x136;" horiz-adv-x="2082" 
d="M1430 0l-502 752l-451 -252v-500h-323v1434h323v-609l1086 609h581l-942 -529l604 -905h-376zM520 -422l510 318h178l-510 -318h-178z" />
    <glyph glyph-name="kcommaaccent" unicode="&#x137;" horiz-adv-x="1646" 
d="M1106 0l-361 594l-276 -139v-455h-305v1561h305v-809l748 374h589l-798 -401l442 -725h-344zM352 -422l510 318h178l-510 -318h-178z" />
    <glyph glyph-name="Lacute" unicode="&#x139;" horiz-adv-x="1722" 
d="M1739 1976l24 -92l-2148 -588l-25 93zM1630 291v-291h-1476v1434h323v-1143h1153z" />
    <glyph glyph-name="lacute" unicode="&#x13a;" horiz-adv-x="632" 
d="M1739 2206l24 -92l-2148 -588l-25 92zM164 1561h305v-1561h-305v1561z" />
    <glyph glyph-name="Lcommaaccent" unicode="&#x13b;" horiz-adv-x="1722" 
d="M1630 291v-291h-1476v1434h323v-1143h1153zM459 -422l510 318h178l-510 -318h-178z" />
    <glyph glyph-name="lcommaaccent" unicode="&#x13c;" horiz-adv-x="632" 
d="M164 1561h305v-1561h-305v1561zM-119 -422l510 318h178l-510 -318h-178z" />
    <glyph glyph-name="Lcaron" unicode="&#x13d;" horiz-adv-x="1722" 
d="M1630 291v-291h-1476v1434h323v-1143h1153zM682 1012v422h102v-422h-102z" />
    <glyph glyph-name="lcaron" unicode="&#x13e;" horiz-adv-x="632" 
d="M164 1561h305v-1561h-305v1561zM571 1139v422h103v-422h-103z" />
    <glyph glyph-name="Ldot" unicode="&#x13f;" horiz-adv-x="1722" 
d="M1630 291v-291h-1476v1434h323v-1143h1153zM1110 680v422h102v-422h-102z" />
    <glyph glyph-name="ldot" unicode="&#x140;" horiz-adv-x="735" 
d="M164 1561h305v-1561h-305v1561zM633 680v422h102v-422h-102z" />
    <glyph glyph-name="Lslash" unicode="&#x141;" horiz-adv-x="1722" 
d="M1630 291v-291h-1476v195l-424 -617h-119l543 789v1067h323v-598l412 598h119l-531 -770v-373h1153z" />
    <glyph glyph-name="lslash" unicode="&#x142;" horiz-adv-x="632" 
d="M164 0v475l-619 -897h-118l737 1071v912h305v-469l236 342h118l-354 -514v-920h-305z" />
    <glyph glyph-name="Nacute" unicode="&#x143;" horiz-adv-x="2181" 
d="M2028 1434v-1434h-332l-1219 1047v-1047h-323v1434h272l1984 542l25 -92l-1876 -514l1145 -985v1049h324z" />
    <glyph glyph-name="nacute" unicode="&#x144;" horiz-adv-x="1687" 
d="M938 874q-117 0 -255 -39t-214 -98v-737h-305v1122l-109 -30l-24 92l2148 588l25 -93l-2022 -553h287v-243q85 121 234 197.5t323 76.5q250 0 389 -146t139 -397v-614h-305v553q0 183 -68 252t-243 69z" />
    <glyph glyph-name="Ncommaaccent" unicode="&#x145;" horiz-adv-x="2181" 
d="M2028 1434v-1434h-332l-1219 1047v-1047h-323v1434h331l1219 -1049v1049h324zM655 -422l510 318h178l-509 -318h-179z" />
    <glyph glyph-name="ncommaaccent" unicode="&#x146;" horiz-adv-x="1687" 
d="M938 874q-117 0 -255 -39t-214 -98v-737h-305v1126h305v-243q85 121 234 197.5t323 76.5q250 0 389 -146t139 -397v-614h-305v553q0 183 -68 252t-243 69zM424 -422l510 318h178l-510 -318h-178z" />
    <glyph glyph-name="Ncaron" unicode="&#x147;" horiz-adv-x="2181" 
d="M1579 1690l-489 -295l-990 602l50 84l937 -578l443 273zM2028 1434v-1434h-332l-1219 1047v-1047h-323v1434h331l1219 -1049v1049h324z" />
    <glyph glyph-name="ncaron" unicode="&#x148;" horiz-adv-x="1687" 
d="M938 874q-117 0 -255 -39t-214 -98v-737h-305v1126h305v-243q56 78 143 140t191 97l-934 570l49 84l938 -578l442 272l50 -86l-377 -227q18 2 55 2q250 0 389 -146t139 -397v-614h-305v553q0 183 -68 252t-243 69z" />
    <glyph glyph-name="Eng" unicode="&#x14a;" horiz-adv-x="2181" 
d="M1704 1434h324v-1434l-324 -463v463h-8l-1219 1047v-1047h-323v1434h331l1219 -1049v1049z" />
    <glyph glyph-name="eng" unicode="&#x14b;" horiz-adv-x="1687" 
d="M1026 1157q250 0 389 -146t139 -397v-641l-305 -436v1016q0 183 -68 252t-243 69q-117 0 -255 -39t-214 -98v-737h-305v1126h305v-243q85 121 234 197.5t323 76.5z" />
    <glyph glyph-name="Omacron" unicode="&#x14c;" horiz-adv-x="2285" 
d="M690 1638h1569v-102h-1569v102zM102 776q0 699 1041 699q195 0 353 -24t287.5 -76.5t217 -133.5t135 -198t47.5 -267v-104q0 -150 -47.5 -267t-135 -198t-217 -133.5t-287.5 -76.5t-353 -24q-1041 0 -1041 699v104zM1870 776q0 99 -41.5 174t-108 120t-164 72.5
t-196 37.5t-217.5 10t-217.5 -10t-196 -37.5t-164 -72.5t-108 -120t-41.5 -174v-104q0 -99 41.5 -174t108 -120t164 -72.5t196 -37.5t217.5 -10t217.5 10t196 37.5t164 72.5t108 120t41.5 174v104z" />
    <glyph glyph-name="omacron" unicode="&#x14d;" horiz-adv-x="1724" 
d="M410 1434h1568v-103h-1568v103zM1632 532q0 -184 -94 -310t-265 -187.5t-411 -61.5t-411 61.5t-265 187.5t-94 310v66q0 184 94 310t265 187.5t411 61.5t411 -61.5t265 -187.5t94 -310v-66zM1343 532v66q0 141 -128.5 214t-352.5 73t-352.5 -73t-128.5 -214v-66
q0 -141 128 -213.5t353 -72.5t353 72.5t128 213.5z" />
    <glyph glyph-name="Obreve" unicode="&#x14e;" horiz-adv-x="2285" 
d="M1368 1536h-450q-133 0 -190.5 61.5t-57.5 176.5h106q0 -32 4 -52.5t17 -42t43 -31.5t78 -10h450q39 0 66 7.5t41.5 19t22 31t9.5 36t2 42.5v292h107v-292q0 -115 -57.5 -176.5t-190.5 -61.5zM102 776q0 699 1041 699q195 0 353 -24t287.5 -76.5t217 -133.5t135 -198
t47.5 -267v-104q0 -150 -47.5 -267t-135 -198t-217 -133.5t-287.5 -76.5t-353 -24q-1041 0 -1041 699v104zM1870 776q0 99 -41.5 174t-108 120t-164 72.5t-196 37.5t-217.5 10t-217.5 -10t-196 -37.5t-164 -72.5t-108 -120t-41.5 -174v-104q0 -99 41.5 -174t108 -120
t164 -72.5t196 -37.5t217.5 -10t217.5 10t196 37.5t164 72.5t108 120t41.5 174v104z" />
    <glyph glyph-name="obreve" unicode="&#x14f;" horiz-adv-x="1724" 
d="M1087 1331h-450q-133 0 -190.5 61.5t-57.5 176.5h107q0 -33 3.5 -52.5t16.5 -41t43 -31.5t78 -10h450q48 0 78 10t43 31.5t17 41.5t4 52v293h106v-293q0 -115 -57.5 -176.5t-190.5 -61.5zM1632 532q0 -184 -94 -310t-265 -187.5t-411 -61.5t-411 61.5t-265 187.5t-94 310
v66q0 184 94 310t265 187.5t411 61.5t411 -61.5t265 -187.5t94 -310v-66zM1343 532v66q0 141 -128.5 214t-352.5 73t-352.5 -73t-128.5 -214v-66q0 -141 128 -213.5t353 -72.5t353 72.5t128 213.5z" />
    <glyph glyph-name="Ohungarumlaut" unicode="&#x150;" horiz-adv-x="2285" 
d="M2087 1976l24 -92l-2148 -588l-24 93zM2087 1776l24 -93l-507 -139l-25 92zM102 776q0 699 1041 699q195 0 353 -24t287.5 -76.5t217 -133.5t135 -198t47.5 -267v-104q0 -150 -47.5 -267t-135 -198t-217 -133.5t-287.5 -76.5t-353 -24q-1041 0 -1041 699v104zM1870 776
q0 99 -41.5 174t-108 120t-164 72.5t-196 37.5t-217.5 10t-217.5 -10t-196 -37.5t-164 -72.5t-108 -120t-41.5 -174v-104q0 -99 41.5 -174t108 -120t164 -72.5t196 -37.5t217.5 -10t217.5 10t196 37.5t164 72.5t108 120t41.5 174v104z" />
    <glyph glyph-name="ohungarumlaut" unicode="&#x151;" horiz-adv-x="1724" 
d="M2286 1772l24 -93l-2148 -587l-25 92zM2286 1571l24 -92l-1079 -297l-25 92zM1632 532q0 -184 -94 -310t-265 -187.5t-411 -61.5t-411 61.5t-265 187.5t-94 310v66q0 184 94 310t265 187.5t411 61.5t411 -61.5t265 -187.5t94 -310v-66zM1343 532v66q0 141 -128.5 214
t-352.5 73t-352.5 -73t-128.5 -214v-66q0 -141 128 -213.5t353 -72.5t353 72.5t128 213.5z" />
    <glyph glyph-name="OE" unicode="&#x152;" horiz-adv-x="3592" 
d="M3480 291v-291h-1620v109q-258 -136 -717 -136q-1041 0 -1041 699v104q0 699 1041 699q459 0 717 -136v95h1620v-291h-1297v-273h961v-284h-961v-295h1297zM416 672q0 -99 41.5 -174t108 -120t164 -72.5t196 -37.5t217.5 -10q106 0 196 8t180.5 29.5t157.5 56.5t116 92.5
t67 133.5v292q-18 76 -67 133.5t-116 92.5t-157.5 56.5t-180.5 29.5t-196 8q-119 0 -217.5 -10t-196 -37.5t-164 -72.5t-108 -120t-41.5 -174v-104z" />
    <glyph glyph-name="oe" unicode="&#x153;" horiz-adv-x="2811" 
d="M2068 1157q321 0 501.5 -145.5t180.5 -423.5v-101h-1114q17 -116 127 -168.5t310 -52.5h477l-262 -266h-205q-425 0 -598 162q-201 -189 -623 -189q-240 0 -411 61.5t-265 187.5t-94 310v66q0 184 94 310t265 187.5t411 61.5q432 0 629 -194q191 194 577 194zM2062 899
q-163 0 -265.5 -52t-141.5 -147h760q-46 199 -353 199zM1343 532v66q0 141 -128.5 214t-352.5 73t-352.5 -73t-128.5 -214v-66q0 -141 128 -213.5t353 -72.5t353 72.5t128 213.5z" />
    <glyph glyph-name="Racute" unicode="&#x154;" horiz-adv-x="2357" 
d="M154 0v1434h411l1985 542l24 -92l-1646 -450h665q235 0 370.5 -112.5t135.5 -309.5q0 -84 -23 -149.5t-64.5 -111.5t-105.5 -77.5t-140 -49.5t-173 -26l-379 -35l1225 -563h-647l-1118 516l-197 -18v-498h-323zM1614 1143h-1137v-373l1137 102q166 14 166 140
q0 131 -166 131z" />
    <glyph glyph-name="racute" unicode="&#x155;" horiz-adv-x="1118" 
d="M1972 1772l25 -93l-2149 -587l-24 92zM844 807q-263 0 -375 -115v-692h-305v1126h305v-266q46 97 135.5 178.5t208.5 104.5l326 -336h-295z" />
    <glyph glyph-name="Rcommaaccent" unicode="&#x156;" horiz-adv-x="2357" 
d="M154 0v1434h1439q235 0 370.5 -112.5t135.5 -309.5q0 -84 -23 -149.5t-64.5 -111.5t-105.5 -77.5t-140 -49.5t-173 -26l-379 -35l1225 -563h-647l-1118 516l-197 -18v-498h-323zM1614 1143h-1137v-373l1137 102q166 14 166 140q0 131 -166 131zM692 -422l510 318h178
l-510 -318h-178z" />
    <glyph glyph-name="rcommaaccent" unicode="&#x157;" horiz-adv-x="1118" 
d="M844 807q-263 0 -375 -115v-692h-305v1126h305v-266q46 97 135.5 178.5t208.5 104.5l326 -336h-295zM-119 -422l510 318h178l-510 -318h-178z" />
    <glyph glyph-name="Rcaron" unicode="&#x158;" horiz-adv-x="2357" 
d="M154 0v1434h909l-926 563l49 84l938 -578l443 273l49 -86l-424 -256h401q235 0 370.5 -112.5t135.5 -309.5q0 -84 -23 -149.5t-64.5 -111.5t-105.5 -77.5t-140 -49.5t-173 -26l-379 -35l1225 -563h-647l-1118 516l-197 -18v-498h-323zM1614 1143h-1137v-373l1137 102
q166 14 166 140q0 131 -166 131z" />
    <glyph glyph-name="rcaron" unicode="&#x159;" horiz-adv-x="1118" 
d="M1038 1382l-489 -295l-989 603l49 84l938 -578l442 272zM844 807q-263 0 -375 -115v-692h-305v1126h305v-266q46 97 135.5 178.5t208.5 104.5l326 -336h-295z" />
    <glyph glyph-name="Sacute" unicode="&#x15a;" horiz-adv-x="1984" 
d="M1753 1976l25 -92l-2149 -588l-24 93zM690 664q-259 38 -408 140t-149 261v55q0 171 110 242.5t332 71.5h621l289 -291h-1047q0 -83 103.5 -132t316.5 -81l619 -94q446 -67 446 -363v-88q0 -200 -220 -306t-638 -106q-210 0 -384.5 35.5t-309 106.5t-211.5 188t-82 270
h315q56 -309 670 -309q295 1 420 37.5t125 106.5v28q0 53 -48.5 77.5t-164.5 43.5z" />
    <glyph glyph-name="sacute" unicode="&#x15b;" horiz-adv-x="1472" 
d="M2118 1772l24 -93l-2148 -587l-25 92zM795 -27q-152 0 -278 25t-226 77.5t-157 141t-58 207.5h297q14 -96 131.5 -147.5t290.5 -51.5q150 0 228.5 33t78.5 76v12q0 35 -55 51q-32 10 -138 25l-383 59q-102 16 -173 38.5t-124 59.5t-78.5 91t-25.5 129v18q0 170 146 255
t423 85q278 0 446.5 -98.5t190.5 -280.5h-299q-28 65 -127 97t-231 32q-260 0 -260 -80v-12q0 -33 50 -50t148 -32l432 -67q170 -27 257.5 -96.5t87.5 -196.5v-31q0 -369 -594 -369z" />
    <glyph glyph-name="Scircumflex" unicode="&#x15c;" horiz-adv-x="1984" 
d="M1305 1597l-443 273l-938 -578l-49 84l989 602l490 -295zM690 664q-259 38 -408 140t-149 261v55q0 171 110 242.5t332 71.5h621l289 -291h-1047q0 -83 103.5 -132t316.5 -81l619 -94q446 -67 446 -363v-88q0 -200 -220 -306t-638 -106q-210 0 -384.5 35.5t-309 106.5
t-211.5 188t-82 270h315q56 -309 670 -309q295 1 420 37.5t125 106.5v28q0 53 -48.5 77.5t-164.5 43.5z" />
    <glyph glyph-name="scircumflex" unicode="&#x15d;" horiz-adv-x="1472" 
d="M1135 1393l-443 272l-938 -578l-49 84l989 603l490 -295zM795 -27q-152 0 -278 25t-226 77.5t-157 141t-58 207.5h297q14 -96 131.5 -147.5t290.5 -51.5q150 0 228.5 33t78.5 76v12q0 35 -55 51q-32 10 -138 25l-383 59q-102 16 -173 38.5t-124 59.5t-78.5 91t-25.5 129
v18q0 170 146 255t423 85q278 0 446.5 -98.5t190.5 -280.5h-299q-28 65 -127 97t-231 32q-260 0 -260 -80v-12q0 -33 50 -50t148 -32l432 -67q170 -27 257.5 -96.5t87.5 -196.5v-31q0 -369 -594 -369z" />
    <glyph glyph-name="Scedilla" unicode="&#x15e;" horiz-adv-x="1984" 
d="M690 664q-259 38 -408 140t-149 261v55q0 171 110 242.5t332 71.5h621l289 -291h-1047q0 -83 103.5 -132t316.5 -81l619 -94q446 -67 446 -363v-88q0 -200 -220 -306t-638 -106q-210 0 -384.5 35.5t-309 106.5t-211.5 188t-82 270h315q56 -309 670 -309q295 1 420 37.5
t125 106.5v28q0 53 -48.5 77.5t-164.5 43.5zM881 -397l299 299l69 -70l-299 -297z" />
    <glyph glyph-name="scedilla" unicode="&#x15f;" horiz-adv-x="1472" 
d="M795 -27q-152 0 -278 25t-226 77.5t-157 141t-58 207.5h297q14 -96 131.5 -147.5t290.5 -51.5q150 0 228.5 33t78.5 76v12q0 35 -55 51q-32 10 -138 25l-383 59q-102 16 -173 38.5t-124 59.5t-78.5 91t-25.5 129v18q0 170 146 255t423 85q278 0 446.5 -98.5t190.5 -280.5
h-299q-28 65 -127 97t-231 32q-260 0 -260 -80v-12q0 -33 50 -50t148 -32l432 -67q170 -27 257.5 -96.5t87.5 -196.5v-31q0 -369 -594 -369zM610 -397l299 299l70 -70l-299 -297z" />
    <glyph glyph-name="Scaron" unicode="&#x160;" horiz-adv-x="1984" 
d="M1923 385q0 -200 -220 -306t-638 -106q-210 0 -384.5 35.5t-309 106.5t-211.5 188t-82 270h315q56 -309 670 -309q295 1 420 37.5t125 106.5v28q0 53 -48.5 77.5t-164.5 43.5l-705 107q-259 38 -408 140t-149 261v55q0 171 110 242.5t332 71.5h226l-926 563l49 84
l938 -578l443 273l49 -86l-424 -256h266l289 -291h-1047q0 -83 103.5 -132t316.5 -81l619 -94q446 -67 446 -363v-88z" />
    <glyph glyph-name="scaron" unicode="&#x161;" horiz-adv-x="1472" 
d="M1389 342q0 -369 -594 -369q-152 0 -278 25t-226 77.5t-157 141t-58 207.5h297q14 -96 131.5 -147.5t290.5 -51.5q150 0 228.5 33t78.5 76v12q0 35 -55 51q-32 10 -138 25l-383 59q-102 16 -173 38.5t-124 59.5t-78.5 91t-25.5 129v18q0 152 118 236.5t343 99.5l-881 537
l49 84l938 -578l443 272l49 -86l-381 -229q232 -19 370 -115t158 -260h-299q-28 65 -127 97t-231 32q-260 0 -260 -80v-12q0 -33 50 -50t148 -32l432 -67q170 -27 257.5 -96.5t87.5 -196.5v-31z" />
    <glyph glyph-name="uni0162" unicode="&#x162;" horiz-adv-x="2031" 
d="M72 1143v291h1888v-291h-782v-1143h-324v1143h-782zM582 -422l510 318h178l-510 -318h-178z" />
    <glyph glyph-name="uni0163" unicode="&#x163;" horiz-adv-x="1282" 
d="M1255 860h-647v-450l621 -410h-520l-406 268v592h-256v266h256v308h305v-308h389zM535 -422l509 318h179l-510 -318h-178z" />
    <glyph glyph-name="Tcaron" unicode="&#x164;" horiz-adv-x="2031" 
d="M1505 1690l-424 -256h879v-291h-782v-1143h-324v1143h-782v291h880l-925 563l49 84l938 -578l442 273z" />
    <glyph glyph-name="tcaron" unicode="&#x165;" horiz-adv-x="1282" 
d="M711 1200v422h102v-422h-102zM1255 860h-647v-450l621 -410h-520l-406 268v592h-256v266h256v308h305v-308h389z" />
    <glyph glyph-name="Tbar" unicode="&#x166;" horiz-adv-x="2031" 
d="M72 1143v291h1888v-291h-782v-381h864v-92h-864v-670h-324v670h-864v92h864v381h-782z" />
    <glyph glyph-name="tbar" unicode="&#x167;" horiz-adv-x="1282" 
d="M1923 584h-1315v-174l621 -410h-520l-406 268v316h-256v102h256v174h-256v266h256v308h305v-308h389l258 -266h-647v-174h1315v-102z" />
    <glyph glyph-name="Utilde" unicode="&#x168;" horiz-adv-x="2191" 
d="M2052 705q0 -732 -956 -732q-168 0 -307 22.5t-262 76t-207 136t-132.5 208.5t-48.5 289v729h279l522 276l162 -117l715 383l47 -88l-768 -411l-162 116l-471 -250v-643q0 -82 21 -148.5t55 -112t86 -79t105 -53t120 -31t124 -15t124 -3.5t124 3.5t123.5 15t119 31
t104 53t85 79t54.5 112t21 148.5v734h323v-729z" />
    <glyph glyph-name="utilde" unicode="&#x169;" horiz-adv-x="1646" 
d="M1178 0v248q-87 -115 -228.5 -195t-296.5 -80q-244 0 -382 146t-138 397v602l-45 -24l-47 88l610 323l162 -116l715 383l47 -89l-768 -411l-162 117l-495 -263h288v-548q0 -183 68.5 -252.5t243.5 -69.5q108 0 223 38t205 95v737h305v-1126h-305z" />
    <glyph glyph-name="Umacron" unicode="&#x16a;" horiz-adv-x="2191" 
d="M643 1638h1569v-102h-1569v102zM463 700q0 -82 21 -148.5t55 -112t86 -79t105 -53t120 -31t124 -15t124 -3.5t124 3.5t123.5 15t119 31t104 53t85 79t54.5 112t21 148.5v734h323v-729q0 -732 -956 -732q-168 0 -307 22.5t-262 76t-207 136t-132.5 208.5t-48.5 289v729
h324v-734z" />
    <glyph glyph-name="umacron" unicode="&#x16b;" horiz-adv-x="1646" 
d="M354 1434h1569v-103h-1569v103zM1178 0v248q-87 -115 -228.5 -195t-296.5 -80q-244 0 -382 146t-138 397v610h305v-548q0 -183 68.5 -252.5t243.5 -69.5q108 0 223 38t205 95v737h305v-1126h-305z" />
    <glyph glyph-name="Ubreve" unicode="&#x16c;" horiz-adv-x="2191" 
d="M1321 1536h-451q-133 0 -190 61t-57 177h106q0 -26 2 -42.5t9.5 -36t22 -31t41.5 -19t66 -7.5h451q39 0 66 7.5t41.5 19t22 31t9.5 36t2 42.5v292h107v-292q0 -115 -57.5 -176.5t-190.5 -61.5zM463 700q0 -82 21 -148.5t55 -112t86 -79t105 -53t120 -31t124 -15t124 -3.5
t124 3.5t123.5 15t119 31t104 53t85 79t54.5 112t21 148.5v734h323v-729q0 -732 -956 -732q-168 0 -307 22.5t-262 76t-207 136t-132.5 208.5t-48.5 289v729h324v-734z" />
    <glyph glyph-name="ubreve" unicode="&#x16d;" horiz-adv-x="1646" 
d="M1032 1331h-450q-133 0 -190.5 61.5t-57.5 176.5h106q0 -32 4 -52t17 -41.5t43 -31.5t78 -10h450q48 0 78 10t43 31.5t17 41.5t4 52v293h106v-293q0 -115 -57.5 -176.5t-190.5 -61.5zM1178 0v248q-87 -115 -228.5 -195t-296.5 -80q-244 0 -382 146t-138 397v610h305v-548
q0 -183 68.5 -252.5t243.5 -69.5q108 0 223 38t205 95v737h305v-1126h-305z" />
    <glyph glyph-name="Uring" unicode="&#x16e;" horiz-adv-x="2191" 
d="M1597 1370q0 -135 -67 -250t-182.5 -182.5t-251.5 -67.5q-135 0 -250 67.5t-182.5 182.5t-67.5 250q0 136 67.5 251.5t182.5 183t250 67.5q136 0 251.5 -67.5t182.5 -183t67 -251.5zM688 1370q0 -169 119.5 -288t288.5 -119q170 0 289.5 119t119.5 288q0 170 -119.5 290
t-289.5 120q-169 0 -288.5 -120t-119.5 -290zM463 700q0 -82 21 -148.5t55 -112t86 -79t105 -53t120 -31t124 -15t124 -3.5t124 3.5t123.5 15t119 31t104 53t85 79t54.5 112t21 148.5v734h323v-729q0 -732 -956 -732q-168 0 -307 22.5t-262 76t-207 136t-132.5 208.5
t-48.5 289v729h324v-734z" />
    <glyph glyph-name="uring" unicode="&#x16f;" horiz-adv-x="1646" 
d="M1309 1534q0 -135 -67.5 -250t-183 -182.5t-251.5 -67.5q-135 0 -250 67.5t-182.5 182.5t-67.5 250q0 136 67.5 251.5t182.5 183t250 67.5q136 0 251.5 -67.5t183 -183t67.5 -251.5zM399 1534q0 -169 119.5 -288.5t288.5 -119.5q170 0 290 119.5t120 288.5
q0 170 -120 290t-290 120q-169 0 -288.5 -120t-119.5 -290zM1178 0v248q-87 -115 -228.5 -195t-296.5 -80q-244 0 -382 146t-138 397v610h305v-548q0 -183 68.5 -252.5t243.5 -69.5q108 0 223 38t205 95v737h305v-1126h-305z" />
    <glyph glyph-name="Uhungarumlaut" unicode="&#x170;" horiz-adv-x="2191" 
d="M2052 705q0 -732 -956 -732q-168 0 -307 22.5t-262 76t-207 136t-132.5 208.5t-48.5 289v729h252l1985 542l24 -92l-1937 -530v-654q0 -82 21 -148.5t55 -112t86 -79t105 -53t120 -31t124 -15t124 -3.5t124 3.5t123.5 15t119 31t104 53t85 79t54.5 112t21 148.5v734h323
v-729zM2376 1776l24 -93l-508 -139l-24 92z" />
    <glyph glyph-name="uhungarumlaut" unicode="&#x171;" horiz-adv-x="1646" 
d="M1178 0v248q-87 -115 -228.5 -195t-296.5 -80q-244 0 -382 146t-138 397v584l-27 -8l-24 92l2148 588l25 -93l-2022 -553h205v-548q0 -183 68.5 -252.5t243.5 -69.5q108 0 223 38t205 95v737h305v-1126h-305zM2230 1571l25 -92l-1079 -297l-25 92z" />
    <glyph glyph-name="Uogonek" unicode="&#x172;" horiz-adv-x="2191" 
d="M2052 705q0 -591 -627 -705v-422h-102v408q-117 -13 -227 -13q-168 0 -307 22.5t-262 76t-207 136t-132.5 208.5t-48.5 289v729h324v-734q0 -82 21 -148.5t55 -112t86 -79t105 -53t120 -31t124 -15t124 -3.5t124 3.5t123.5 15t119 31t104 53t85 79t54.5 112t21 148.5v734
h323v-729z" />
    <glyph glyph-name="uogonek" unicode="&#x173;" horiz-adv-x="1646" 
d="M1380 -422v422h-202v248q-87 -115 -228.5 -195t-296.5 -80q-244 0 -382 146t-138 397v610h305v-548q0 -183 68.5 -252.5t243.5 -69.5q108 0 223 38t205 95v737h305v-1548h-103z" />
    <glyph glyph-name="Wcircumflex" unicode="&#x174;" horiz-adv-x="2527" 
d="M1583 0l-319 809l-320 -809h-571l-287 1434h283l895 544l489 -295l-49 -86l-442 273l-826 -508l246 -1231l399 995h365l399 -995l260 1303h336l-287 -1434h-571z" />
    <glyph glyph-name="wcircumflex" unicode="&#x175;" horiz-adv-x="2023" 
d="M1239 0l-227 600l-228 -600h-520l-219 1126h4l-26 45l989 603l489 -295l-49 -86l-442 272l-875 -539h234l178 -952l465 1106l465 -1106l178 952h323l-219 -1126h-520z" />
    <glyph glyph-name="Ycircumflex" unicode="&#x176;" horiz-adv-x="2105" 
d="M1217 604v-604h-324v604l-903 830h391l899 546l489 -294l-49 -87l-442 273l-784 -483l561 -521l606 566h455z" />
    <glyph glyph-name="ycircumflex" unicode="&#x177;" horiz-adv-x="1509" 
d="M1200 1393l-442 272l-938 -578l-49 84l989 603l489 -295zM1159 1126h350l-815 -1548h-350l221 422h-213l-317 1126h325l279 -989z" />
    <glyph glyph-name="Ydieresis" unicode="&#x178;" horiz-adv-x="2105" 
d="M793 1534v422h106v-422h-106zM1227 1741h422v-103h-422v103zM1217 604v-604h-324v604l-903 830h456l609 -566l606 566h455z" />
    <glyph glyph-name="Zacute" unicode="&#x179;" 
d="M1968 291v-291h-1732v291l1116 852h-1301v291h320l1984 542l25 -92l-1647 -450h1079v-291l-1116 -852h1272z" />
    <glyph glyph-name="zacute" unicode="&#x17a;" horiz-adv-x="1470" 
d="M1444 0h-1211v266l707 594h-862v262l-109 -30l-24 92l2148 588l25 -93l-2022 -553h1213v-266l-707 -594h842v-266z" />
    <glyph glyph-name="Zdotaccent" unicode="&#x17b;" 
d="M881 1534v422h102v-422h-102zM1968 291v-291h-1732v291l1116 852h-1301v291h1761v-291l-1116 -852h1272z" />
    <glyph glyph-name="zdotaccent" unicode="&#x17c;" horiz-adv-x="1470" 
d="M618 1227v422h103v-422h-103zM1444 0h-1211v266l707 594h-862v266h1231v-266l-707 -594h842v-266z" />
    <glyph glyph-name="Zcaron" unicode="&#x17d;" 
d="M1968 291v-291h-1732v291l1116 852h-1301v291h817l-925 563l49 84l938 -578l442 273l49 -86l-424 -256h815v-291l-1116 -852h1272z" />
    <glyph glyph-name="zcaron" unicode="&#x17e;" horiz-adv-x="1470" 
d="M1444 0h-1211v266l707 594h-862v266h528l-925 564l49 84l938 -578l442 272l49 -86l-424 -256h574v-266l-707 -594h842v-266z" />
    <glyph glyph-name="uni018F" unicode="&#x18f;" horiz-adv-x="2285" 
d="M2183 672q0 -150 -47.5 -267t-135 -198t-217 -133.5t-287.5 -76.5t-353 -24q-1041 0 -1041 699v104q0 42 7 96h1751q-13 53 -43 95t-68.5 70.5t-94 49.5t-110 32.5t-127 18.5t-133.5 9t-141 2h-678l274 285h404q206 0 364 -19.5t288 -66.5t214 -122t129 -187.5t45 -262.5
v-104zM1143 258q108 0 199.5 8t183 30.5t158 59t115 96t63.5 138.5h-1438q15 -79 63.5 -138.5t115 -96t158 -59t183 -30.5t199.5 -8z" />
    <glyph glyph-name="Scommaaccent" unicode="&#x218;" horiz-adv-x="1984" 
d="M690 664q-259 38 -408 140t-149 261v55q0 171 110 242.5t332 71.5h621l289 -291h-1047q0 -83 103.5 -132t316.5 -81l619 -94q446 -67 446 -363v-88q0 -200 -220 -306t-638 -106q-210 0 -384.5 35.5t-309 106.5t-211.5 188t-82 270h315q56 -309 670 -309q295 1 420 37.5
t125 106.5v28q0 53 -48.5 77.5t-164.5 43.5zM631 -422l510 318h178l-510 -318h-178z" />
    <glyph glyph-name="scommaaccent" unicode="&#x219;" horiz-adv-x="1472" 
d="M795 -27q-152 0 -278 25t-226 77.5t-157 141t-58 207.5h297q14 -96 131.5 -147.5t290.5 -51.5q150 0 228.5 33t78.5 76v12q0 35 -55 51q-32 10 -138 25l-383 59q-102 16 -173 38.5t-124 59.5t-78.5 91t-25.5 129v18q0 170 146 255t423 85q278 0 446.5 -98.5t190.5 -280.5
h-299q-28 65 -127 97t-231 32q-260 0 -260 -80v-12q0 -33 50 -50t148 -32l432 -67q170 -27 257.5 -96.5t87.5 -196.5v-31q0 -369 -594 -369zM360 -422l510 318h179l-510 -318h-179z" />
    <glyph glyph-name="Tcommaaccent" unicode="&#x21a;" horiz-adv-x="2031" 
d="M72 1143v291h1888v-291h-782v-1143h-324v1143h-782zM582 -422l510 318h178l-510 -318h-178z" />
    <glyph glyph-name="tcommaaccent" unicode="&#x21b;" horiz-adv-x="1282" 
d="M1255 860h-647v-450l621 -410h-520l-406 268v592h-256v266h256v308h305v-308h389zM535 -422l509 318h179l-510 -318h-178z" />
    <glyph glyph-name="uni0232" unicode="&#x232;" horiz-adv-x="2105" 
d="M602 1638h1569v-102h-1569v102zM1217 604v-604h-324v604l-903 830h456l609 -566l606 566h455z" />
    <glyph glyph-name="uni0233" unicode="&#x233;" horiz-adv-x="1509" 
d="M307 1434h1569v-103h-1569v103zM1159 1126h350l-815 -1548h-350l221 422h-213l-317 1126h325l279 -989z" />
    <glyph glyph-name="dotlessj" unicode="&#x237;" horiz-adv-x="1114" 
d="M31 860v266h919v-989q0 -297 -179.5 -428t-534.5 -131v272q193 0 301 77t108 210v723h-614z" />
    <glyph glyph-name="uni0259" unicode="&#x259;" horiz-adv-x="1560" 
d="M1468 584q0 -185 -90.5 -317t-253 -197.5t-381.5 -65.5q-321 0 -501.5 145.5t-180.5 423.5v101h1115q-17 116 -127 168.5t-310 52.5h-477l262 266h205q372 0 555.5 -127t183.5 -405v-45zM750 262q163 0 265.5 52t141.5 147h-760q46 -199 353 -199z" />
    <glyph glyph-name="circumflex" unicode="&#x2c6;" horiz-adv-x="1478" 
d="M1430 1393l-443 272l-938 -578l-49 84l989 603l490 -295z" />
    <glyph glyph-name="caron" unicode="&#x2c7;" horiz-adv-x="1478" 
d="M1479 1382l-490 -295l-989 603l49 84l938 -578l443 272z" />
    <glyph glyph-name="breve" unicode="&#x2d8;" horiz-adv-x="946" 
d="M698 1331h-450q-133 0 -190.5 61.5t-57.5 176.5h106q0 -32 4 -52t17 -41.5t43 -31.5t78 -10h450q48 0 78 10t43 31.5t17 41.5t4 52v293h106v-293q0 -115 -57.5 -176.5t-190.5 -61.5z" />
    <glyph glyph-name="dotaccent" unicode="&#x2d9;" horiz-adv-x="102" 
d="M0 1227v422h102v-422h-102z" />
    <glyph glyph-name="ring" unicode="&#x2da;" horiz-adv-x="1206" 
d="M1104 1841q0 -135 -67.5 -250t-183 -182.5t-251.5 -67.5q-135 0 -250 67.5t-182.5 182.5t-67.5 250q0 136 67.5 251.5t182.5 183t250 67.5q136 0 251.5 -67.5t183 -183t67.5 -251.5zM195 1841q0 -169 119 -288t288 -119q170 0 290 119t120 288q0 170 -120 290t-290 120
q-169 0 -288 -120t-119 -290z" />
    <glyph glyph-name="ogonek" unicode="&#x2db;" horiz-adv-x="102" 
d="M102 -422h-102v422h102v-422z" />
    <glyph glyph-name="tilde" unicode="&#x2dc;" horiz-adv-x="1533" 
d="M1487 1772l47 -89l-768 -411l-162 117l-557 -295l-47 88l610 323l162 -116z" />
    <glyph glyph-name="hungarumlaut" unicode="&#x2dd;" horiz-adv-x="2172" 
d="M2148 1772l25 -93l-2148 -587l-25 92zM2148 1571l25 -92l-1079 -297l-25 92z" />
    <glyph glyph-name="Wgrave" unicode="&#x1e80;" horiz-adv-x="2527" 
d="M1964 1296l-2148 588l24 92l2149 -587zM1583 0l-319 809l-320 -809h-571l-287 1434h336l260 -1303l399 995h365l399 -995l260 1303h336l-287 -1434h-571z" />
    <glyph glyph-name="wgrave" unicode="&#x1e81;" horiz-adv-x="2023" 
d="M1239 0l-227 600l-228 -600h-520l-219 1126h324l178 -952l465 1106l465 -1106l174 934l-2087 571l24 93l2149 -588l-15 -58h256l-219 -1126h-520z" />
    <glyph glyph-name="Wacute" unicode="&#x1e82;" horiz-adv-x="2527" 
d="M2687 1976l25 -92l-2149 -588l-24 93zM1583 0l-319 809l-320 -809h-571l-287 1434h336l260 -1303l399 995h365l399 -995l260 1303h336l-287 -1434h-571z" />
    <glyph glyph-name="wacute" unicode="&#x1e83;" horiz-adv-x="2023" 
d="M1239 0l-227 600l-228 -600h-520l-219 1126h256l-14 58l2148 588l25 -93l-2087 -571l174 -934l465 1106l465 -1106l178 952h323l-219 -1126h-520z" />
    <glyph glyph-name="Wdieresis" unicode="&#x1e84;" horiz-adv-x="2527" 
d="M1001 1534v422h107v-422h-107zM1436 1741h422v-103h-422v103zM1583 0l-319 809l-320 -809h-571l-287 1434h336l260 -1303l399 995h365l399 -995l260 1303h336l-287 -1434h-571z" />
    <glyph glyph-name="wdieresis" unicode="&#x1e85;" horiz-adv-x="2023" 
d="M750 1227v422h106v-422h-106zM1184 1434h422v-103h-422v103zM1239 0l-227 600l-228 -600h-520l-219 1126h324l178 -952l465 1106l465 -1106l178 952h323l-219 -1126h-520z" />
    <glyph glyph-name="uni1ECA" unicode="&#x1eca;" horiz-adv-x="1683" 
d="M123 1143v291h1438v-291h-557v-852h557v-291h-1438v291h557v852h-557zM791 -422v322h102v-322h-102z" />
    <glyph glyph-name="uni1ECB" unicode="&#x1ecb;" horiz-adv-x="632" 
d="M164 1561h741v-252h-741v252zM164 1126h305v-1126h-305v1126zM264 -422v322h103v-322h-103z" />
    <glyph glyph-name="uni1ECC" unicode="&#x1ecc;" horiz-adv-x="2285" 
d="M102 776q0 699 1041 699q195 0 353 -24t287.5 -76.5t217 -133.5t135 -198t47.5 -267v-104q0 -150 -47.5 -267t-135 -198t-217 -133.5t-287.5 -76.5t-353 -24q-1041 0 -1041 699v104zM1870 776q0 99 -41.5 174t-108 120t-164 72.5t-196 37.5t-217.5 10t-217.5 -10
t-196 -37.5t-164 -72.5t-108 -120t-41.5 -174v-104q0 -99 41.5 -174t108 -120t164 -72.5t196 -37.5t217.5 -10t217.5 10t196 37.5t164 72.5t108 120t41.5 174v104zM1092 -422v322h102v-322h-102z" />
    <glyph glyph-name="uni1ECD" unicode="&#x1ecd;" horiz-adv-x="1724" 
d="M1632 532q0 -184 -94 -310t-265 -187.5t-411 -61.5t-411 61.5t-265 187.5t-94 310v66q0 184 94 310t265 187.5t411 61.5t411 -61.5t265 -187.5t94 -310v-66zM1343 532v66q0 141 -128.5 214t-352.5 73t-352.5 -73t-128.5 -214v-66q0 -141 128 -213.5t353 -72.5t353 72.5
t128 213.5zM811 -422v322h102v-322h-102z" />
    <glyph glyph-name="uni1EE4" unicode="&#x1ee4;" horiz-adv-x="2191" 
d="M463 700q0 -82 21 -148.5t55 -112t86 -79t105 -53t120 -31t124 -15t124 -3.5t124 3.5t123.5 15t119 31t104 53t85 79t54.5 112t21 148.5v734h323v-729q0 -732 -956 -732q-168 0 -307 22.5t-262 76t-207 136t-132.5 208.5t-48.5 289v729h324v-734zM1044 -422v322h103v-322
h-103z" />
    <glyph glyph-name="uni1EE5" unicode="&#x1ee5;" horiz-adv-x="1646" 
d="M1178 0v248q-87 -115 -228.5 -195t-296.5 -80q-244 0 -382 146t-138 397v610h305v-548q0 -183 68.5 -252.5t243.5 -69.5q108 0 223 38t205 95v737h305v-1126h-305zM756 -422v322h102v-322h-102z" />
    <glyph glyph-name="Ygrave" unicode="&#x1ef2;" horiz-adv-x="2105" 
d="M1217 604v-604h-324v604l-903 830h456l609 -566l540 506l-1865 510l24 92l1985 -542h377z" />
    <glyph glyph-name="ygrave" unicode="&#x1ef3;" horiz-adv-x="1509" 
d="M1509 1126l-815 -1548h-350l221 422h-213l-317 1126h325l279 -989l508 967l-2101 575l24 93l2149 -588l-15 -58h305z" />
    <glyph glyph-name="uni2007" unicode="&#x2007;" horiz-adv-x="2277" 
 />
    <glyph glyph-name="uni2008" unicode="&#x2008;" horiz-adv-x="876" 
 />
    <glyph glyph-name="uni2009" unicode="&#x2009;" horiz-adv-x="143" 
 />
    <glyph glyph-name="uni200B" unicode="&#x200b;" horiz-adv-x="0" 
 />
    <glyph glyph-name="endash" unicode="&#x2013;" horiz-adv-x="1677" 
d="M1534 467h-1391v293h1391v-293z" />
    <glyph glyph-name="emdash" unicode="&#x2014;" horiz-adv-x="2643" 
d="M2501 467h-2358v293h2358v-293z" />
    <glyph glyph-name="quoteleft" unicode="&#x2018;" horiz-adv-x="696" 
d="M686 1434l-354 -889h-322l355 889h321z" />
    <glyph glyph-name="quoteright" unicode="&#x2019;" horiz-adv-x="696" 
d="M686 1434l-354 -889h-322l355 889h321z" />
    <glyph glyph-name="quotesinglbase" unicode="&#x201a;" horiz-adv-x="696" 
d="M686 467l-354 -889h-322l355 889h321z" />
    <glyph glyph-name="quotedblleft" unicode="&#x201c;" horiz-adv-x="1255" 
d="M1245 1434l-354 -889h-322l355 889h321zM686 1434l-354 -889h-322l355 889h321z" />
    <glyph glyph-name="quotedblright" unicode="&#x201d;" horiz-adv-x="1255" 
d="M1245 1434l-354 -889h-322l355 889h321zM686 1434l-354 -889h-322l355 889h321z" />
    <glyph glyph-name="quotedblbase" unicode="&#x201e;" horiz-adv-x="1255" 
d="M686 467l-354 -889h-322l355 889h321zM1245 467l-354 -889h-322l355 889h321z" />
    <glyph glyph-name="bullet" unicode="&#x2022;" horiz-adv-x="1261" 
d="M287 614q0 142 100.5 243t243.5 101t243.5 -101t100.5 -243t-100.5 -243t-243.5 -101t-243.5 101t-100.5 243z" />
    <glyph glyph-name="ellipsis" unicode="&#x2026;" horiz-adv-x="1499" 
d="M102 590h295v-590h-295v590zM602 590h295v-590h-295v590zM1102 590h295v-590h-295v590z" />
    <glyph glyph-name="guilsinglleft" unicode="&#x2039;" horiz-adv-x="733" 
d="M600 315v-342l-457 342v500l457 342v-342l-334 -250z" />
    <glyph glyph-name="guilsinglright" unicode="&#x203a;" horiz-adv-x="733" 
d="M590 315l-457 -342v342l334 250l-334 250v342l457 -342v-500z" />
    <glyph glyph-name="Euro" unicode="&#x20ac;" horiz-adv-x="2101" 
d="M1884 39q-223 -66 -545 -66q-228 0 -406 33t-314 103.5t-215.5 186.5t-98.5 275h-244l33 93h205v8v98h-168l33 92h139q62 613 1036 613q398 0 643 -101l-98 -284q-178 100 -545 100q-108 0 -198.5 -8t-181.5 -30.5t-157.5 -58t-115 -94.5t-65.5 -137h1185l-32 -92h-1162
v-98v-8h1125l-33 -93h-1079q24 -92 91.5 -156t169.5 -97t210.5 -46.5t242.5 -13.5q367 0 545 100v-319z" />
    <glyph glyph-name="minus" unicode="&#x2212;" horiz-adv-x="1218" 
d="M1014 567h-809v92h809v-92z" />
    <glyph glyph-name="dot" unicode="&#x27d1;" horiz-adv-x="495" 
d="M-123 1561h741v-252h-741v252z" />
    <glyph glyph-name="commaaccent" unicode="&#xf6c3;" horiz-adv-x="688" 
d="M0 -422l510 318h178l-510 -318h-178z" />
    <glyph glyph-name="uniFB00" unicode="&#xfb00;" horiz-adv-x="2293" 
d="M1096 860v266h192q0 67 19 129l-396 52q-321 0 -321 -181h373v-266h-373v-860h-305v860h-224v266h224q0 197 139.5 316t388.5 119h344l197 -201q63 95 181.5 148t281.5 53h344l317 -326l-563 72q-322 0 -322 -181h582v-266h-582v-860h-305v860h-192z" />
    <glyph glyph-name="fi" unicode="&#xfb01;" horiz-adv-x="1757" 
d="M61 860v266h224q0 197 139.5 316t388.5 119h344l318 -326l-564 72q-321 0 -321 -181h493v-266h-493v-860h-305v860h-224zM1464 1561h566v-252h-566v252zM1288 1126h305v-1126h-305v1126z" />
    <glyph glyph-name="fl" unicode="&#xfb02;" horiz-adv-x="1757" 
d="M61 860v266h224q0 197 139.5 316t388.5 119h344l436 -449v-1112h-305v1260l-377 47q-321 0 -321 -181h493v-266h-493v-860h-305v860h-224z" />
    <glyph glyph-name="uniFB03" unicode="&#xfb03;" horiz-adv-x="2760" 
d="M1096 860v266h192q0 67 19 129l-396 52q-321 0 -321 -181h373v-266h-373v-860h-305v860h-224v266h224q0 197 139.5 316t388.5 119h344l197 -201q63 95 181.5 148t281.5 53h344l317 -326l-563 72q-322 0 -322 -181h494v-266h-494v-860h-305v860h-192zM2468 1561h565v-252
h-565v252zM2292 1126h305v-1126h-305v1126z" />
    <glyph glyph-name="uniFB04" unicode="&#xfb04;" horiz-adv-x="2760" 
d="M1096 860v266h192q0 67 19 129l-396 52q-321 0 -321 -181h373v-266h-373v-860h-305v860h-224v266h224q0 197 139.5 316t388.5 119h344l197 -201q63 95 181.5 148t281.5 53h344l436 -449v-1112h-305v1260l-377 47q-322 0 -322 -181h494v-266h-494v-860h-305v860h-192z" />
    <glyph glyph-name="uniFEFF" unicode="&#xfeff;" horiz-adv-x="0" 
 />
    <glyph glyph-name="CR" horiz-adv-x="716" 
 />
    <glyph glyph-name="L_periodcentered" horiz-adv-x="1722" 
d="M1630 291v-291h-1476v1434h323v-1143h1153zM1110 680v422h102v-422h-102z" />
    <glyph glyph-name="l_periodcentered" horiz-adv-x="735" 
d="M164 1561h305v-1561h-305v1561zM633 680v422h102v-422h-102z" />
    <glyph glyph-name="apple" horiz-adv-x="2267" 
d="M1206 514v-168l514 47q74 7 74 62l-61 59h-13h-514zM637 1303h-332v-125h332q34 0 53 18t19 45q0 28 -18.5 45t-53.5 17zM1720 1303h-514v-168l514 47q74 7 74 61q0 60 -74 60zM715 1055h-410v-135h410q32 0 54 18.5t22 48.5q0 31 -22 49.5t-54 18.5zM1063 645h532
l-383 367h-6v-224h-143v152l-141 -315q112 -45 112 -170q0 -91 -57.5 -134t-169.5 -53l-170 -14l426 -197v588zM817 514h-512v-168l512 47q74 7 74 62q0 59 -74 59zM1366 2005l-221 -571h287l452 464l-182 -313l133 10l-119 -161q103 -2 163 -53t60 -138q0 -91 -58 -133.5
t-171 -52.5l-31 -2l762 -1219l-534 510q-51 -65 -197 -78l-35 -4l193 -633l-527 605l-135 -13v-223h-309l-504 231l-88 -8v-223h-145v645h526l45 143h-12h-559v646h471q93 0 153 -51t60 -126q0 -17 -8 -49l4 4l106 332l-282 -84l665 1276l-264 -819z" />
    <glyph glyph-name="dotaccent.low" horiz-adv-x="102" 
d="M0 -422v322h102v-322h-102z" />
    <glyph glyph-name="caron.slovak" horiz-adv-x="102" 
d="M0 1139v422h102v-422h-102z" />
    <glyph glyph-name="commaaccent.top" horiz-adv-x="1081" 
d="M0 1231l903 561h178l-903 -561h-178z" />
    <glyph glyph-name="dieresis.i" horiz-adv-x="856" 
d="M0 1227v422h106v-422h-106zM434 1434h422v-103h-422v103z" />
    <glyph glyph-name="acute.case" horiz-adv-x="2172" 
d="M2148 1976l25 -92l-2148 -588l-25 93z" />
    <glyph glyph-name="breve.case" horiz-adv-x="946" 
d="M698 1536h-450q-133 0 -190.5 61.5t-57.5 176.5h106q0 -32 4 -52.5t17 -42t43 -31.5t78 -10h450q48 0 78 10t43 31.5t17 42t4 52.5v292h106v-292q0 -115 -57.5 -176.5t-190.5 -61.5z" />
    <glyph glyph-name="caron.case" horiz-adv-x="1478" 
d="M1479 1690l-490 -295l-989 602l49 84l938 -578l443 273z" />
    <glyph glyph-name="cedilla.case" horiz-adv-x="368" 
d="M0 -397l299 299l70 -70l-299 -297z" />
    <glyph glyph-name="circumflex.case" horiz-adv-x="1478" 
d="M1430 1597l-443 273l-938 -578l-49 84l989 602l490 -295z" />
    <glyph glyph-name="dieresis.case" horiz-adv-x="856" 
d="M0 1534v422h106v-422h-106zM434 1741h422v-103h-422v103z" />
    <glyph glyph-name="dotaccent.case" horiz-adv-x="102" 
d="M0 1534v422h102v-422h-102z" />
    <glyph glyph-name="grave.case" horiz-adv-x="2172" 
d="M2148 1296l-2148 588l25 92l2148 -587z" />
    <glyph glyph-name="hungarumlaut.case" horiz-adv-x="2172" 
d="M2148 1976l25 -92l-2148 -588l-25 93zM2148 1776l25 -93l-508 -139l-25 92z" />
    <glyph glyph-name="macron.case" horiz-adv-x="1568" 
d="M0 1638h1569v-102h-1569v102z" />
    <glyph glyph-name="ogonek.case" horiz-adv-x="102" 
d="M102 -422h-102v422h102v-422z" />
    <glyph glyph-name="ring.case" horiz-adv-x="1206" 
d="M1104 1370q0 -135 -67.5 -250t-183 -182.5t-251.5 -67.5q-135 0 -250 67.5t-182.5 182.5t-67.5 250q0 136 67.5 251.5t182.5 183t250 67.5q136 0 251.5 -67.5t183 -183t67.5 -251.5zM195 1370q0 -169 119 -288t288 -119q170 0 290 119t120 288q0 170 -120 290t-290 120
q-169 0 -288 -120t-119 -290z" />
    <glyph glyph-name="tilde.case" horiz-adv-x="1533" 
d="M1487 1976l47 -88l-768 -411l-162 116l-557 -295l-47 88l610 324l162 -117z" />
    <glyph glyph-name="A.ss01" 
d="M1907 190v-321l-1784 575v547l1784 576v-322l-506 -160v-735zM246 719l852 -273v543z" />
    <glyph glyph-name="B.ss01" 
d="M1395 1659q101 0 192.5 -31t163 -90t114 -152t42.5 -208v-1178h-1784v967q0 111 43.5 207.5t115 161.5t163 102t188.5 37q115 0 192.5 -42.5t118.5 -109.5q37 151 167 243.5t284 92.5zM1157 1141v-850h426v850q0 96 -61.5 161.5t-151.5 65.5t-151.5 -65.5t-61.5 -161.5z
M446 971v-680h406v680q0 83 -58 148t-145 65t-145 -65t-58 -148z" />
    <glyph glyph-name="C.ss01" horiz-adv-x="1744" 
d="M1036 1317v307q276 -52 431 -260t155 -506v-283q0 -166 -51.5 -309t-145.5 -247.5t-236.5 -164t-316.5 -59.5q-231 0 -402.5 103t-259 278.5t-87.5 398.5v283q0 298 156.5 507t431.5 259v-307q-123 -49 -194 -167.5t-71 -270.5v-324q0 -201 116.5 -335t309.5 -134
t309.5 134t116.5 335v324q0 152 -69.5 269.5t-192.5 168.5z" />
    <glyph glyph-name="D.ss01" horiz-adv-x="1744" 
d="M872 1638q174 0 316.5 -59.5t236.5 -164t145.5 -247.5t51.5 -309v-858h-1499v858q0 223 87.5 398.5t259 278.5t402.5 103zM446 879v-588h852v588q0 201 -116.5 335t-309.5 134t-309.5 -134t-116.5 -335z" />
    <glyph glyph-name="E.ss01" 
d="M1583 1434h324v-1434h-1784v1434h323v-1143h410v807h318v-807h409v1143z" />
    <glyph glyph-name="F.ss01" 
d="M1907 291v-291h-1784v1434h323v-1143h410v807h318v-807h733z" />
    <glyph glyph-name="G.ss01" horiz-adv-x="1744" 
d="M1020 389h-297v1237q70 12 149 12q174 0 316.5 -59.5t236.5 -164t145.5 -247.5t51.5 -309v-283q0 -166 -51.5 -309t-145.5 -247.5t-236.5 -164t-316.5 -59.5q-231 0 -402.5 103t-259 278.5t-87.5 398.5v283q0 256 116 448.5t328 276.5v-364q-121 -133 -121 -340v-324
q0 -201 116.5 -335t309.5 -134t309.5 134t116.5 335v324q0 158 -74 278.5t-204 165.5v-934z" />
    <glyph glyph-name="H.ss01" 
d="M1907 291v-291h-1784v291h729v852h-729v291h1784v-291h-731v-852h731z" />
    <glyph glyph-name="I.ss01" 
d="M1585 0v569h-1136v-569h-324v1434h324v-568h1136v568h324v-1434h-324z" />
    <glyph glyph-name="J.ss01" 
d="M1178 0v291q198 0 320 115t122 311t-122 311t-320 115h-1055v291h1034q170 0 310 -43.5t246 -129t165 -224.5t59 -320q0 -143 -37.5 -260t-104.5 -200.5t-162 -141t-209 -85.5t-246 -30z" />
    <glyph glyph-name="K.ss01" 
d="M1907 291v-291h-1784v291h797l-797 936v444l690 -811l1094 615v-338l-899 -504l290 -342h609z" />
    <glyph glyph-name="L.ss01" 
d="M1583 1434h324v-1434h-1784v291h1460v1143z" />
    <glyph glyph-name="M.ss01" 
d="M123 362l1311 355l-1311 354v363h1784v-291h-1114l757 -199v-455l-757 -198h1114v-291h-1784v362z" />
    <glyph glyph-name="N.ss01" 
d="M123 1434h1784v-299l-1272 -844h1272v-291h-1784v299l1274 844h-1274v291z" />
    <glyph glyph-name="O.ss01" horiz-adv-x="1744" 
d="M872 1638q174 0 316.5 -59.5t236.5 -164t145.5 -247.5t51.5 -309v-283q0 -166 -51.5 -309t-145.5 -247.5t-236.5 -164t-316.5 -59.5q-231 0 -402.5 103t-259 278.5t-87.5 398.5v283q0 223 87.5 398.5t259 278.5t402.5 103zM872 1348q-193 0 -309.5 -134t-116.5 -335v-324
q0 -201 116.5 -335t309.5 -134t309.5 134t116.5 335v324q0 201 -116.5 335t-309.5 134z" />
    <glyph glyph-name="P.ss01" 
d="M1907 291v-291h-1784v885q0 165 78.5 300t217.5 212.5t308 77.5t308 -77.5t217.5 -212.5t78.5 -300v-594h576zM446 870v-579h562v579q0 137 -76 225.5t-205 88.5t-205 -88.5t-76 -225.5z" />
    <glyph glyph-name="Q.ss01" horiz-adv-x="1744" 
d="M1622 575q0 -166 -51.5 -309t-145.5 -247.5t-236.5 -164t-316.5 -59.5q-231 0 -402.5 103t-259 278.5t-87.5 398.5v283q0 223 87.5 398.5t259 278.5t402.5 103q252 0 431 -118l319 295v-394l-119 -110q119 -191 119 -453v-283zM446 879v-152l623 576q-88 45 -197 45
q-193 0 -309.5 -134t-116.5 -335zM1298 879q0 113 -38 206l-781 -723q46 -127 148 -201.5t245 -74.5q193 0 309.5 134t116.5 335v324z" />
    <glyph glyph-name="R.ss01" 
d="M1907 291v-291h-1784v948q0 121 46.5 222.5t122.5 167t171.5 101.5t195.5 36q211 0 341.5 -133.5t166.5 -372.5l11 -74l729 920v-480l-670 -846l31 -198h639zM446 932v-641h517l-97 653q-6 43 -18 80t-35 75.5t-62.5 61.5t-91.5 23q-99 0 -156 -70.5t-57 -181.5z" />
    <glyph glyph-name="S.ss01" 
d="M1450 1434q101 0 188.5 -44.5t154.5 -129t105.5 -217.5t38.5 -300q0 -186 -57.5 -337.5t-159.5 -252.5t-240.5 -156.5t-301.5 -57.5v290q195 0 318.5 143t123.5 371q0 186 -59.5 293t-133.5 107h-28q-52 0 -92 -59.5t-82 -178.5l-125 -348q-63 -175 -166.5 -303.5
t-216.5 -191t-225 -62.5h-56q-170 0 -241.5 110t-71.5 332v265l323 319v-735q89 0 200 122.5t179 311.5l95 262q79 221 182 334t260 113h88z" />
    <glyph glyph-name="T.ss01" 
d="M1907 569h-1461v-569h-323v1434h323v-568h1461v-297z" />
    <glyph glyph-name="U.ss01" 
d="M1178 291q198 0 320 115t122 311t-122 311t-320 115h-1055v291h1034q170 0 310 -43.5t246 -129t165 -224.5t59 -320t-59 -320t-165 -224.5t-246 -129t-310 -43.5h-1034v291h1055z" />
    <glyph glyph-name="V.ss01" 
d="M1907 451l-1784 -541v313l1665 496l-1665 493v314l1784 -541v-534z" />
    <glyph glyph-name="W.ss01" 
d="M1907 106l-1784 -188v297l1667 170l-948 141v381l948 142l-1667 170v297l1784 -189v-526l-699 -84l699 -84v-527z" />
    <glyph glyph-name="X.ss01" 
d="M1907 -27l-803 457l-981 -704v358l897 641l-897 639v358l981 -704l803 457v-345l-721 -405l721 -408v-344z" />
    <glyph glyph-name="Y.ss01" 
d="M1907 567h-774l-1010 -692v356l715 486l-715 483v356l1010 -692h774v-297z" />
    <glyph glyph-name="Z.ss01" horiz-adv-x="1679" 
d="M1253 0l-807 946v-1130h-323v1618h303l807 -947v1102h323v-1589h-303z" />
    <glyph glyph-name="A.ss02" horiz-adv-x="2234" 
d="M1300 -420q-44 -46 -112 -42.5t-123 56.5q-127 121 -127 381q0 81 18 148.5t43.5 111.5t51 81t43.5 76t18 79q0 48 -12.5 89.5t-27.5 70.5t-27.5 87.5t-12.5 137.5v297l-661 -1153h-351l824 1434h547l823 -1434h-350l-664 1157v-412q0 -61 19.5 -131t19.5 -143
q0 -46 -12.5 -86t-29.5 -69t-34.5 -57t-30 -63t-12.5 -75q0 -44 16.5 -78.5t43 -59t54 -46t54 -51t39.5 -62.5q58 -155 -27 -244z" />
    <glyph glyph-name="C.ss02" horiz-adv-x="2281" 
d="M416 776v-104q0 -99 41.5 -174t108 -120t164 -72.5t196 -37.5t217.5 -10q134 0 243 13.5t211.5 46.5t170 97.5t90.5 157.5h319q-68 -600 -1034 -600q-1041 0 -1041 699v104q0 141 40 258t109 194t160 119t193 42q84 0 147 -19.5t98.5 -51t60.5 -69t39.5 -75.5t28 -69.5
t34 -51t49.5 -19.5t55 27.5t47 72t44 98t52 107t64.5 98t89 72t117.5 27.5q81 0 164.5 -30t151.5 -78t128.5 -108t101.5 -120t65 -113.5t24 -89.5q0 -68 -45 -111.5t-111 -43.5q-68 0 -117.5 38t-74.5 111q-32 95 -76 173.5t-107.5 134t-130.5 55.5q-49 0 -87.5 -24.5
t-64 -64t-47.5 -87.5t-44 -95.5t-47.5 -87t-64 -64t-87.5 -24.5q-60 0 -102.5 31.5t-67 76.5t-47.5 89.5t-57 76t-82 31.5t-98 -29t-93 -82t-70.5 -138.5t-27.5 -186.5z" />
    <glyph glyph-name="E.ss02" horiz-adv-x="1886" 
d="M154 0v1434h1620v-291h-1297v-377q28 -4 47 -4q40 0 87 18t94 43.5t99 51t119.5 43.5t137.5 18q101 0 191.5 -33t148.5 -94q53 -55 56.5 -123.5t-42.5 -112.5t-116 -48t-128 22q-33 13 -62.5 39.5t-51 54t-46 54t-59 43t-78.5 16.5q-43 0 -86.5 -16.5t-74.5 -37t-82 -37
t-107 -16.5q-33 0 -47 2v-358h1297v-291h-1620z" />
    <glyph glyph-name="F.ss02" horiz-adv-x="1830" 
d="M154 0v1434h1620v-291h-1297v-328q14 2 47 2q46 0 86 -15.5t69 -37.5t57 -44.5t63 -38t75 -15.5q43 0 78 21t59.5 53t46 65.5t51 64t62.5 43.5q58 26 128 22t116 -48t42.5 -112.5t-56.5 -123.5q-68 -72 -164.5 -120t-216.5 -48q-81 0 -148.5 22t-111.5 53.5t-81 63.5
t-76 54t-79 22q-19 0 -47 -4v-694h-323z" />
    <glyph glyph-name="G.ss02" horiz-adv-x="2285" 
d="M416 776v-104q0 -99 41.5 -174t108 -120t164 -72.5t196 -37.5t217.5 -10q108 0 198.5 8t182 30.5t158 58t115 94.5t65.5 137h-1088v284h1409v-198q0 -150 -47.5 -267t-135 -198t-217 -133.5t-287.5 -76.5t-353 -24q-1041 0 -1041 699v104q0 284 147 444t386 160
q79 0 137.5 -12.5t87.5 -27.5t70.5 -27.5t89.5 -12.5q40 0 79 18t76 44t81 51.5t111.5 43.5t148.5 18q259 0 380 -127q54 -55 57.5 -123.5t-42.5 -112.5q-89 -85 -244 -27q-33 13 -62.5 39.5t-51 54t-46 54t-59 43t-78.5 16.5q-48 0 -92.5 -18.5t-74 -40.5t-78.5 -40.5
t-105 -18.5q-72 0 -143 19t-132 19q-59 0 -116.5 -29t-105.5 -82t-77.5 -138t-29.5 -187z" />
    <glyph glyph-name="L.ss02" horiz-adv-x="1722" 
d="M477 500q18 34 75.5 71t125.5 37q69 0 120 -36t79 -94t48.5 -128t36 -140.5t33 -128.5t48 -94t73.5 -36q41 0 71 37.5t46.5 98t27 121.5t20 125.5t19.5 92.5q25 74 76.5 117t118.5 43q66 0 111 -45t45 -117q0 -36 -21.5 -95.5t-57.5 -128t-88.5 -138t-109.5 -125.5
t-124 -91.5t-130 -35.5q-60 0 -108.5 22.5t-79.5 60t-56 84.5t-40 97t-30 97t-27.5 84.5t-30.5 60t-41 22.5q-26 0 -48.5 -18.5t-42.5 -45t-45.5 -53t-69 -45t-100.5 -18.5q-117 0 -182 80.5t-65 218.5v977h323v-934z" />
    <glyph glyph-name="S.ss02" horiz-adv-x="1984" 
d="M690 664q-557 83 -557 421q0 134 95.5 224t222.5 90q56 0 99 -16.5t66.5 -41.5t44 -53.5t34.5 -53.5t36.5 -41.5t50.5 -16.5q33 0 56.5 16.5t37.5 43t27 58.5t30.5 63.5t42 58t68 43t101.5 16.5q88 0 159 -35t112 -89.5t63 -114.5t22 -116q0 -68 -44.5 -111.5
t-110.5 -43.5q-68 0 -118.5 38t-74.5 111q-40 121 -48 136q-23 41 -58 42q-31 0 -54 -25t-39.5 -61t-36 -71.5t-53.5 -60.5t-82 -25q-36 0 -67.5 18t-54 43.5t-44 51t-47 43.5t-53.5 18q-34 0 -57 -21t-23 -59q0 -81 102.5 -130.5t319.5 -82.5l619 -94q446 -67 446 -363v-88
q0 -200 -220 -306t-638 -106q-210 0 -384.5 35.5t-309 106.5t-211.5 188t-82 270h315q56 -309 670 -309q295 1 420 37.5t125 106.5v28q0 53 -48.5 77.5t-164.5 43.5z" />
    <glyph glyph-name="T.ss02" horiz-adv-x="2031" 
d="M1350 1292q-15 0 -29.5 -2t-25 -3.5t-23.5 -7t-20 -8.5t-20 -11t-17.5 -10.5t-19 -12.5t-17.5 -12v-1225h-324v1225q-3 2 -17.5 12t-19 12.5t-17.5 10.5t-20 11t-20 8.5t-23.5 7t-25 3.5t-29.5 2q-65 0 -119.5 -23t-92.5 -56t-73.5 -66.5t-79 -56.5t-92.5 -23
q-86 0 -133 50t-42.5 117t56.5 118q59 59 170 91t244 32q81 0 148.5 -18t111.5 -43.5t81 -51.5t76 -44t79 -18t78.5 18t76 44t81 51.5t111 43.5t148.5 18q133 0 244 -32t170 -91q52 -51 56.5 -118t-42.5 -117t-133 -50q-49 0 -92.5 23t-79 56.5t-73 66.5t-92 56t-119.5 23z
" />
    <glyph glyph-name="Z.ss02" 
d="M1989 424q0 -54 -50 -134.5t-124.5 -155t-173 -128t-183.5 -53.5q-62 0 -117.5 21t-98 55t-81 75t-72 82.5t-64.5 75.5t-65.5 55t-68.5 21q-43 0 -99 -31t-113 -75t-116.5 -87.5t-127 -74.5t-128.5 -31q-56 0 -93.5 35.5t-37.5 87.5q0 50 29 89t90 85l1057 807h-1301v291
h1761v-291l-755 -578q58 -28 106.5 -88t80 -123.5t62 -123t67.5 -98t81 -38.5q34 0 61 22t45.5 63t30.5 79t25.5 91t21.5 77q25 74 76.5 117t118.5 43q66 0 111 -45t45 -117z" />
    <glyph glyph-name="Maj-vert" horiz-adv-x="606" 
d="M143 0v1434h324v-1434h-324z" />
    <glyph glyph-name="min-curv-b" horiz-adv-x="1654" 
d="M1583 598v-66q0 -253 -162.5 -406t-421.5 -153q-116 0 -223.5 30.5t-188.5 81t-141 110t-96 122.5l4 103q74 -62 227.5 -113t297.5 -51q187 0 301 69t114 207v66q0 138 -114 207t-301 69q-144 0 -298 -50.5t-227 -112.5l-4 102q36 63 96 122.5t141 110t188.5 81
t223.5 30.5q259 0 421.5 -153t162.5 -406z" />
    <glyph glyph-name="min-curv-n" horiz-adv-x="1570" 
d="M1188 0v553q0 183 -68 252t-243 69q-128 0 -277.5 -46t-216.5 -111l-4 121q77 136 236.5 227.5t349.5 91.5q250 0 389 -146t139 -397v-614h-305z" />
    <glyph glyph-name="min-desc" horiz-adv-x="495" 
d="M98 1126h305v-1548h-305v1548z" />
    <glyph glyph-name="period-punct" horiz-adv-x="1185" 
d="M143 0v295h899v-295h-899z" />
    </font>
</defs>
</svg>
